<svg xmlns="http://www.w3.org/2000/svg" xmlns:xlink="http://www.w3.org/1999/xlink" id="Capa_1" x="0px" y="0px" viewBox="0 0 76 43" style="enable-background:new 0 0 76 43;" xml:space="preserve"> <path d="M41.2,25.6c-0.2-0.1-0.3,0.1-0.3,0.3c0,0.2,0.1,0.4,0.3,0.4s0.3-0.1,0.3-0.3C41.6,25.7,41.4,25.6,41.2,25.6z"></path> <path d="M26.8,21.2c0.2-0.2,0.2-0.5,0.1-0.5c-0.1-0.1-0.4,0-0.5,0.3c-0.2,0.2-0.2,0.5-0.1,0.5C26.4,21.5,26.6,21.4,26.8,21.2z"></path> <path d="M18.4,20.5l-0.3,0.2l0.3,0.3l0.2-0.3L18.4,20.5z"></path> <path d="M7.4,20.5c-0.1,0.5,0,0.9,0.1,0.9c0.2,0,0.3-0.4,0.4-0.8c0.1-0.5,0-0.9-0.2-0.9C7.6,19.7,7.4,20,7.4,20.5z"></path> <path d="M4.1,21.4c0.2,0,0.3-0.1,0.3-0.3c0-0.2-0.1-0.4-0.3-0.4L3.8,21C3.8,21.2,4,21.4,4.1,21.4z"></path> <path d="M31.5,22.7c-0.1,0-0.3,0.7-0.3,1.5c-0.1,0.8,0.1,1.4,0.2,1.4c0.2,0,0.3-0.6,0.4-1.4C31.7,23.4,31.6,22.7,31.5,22.7z"></path> <path d="M53.2,25.2l0.1-1.5c0.2-0.1,1.1-0.3,1.7-0.8c0.3-0.3,0-1.3-1-0.7l-3.3,1.9c-0.4,0.3-1.6,0.5-2,0.1C47.4,24.9,45,25,44.5,24 l-1.7,1.1c0.2,1-0.1,2.7-1.9,2.6c-1.9-0.2-1.9-2.8,0.4-3.6v-0.5c-1.2,0.8-3.1,0.9-3-1.2c0.3-1.4,1.8-2.7,4.3-2.8v1.5 c-1.9,0-2.9,0.9-2.6,1.6c0.2,0.2,1.2-0.4,1.6-1.3H43l0,1.9c0,0,0.6-0.1,0.8-0.3c-0.9-2.6,0.4-4.8,1.7-4.5c2.1,0.4,1.5,3,0.3,4.6 c0.2,0.3,0.7,0.5,1.3,0.3c-1.3-4.1,4.4-3.8,3-0.6c1.2-0.3,3.6-2.4,5.1-2.3C57.8,20.5,57,25,53.2,25.2 M38,24.2h-1.5l0-1.7 c0-0.9-1-0.9-1.1,0l0,2.1l-1.4,0L33.9,22c-0.1-0.8-1.3-1.2-1-0.2c0,0.5,0.7,5.8-1.6,6c-2.2-0.1-1.9-5.6,0.2-7.6l-0.4-5.4h1.3 l0.3,4.8c0.7,0,1.8,0.1,2.3,1.3c0.6-0.8,2.8-1.3,3,1.6L38,24.2L38,24.2z M28.6,24.1c-0.9,0.8-3.1,0.7-3.7-1.2 c-0.2-0.6-0.6-0.5-0.6-0.3v1.6l-1.3,0l0-2.1h-0.3v-1.3h0.5l0.2-2.9h1.3L24.4,21h0.4c2.1-4,6-0.1,1.7,1.6c0.5,0.8,1.4,0.5,2.1,0 L28.6,24.1L28.6,24.1z M22.3,22.1c-0.4,0-0.7,0.2-0.7,0.7l-0.1,1.3h-1.1v-1.3c0-0.4-0.3-0.6-0.8-0.6c0,1-1.7,2.5-3.4,1.3 c-7.1,4.3-8.7-8-0.9-6.8l-0.1,1.5c-5.6-1.4-4.2,7.3,0.1,4.1c-0.3-1.4,1.6-1.9,1.7-0.9c-0.1,0.5,0,1.3,0.6,1.3c0.6,0,0.9-0.6,0.3-0.7 c-2.5-0.8,0.3-4.6,1.8-1.5c0.6,0,1.2,0.2,1.6,0.8c0-0.3,0.6-0.6,1-0.5L22.3,22.1z M9.5,23.8c-1,0.6-2,0.3-2.4-0.1 c-2.3,1.5-5.5,0.5-4.9-2.3c-2.1-4.1,1.6-6,3.9-4.9L6,18.1c-1.8-0.8-3.2,0.4-2.8,1.9c2.4-1.7,4,2.7,0.5,2.4c0.4,0.7,1.5,0.6,2.5,0 c-0.9-6.3,4.9-6,2,0.2C8,22.9,9,23,9.5,22.5L9.5,23.8L9.5,23.8z M53,17.8l0.7,1.2l-2.9,1.8l-0.9-1.1L53,17.8z M0,0.5v42l75.4-20.8 L0,0.5L0,0.5z"></path> <path d="M48.5,21.6c-0.2,0-0.3,0.2-0.4,0.5c0,0.3,0.2,0.5,0.4,0.5s0.4-0.2,0.4-0.5C48.9,21.8,48.7,21.6,48.5,21.6z"></path> <path d="M45.2,20.1c-0.2,0-0.3,0.3-0.4,0.8c0,0.4,0,0.8,0.2,0.8c0.1,0,0.3-0.3,0.4-0.8C45.3,20.4,45.3,20.1,45.2,20.1z"></path> </svg>