<svg xmlns="http://www.w3.org/2000/svg" xmlns:xlink="http://www.w3.org/1999/xlink" id="Capa_1" x="0px" y="0px" viewBox="0 0 104 23" style="enable-background:new 0 0 104 23;" xml:space="preserve"> <g> <rect x="0.7" y="5.2" width="8.9" height="3.4"></rect> <rect x="0.7" y="9.7" width="14" height="3.4"></rect> <rect x="0.7" y="0.8" width="19.6" height="3.4"></rect> <polygon points="28.2,13 31.5,13 31.5,9.1 28.2,9.1 28.2,4.5 32.4,4.5 32.4,0.7 32.4,0.7 24.4,0.7 24.4,22.1 32.6,22.1 32.6,18.3 28.2,18.3 "></polygon> <rect x="0.7" y="18.7" width="19.6" height="3.4"></rect> <rect x="0.7" y="14.2" width="8.9" height="3.4"></rect> <path d="M55.1,13.1c0-1.6-1-2.3-1.7-2.5c0.7-0.3,1.7-1.1,1.7-2.9V4.3c0-2.3-1.2-3.6-3.5-3.6h-6.1v21.5h3.9V13l0,0h0.8 c0.8,0,1,0.3,1,1.3v6.3c0,1,0.2,1.4,0.3,1.7h3.8V22c-0.2-0.3-0.3-0.7-0.3-1.6V13.1z M51.2,8.2c0,1-0.3,1.3-1.1,1.3h-0.7l0-5.4h0.9 c0.8,0,0.9,0.3,0.9,1.2V8.2z"></path> <polygon points="89.2,14.9 91.7,14.9 91.7,8.8 93.8,8.8 93.8,6.3 91.7,6.3 91.7,3.2 94.6,3.2 94.6,0.7 89.2,0.7 "></polygon> <polygon points="100.6,0.7 100.6,0.7 99.7,7.9 98.7,0.7 95.6,0.7 95.6,14.9 97.8,14.9 97.8,6.5 99.1,14.9 100,14.9 101.3,6.5 101.3,14.9 103.6,14.9 103.6,0.7 "></polygon> <path d="M80.6,0.7l-2.7,21.5h3.4l0.3-3.6h2.3l0.4,3.6h0H88L85.1,0.7H80.6z M82,14.9l0.7-7.3l0.8,7.3H82z"></path> <path d="M73.9,0.8h-5.5v21.5h3.8v-8.6l1.8,0h0c2.7,0,3.7-1.7,3.7-4.3V5C77.9,2.3,77.2,0.8,73.9,0.8z M74,8.9c0,0.7-0.1,1.2-1,1.2 h-0.7V4.1H73c0.9,0,1,0.5,1,1.3V8.9z"></path> <path d="M62.1,0.5h-0.9c-3.3,0-4.6,2.2-4.6,5.5v11.3c0,3.4,1.6,5.2,4.7,5.2h0.8c2.9,0,4.6-2.1,4.6-5.2l0-11.4h0 C66.7,2.6,65.5,0.5,62.1,0.5z M62.7,17.4c0,0.7-0.2,1.3-1,1.3c-0.8,0-1.1-0.6-1.1-1.3V5.6c0-1,0.3-1.4,1-1.4c0.7,0,1,0.5,1,1.4 L62.7,17.4L62.7,17.4z"></path> <path d="M39.9,17.3c0,0.9-0.3,1.3-0.9,1.3c-0.6,0-1-0.4-1-1.3V0.7h-3.9l0,16.5h0c0,3.6,1.6,5.3,4.4,5.3h1c2.8,0,4.4-1.7,4.4-5.3 V0.7h-3.9V17.3z"></path> </g> </svg>