<svg xmlns="http://www.w3.org/2000/svg" xmlns:xlink="http://www.w3.org/1999/xlink" id="Capa_1" x="0px" y="0px" viewBox="0 0 686.9 219.3" style="enable-background:new 0 0 686.9 219.3;" xml:space="preserve"> <g> <path d="M42.4,179.9c-1.4,1.1-2.7,2.3-3.8,3.6c6.2,5.7,13.1,10.6,20.6,14.7c5.5-6.4,10.5-16.4,13.7-31.2c-3.1,0.5-6.2,1.2-9.3,2.1 C54.1,171.8,46.9,175.6,42.4,179.9z"></path> <path d="M115.7,130.3c0,1,0,6.4,0,6.7c1.4,0.5,2.9,0.5,4.3,0.5c17.4-2.1,30.6-59.2,28.6-85C120.4,55.8,116.6,108.8,115.7,130.3z"></path> <path d="M106.6,9.4C51.2,9.4,6.3,54.3,6.3,109.7c0,25.4,9.4,48.6,25,66.2c9.1-14.1,28.1-23.8,44.3-23.5l2.6-17.7 c-7.9,4.5-15.5,9.8-18.1,13.1l-12.6-12.9c0-0.2,0-0.2,0-0.2v-0.2C50.6,75.1,64.9,15.9,91.9,40l1.9,2.1c1-3.3,1.9-5.7,3.1-7.4 l12.9,12.9c-5.7,8.8-10.5,40.3-15.3,74.2l4.3,4.3c-1.2,0-2.9,0.5-5,1.2c-1.2,8.6-2.4,17.2-3.6,25.8c4.9,0.6,9.5,1.7,13.8,3.3 c2.5,0.8,4.9,1.5,7.4,2.3c2.6,0.8,5-0.8,7.5-2.4c2.7-1.8,5.6-3.7,8.9-2.6l7.1,2l37.4,15.2l-0.4,1.2c-2.2-0.7-12.2-3.7-21.9-6.4 c-10.1-2.9-19.8-5.3-20.1-4.4c-0.7,2.2,21.8,9.3,33.8,13c2.4,0.7,4.4,1.3,5.7,1.7c0.5,0.1,0.8,0.2,1.1,0.3l-0.5,1.8l-2-0.6 c-0.8-0.2-1.9-0.6-3.4-1.1c-10.1-3.2-34.4-10.9-36.5-9.3l-0.1,0.1v0.1c1.3,3.8,24.5,10,35.7,13c2.3,0.6,4.1,1.1,5.1,1.4l-0.5,1.8 c-2.2-0.7-12.3-3.7-21.9-6.4c-10.1-2.8-19.8-5.3-20-4.4c-0.7,2.1,21.4,9.2,33.5,12.9c2.5,0.8,4.6,1.4,6,1.8 c0.5,0.1,0.8,0.3,1.1,0.3l-0.3,1l-44-9.4c-5.4-1.3-6.8-4.8-8.2-8.2c-0.4-1-0.9-2.1-1.4-3c-7.5-2.3-16.2-3.3-25.1-2.9 c-2.7,16.6-7.8,30.2-14.7,39.1c10.4,3.6,21.5,5.6,33.1,5.6c55.4,0,100.3-44.9,100.3-100.3C206.9,54.3,162,9.4,106.6,9.4z M128.6,152c-3.3-0.7-16.5-8.1-25.8-25.3c-1.4-18.4,2.6-78.8,27.2-86.6c3.6-1.2,11-1.4,14.3,0.2l13.6,13.8 C168.7,65.1,151.2,156.8,128.6,152z"></path> <path d="M62,124.1c6.4-4.1,14.1-7.9,19.1-9.5c3.6-26.3,7.2-51.6,11-66.8C76.1,48.7,66.3,83.5,62,124.1z"></path> <path d="M299.1,76.2h-3.9c-6.9,0-13.9,3-21.1,9c-6.7,7.4-10.1,14.9-10.1,22.4v3.9c0,6.1,2.4,12.5,7.3,19.4 c7.6,8.1,15.8,12.1,24.4,12.1h3.5c6.1,0,12.2-2.2,18.5-6.7v9.3c0,4.6-1.7,8.7-5,12.3c-2,2.8-5.2,4.9-9.5,6.5 c-4,0.5-6.6,0.9-7.8,1.3c-2.9,1.2-4.3,3.1-4.3,5.8c0,4,2.2,6.2,6.7,6.7h1.3c5.5,0,11.5-2,17.9-6c9.2-7.6,13.8-16.3,13.8-26.1v-27.6 c0-0.7-0.1-1.6-0.4-2.6c0.3-1.8,0.4-3.3,0.4-4.5v-3.5c0-7-2.8-13.9-8.4-20.7C315.2,79.9,307.4,76.2,299.1,76.2z M317.5,110.1 c0,3-0.6,5.8-1.9,8.4c-4.4,7.6-10.2,11.4-17.5,11.4h-1.7c-3.9,0-7.7-1.4-11.4-4.1c-5.5-4.6-8.2-10-8.2-16.2c0-3.2,1-6.7,2.9-10.6 c4.7-6.6,10.5-9.9,17.5-9.9c2.9,0,6,0.8,9.3,2.4c7.3,4.3,11,10.2,11,17.7L317.5,110.1L317.5,110.1z"></path> <path d="M374.4,75.9h-3.9c-6.8,0-13.8,3-21.2,9.1c-6.7,7.4-10.1,14.9-10.1,22.4v3.9c0,6.1,2.4,12.5,7.3,19.4 c7.6,8.1,15.8,12.1,24.4,12.1h3.5c6.9,0,13.8-2.8,20.7-8.4c7.3-7.3,11-15.1,11-23.3v-3.5c0-7-2.8-13.9-8.4-20.7 C390.5,79.6,382.7,75.9,374.4,75.9z M392.9,109.8c0,3-0.6,5.8-1.9,8.4c-4.4,7.6-10.2,11.4-17.5,11.4h-1.7c-3.9,0-7.7-1.4-11.4-4.1 c-5.5-4.6-8.2-10-8.2-16.2c0-3.2,1-6.7,2.9-10.6c4.7-6.6,10.5-9.9,17.5-9.9c2.9,0,6,0.8,9.3,2.4c7.3,4.3,11,10.2,11,17.7 L392.9,109.8L392.9,109.8z"></path> <path d="M480.6,83c0-4-2.2-6.2-6.7-6.7h-1.7c-6.8,0-13.8,3-21.2,9.1c-6.7,7.4-10.1,14.9-10.1,22.4v28.3c0.6,4.5,2.7,6.7,6.3,6.7 c1.5,0,2.9-0.4,4.1-1.3c1.9-1,2.8-3.8,2.8-8.4v-24.2c0-2.3,0.5-4.9,1.7-7.8c2.6-5.2,6.7-8.8,12.1-10.8l8.4-1.5 C479.2,87.6,480.6,85.7,480.6,83z"></path> <path d="M523.5,129.7c-4.7,0-9.1-1.3-12.9-3.9c-4-3-6.6-6.8-7.8-11.2v-0.2H550c3.6-1.3,5.4-3.2,5.4-5.8c0-6.3-1.9-12.4-5.6-18.3 c-2.4-2.6-3.5-4.1-3.5-4.3c-7.4-6.7-14.9-10.1-22.4-10.1h-3.4c-7.3,0-14.5,3.2-21.8,9.4c-6.5,7.3-9.7,14.7-9.7,22v3.9 c0,6.1,2.4,12.5,7.3,19.4c7.6,8.1,15.8,12.1,24.4,12.1h1.3c4.5-0.6,6.7-2.7,6.7-6.3C528.7,133.1,527,130.9,523.5,129.7z M504,100.5 c4.4-7.6,10.2-11.4,17.5-11.4h1.3c7.6,0,13.6,4.1,17.9,12.3v0.2h-37.1C503.6,101.3,503.8,100.9,504,100.5z"></path> <path d="M629.1,121.2c0-3-1.3-6.4-3.9-10.1c-4.8-5.1-9.5-7.7-14.2-7.7h-22.9c-2.9,0-4.8-0.2-5.6-0.6c-3.1-1.5-4.7-3.4-4.7-5.8v-1.6 c0-0.4,0.1-1,0.4-1.9c1.1-3,4.3-4.5,9.5-4.5h34.7c4.5-0.6,6.7-2.6,6.7-6c0-3.8-2.2-5.9-6.7-6.4h-39c-3,0-6.3,1.1-9.8,3.3 c-5.9,4.5-8.9,9.4-8.9,14.7v3.3c0,4.2,2.3,8.6,6.7,13.2c3.7,2.6,7.5,4.2,11.2,4.7c14,0.1,22.8,0.2,26.3,0.2c0.4,0,0.9,0.1,1.5,0.2 c3.7,1.3,5.6,3.5,5.6,6.8c0,1.3-0.4,2.6-1.3,3.9c-1.4,2.2-4.4,3.3-9.1,3.3h-35.8c-3.5,1.3-5.2,3.1-5.2,5.6v1.8c1.3,3.3,3.2,5,5.8,5 h40.1c2.7,0,5.8-1,9.3-2.9c6.2-4.5,9.3-9.4,9.3-14.8L629.1,121.2L629.1,121.2z"></path> <path d="M640.3,103.8c0,4.1,0.1,7.8,0.4,11.2c0.9,5.9,3.8,11.6,8.6,17.2c7.1,7.1,14.8,10.6,22.9,10.6h1.7c4.5-0.6,6.7-2.7,6.7-6.3 c0-3.1-1.5-5.2-4.5-6.5c-4.9-0.4-8.2-1-10.1-1.9c-8.5-3.9-12.7-11.3-12.7-22V86.9h10.6c4.5-0.6,6.7-2.7,6.7-6.3 c0-4-2.2-6.2-6.7-6.7h-10.6v-20c-0.6-4.5-2.7-6.7-6.3-6.7c-4,0-6.2,2.2-6.7,6.7v22.3c0,1.9-0.1,3.3-0.2,4.3c0.1,1,0.2,2.4,0.2,4.3 L640.3,103.8L640.3,103.8z"></path> <path d="M445.3,154.3c0-0.4,0.1-0.9,0.1-1.3c0.1-0.5,0.2-0.9,0.3-1.2c0.2-0.3,0.4-0.6,0.7-0.8s0.7-0.3,1.3-0.3 c0.4,0,0.8,0.1,1.3,0.2v-2c-0.3,0-0.6-0.1-0.9-0.1s-0.7,0-1,0c-1.5,0-2.5,0.4-3.1,1.3c-0.6,0.9-0.9,2.1-0.9,3.6v3h-2.8v1.7h2.8 v17.1h2.2v-17.1h3.7v-1.8h-3.7V154.3z"></path> <path d="M470.1,158.9c-0.7-0.9-1.6-1.6-2.7-2.1s-2.4-0.8-3.9-0.8c-1.4,0-2.7,0.3-3.8,0.8c-1.1,0.5-2,1.2-2.7,2.1 c-0.7,0.9-1.2,2-1.6,3.2s-0.6,2.5-0.6,3.9c0,1.7,0.2,3.2,0.7,4.4s1.1,2.3,1.9,3.1c0.8,0.9,1.7,1.5,2.8,1.9c1,0.5,2.2,0.7,3.4,0.7 c1.3,0,2.5-0.2,3.4-0.9c1.1-0.4,2-1.1,2.8-2c0.8-0.8,1.4-1.9,1.8-3.1c0.4-1.2,0.6-2.6,0.6-4.1c0-1.4-0.1-2.7-0.5-3.9 C471.4,160.8,470.8,159.8,470.1,158.9z M469.5,169.1c-0.2,1-0.6,1.8-1.1,2.6c-0.5,0.7-1.2,1.3-2,1.8s-1.8,0.7-2.9,0.7 s-2-0.2-2.8-0.6c-0.8-0.3-1.5-0.9-2-1.6s-0.9-1.5-1.2-2.5c-0.3-0.9-0.4-2-0.4-3.2c0-1,0.2-2,0.4-3c0.2-1,0.6-1.9,1.1-2.6 c0.5-0.8,1.2-1.3,2-1.8s1.8-0.7,2.9-0.7c1.2,0,2.2,0.2,3,0.6s1.5,1,2,1.7s0.9,1.5,1.1,2.5c0.3,0.9,0.4,2,0.4,3.1 C470,167.1,469.9,168.1,469.5,169.1z"></path> <path d="M494,158.9c-0.7-0.9-1.6-1.6-2.7-2.1s-2.4-0.8-3.9-0.8c-1.4,0-2.7,0.3-3.8,0.8c-1.1,0.5-2,1.2-2.7,2.1 c-0.7,0.9-1.2,2-1.6,3.2c-0.3,1.2-0.5,2.5-0.5,3.9c0,1.7,0.2,3.2,0.7,4.4s1.1,2.3,1.9,3.1c0.8,0.9,1.7,1.5,2.8,1.9 c1,0.5,2.2,0.7,3.4,0.7c1.3,0,2.5-0.2,3.3-0.9c1.1-0.4,2-1.1,2.8-2c0.8-0.8,1.4-1.9,1.8-3.1c0.4-1.2,0.6-2.6,0.6-4.1 c0-1.4-0.1-2.7-0.5-3.9C495.3,160.8,494.7,159.8,494,158.9z M493.6,169.1c-0.2,1-0.6,1.8-1.1,2.6c-0.5,0.7-1.2,1.3-2,1.8 s-1.8,0.7-2.9,0.7s-2-0.2-2.8-0.6c-0.8-0.3-1.5-0.9-2-1.6s-0.9-1.5-1.2-2.5c-0.3-0.9-0.4-2-0.4-3.2c0-1,0.2-2,0.4-3 c0.2-1,0.6-1.9,1.1-2.6c0.5-0.8,1.2-1.3,2-1.8s1.7-0.7,2.9-0.7s2.2,0.2,3,0.6s1.5,1,2,1.7s0.9,1.5,1.1,2.5c0.3,0.9,0.4,2,0.4,3.1 C494.1,167.1,493.9,168.1,493.6,169.1z"></path> <path d="M518.8,159.8c-0.7-1.2-1.7-2.1-2.9-2.7c-1.3-0.6-2.6-0.9-3.9-0.9c-1.5,0-2.7,0.3-3.8,0.8c-1,0.6-1.9,1.3-2.6,2.2 s-1.3,2-1.6,3.2c-0.3,1.2-0.5,2.5-0.5,3.8c0,1.4,0.2,2.7,0.5,3.9c0.3,1.3,0.8,2.3,1.5,3.2s1.6,1.6,2.7,2.1s2.4,0.8,3.9,0.8 c0.6,0,1.3-0.1,1.9-0.3c0.6-0.1,1.2-0.4,1.8-0.7c0.5-0.3,1.1-0.7,1.6-1.2s0.9-1.1,1.2-1.7h0.1v3.3h2.2v-26.4h-2.1V159.8z M518.2,169.2c-0.3,1-0.7,1.9-1.2,2.6s-1.2,1.3-2,1.7s-1.7,0.6-2.7,0.6s-1.8-0.2-2.6-0.5c-0.7-0.3-1.4-0.8-2-1.4 c-0.6-0.6-1.1-1.4-1.4-2.3c-0.3-1-0.5-2-0.5-3.2s0.1-2.4,0.3-3.4c0.3-1,0.7-1.9,1.2-2.7c0.5-0.7,1.2-1.3,2-1.8 c0.9-0.5,1.9-0.7,3-0.7c1,0,1.9,0.2,2.7,0.6c0.8,0.4,1.5,1,2,1.7c0.6,0.7,1,1.5,1.3,2.5s0.4,2,0.4,3.1 C518.7,167.2,518.6,168.3,518.2,169.2z"></path> <path d="M554.5,166.2c-0.9-0.4-1.9-0.7-2.9-0.9c-1-0.3-2-0.5-2.9-0.8s-1.6-0.6-2.2-1.1c-0.6-0.5-0.9-1.1-0.9-2c0-1,0.4-1.8,1.1-2.4 c0.7-0.6,1.8-0.9,3.2-0.9s2.6,0.3,3.5,0.9c0.9,0.6,1.5,1.6,1.7,3.1h2.2c-0.2-2.2-1-3.7-2.3-4.6c-1.3-0.9-2.9-1.4-5-1.4 s-3.7,0.5-4.9,1.5c-1.1,1-1.7,2.3-1.7,3.9c0,1.3,0.3,2.2,0.9,2.9c0.5,0.7,1.3,1.2,2.2,1.6c0.9,0.3,1.9,0.6,2.9,0.8s2,0.4,2.9,0.7 c1,0.3,1.7,0.6,2.3,1.1s0.9,1.2,0.9,2.1c0,0.4-0.1,0.9-0.3,1.3c-0.2,0.4-0.5,0.8-0.9,1.1c-0.3,0.3-0.8,0.6-1.4,0.8 s-1.3,0.3-2.1,0.3c-1.6,0-2.9-0.3-3.8-1c-0.8-0.7-1.5-1.9-1.8-3.5v-0.1h-2.4c0.1,0.9,0.3,1.7,0.6,2.5s0.8,1.5,1.4,2.1 c0.6,0.6,1.3,1.1,2.2,1.4s1.9,0.5,3,0.5s2.2-0.1,3.1-0.3s1.7-0.5,2.4-1c0.7-0.4,1.2-1,1.6-1.7c0.4-0.7,0.6-1.5,0.6-2.4 c0-1.3-0.3-2.2-0.9-2.9S555.4,166.6,554.5,166.2z"></path> <path d="M580,158.8c-1.5-1.8-3.6-2.7-6.2-2.7c-1.4,0-2.6,0.3-3.7,0.8c-1,0.6-2,1.3-2.7,2.2s-1.3,2-1.7,3.2s-0.6,2.5-0.6,3.9 s0.2,2.7,0.5,3.9c0.4,1.2,0.9,2.2,1.6,3.1c0.7,0.9,1.6,1.6,2.7,2.1s2.4,0.8,3.9,0.8c1.2,0,2.2-0.2,3.1-0.5c0.9-0.3,1.6-0.7,2.3-1.3 c0.6-0.6,1.2-1.2,1.6-2c0.5-0.8,0.8-1.6,1.1-2.5h-2.5c-0.3,1.4-1,2.4-2,3.2c-1,0.7-2.3,1.1-3.7,1.1c-1.1,0-2-0.2-2.8-0.6 c-0.8-0.4-1.5-0.9-2-1.6c-0.5-0.7-0.9-1.5-1.2-2.4s-0.4-1.9-0.4-2.9h14.9C582.2,163.2,581.5,160.6,580,158.8z M579.6,164.9h-12.4 c0.1-0.9,0.3-1.8,0.6-2.6c0.4-0.8,0.8-1.5,1.3-2.1s1.2-1.1,1.9-1.5c0.8-0.3,1.6-0.5,2.6-0.5s1.8,0.1,2.6,0.5 c0.8,0.3,1.4,0.8,1.9,1.4c0.5,0.6,0.8,1.3,1.1,2.1C579.5,163,579.6,163.9,579.6,164.9L579.6,164.9z"></path> <path d="M592.3,160.2L592.3,160.2l-0.1-3.6H590v19h2.2v-9.3c0-1,0.1-2,0.3-3s0.5-1.8,1-2.5s1.1-1.3,1.9-1.7 c0.8-0.4,1.9-0.6,3.1-0.6v-2.4c-1.6,0-2.8,0.3-3.8,0.9C593.7,157.6,592.9,158.7,592.3,160.2z"></path> <polygon points="612.4,172.9 606.2,156.6 603.8,156.6 611,175.6 613.5,175.6 620.9,156.6 618.5,156.6 "></polygon> <rect x="628" y="149.2" width="2.4" height="3.3"></rect> <rect x="628.1" y="156.6" width="2.2" height="19"></rect> <path d="M651.2,172.7c-1,0.9-2.3,1.4-3.9,1.4c-1.1,0-2.1-0.2-2.9-0.7c-0.8-0.4-1.5-1-2-1.8s-0.9-1.6-1.1-2.6 c-0.2-0.9-0.3-1.9-0.3-2.9s0.2-1.9,0.4-2.9s0.6-1.8,1.1-2.6c0.5-0.7,1.2-1.3,2-1.8s1.8-0.7,2.9-0.7c1.4,0,2.6,0.4,3.6,1.2 c0.9,0.8,1.6,1.9,2,3.3v-0.1h2.2c-0.3-2.2-1.1-3.9-2.5-4.9c-1.3-1.1-3.1-1.6-5.3-1.6c-1.5,0-2.7,0.3-3.8,0.8s-2,1.3-2.7,2.2 c-0.8,0.9-1.3,2-1.7,3.2s-0.6,2.5-0.6,3.8c0,1.4,0.2,2.7,0.5,3.9c0.4,1.3,0.9,2.3,1.6,3.2c0.7,0.9,1.6,1.6,2.7,2.1s2.4,0.8,3.9,0.8 c1.2,0,2.3-0.2,3.2-0.5s1.7-0.8,2.4-1.4c0.6-0.6,1.2-1.3,1.6-2.2c0.4-0.9,0.7-1.9,0.9-2.9h-2.3 C652.8,170.6,652.2,171.8,651.2,172.7z"></path> <path d="M677.6,158.8c-1.4-1.8-3.5-2.7-6.1-2.7c-1.4,0-2.6,0.3-3.7,0.8c-1,0.6-2,1.3-2.7,2.2s-1.3,2-1.7,3.2s-0.6,2.5-0.6,3.9 s0.2,2.7,0.5,3.9c0.4,1.2,0.9,2.2,1.6,3.1c0.7,0.9,1.6,1.6,2.7,2.1s2.4,0.8,3.9,0.8c1.1,0,2.2-0.2,3.1-0.5c0.9-0.3,1.6-0.7,2.3-1.3 c0.6-0.6,1.2-1.2,1.6-2c0.5-0.8,0.8-1.6,1.1-2.5h-2.5c-0.4,1.4-1.1,2.4-2.1,3.2c-1,0.7-2.3,1.1-3.7,1.1c-1.1,0-2-0.2-2.8-0.6 c-0.8-0.4-1.5-0.9-2-1.6c-0.5-0.7-0.9-1.5-1.2-2.4s-0.4-1.9-0.4-2.9h14.9C679.8,163.2,679.1,160.6,677.6,158.8z M677.3,164.9h-12.4 c0.1-0.9,0.3-1.8,0.6-2.6c0.4-0.8,0.8-1.5,1.3-2.1s1.2-1.1,1.9-1.5c0.8-0.3,1.6-0.5,2.6-0.5s1.8,0.1,2.6,0.5 c0.8,0.3,1.4,0.8,1.9,1.4c0.5,0.6,0.8,1.3,1.1,2.1C677.2,163,677.3,163.9,677.3,164.9L677.3,164.9z"></path> </g> </svg>