<svg width="174" height="55" viewBox="0 0 174 55" fill="none" xmlns="http://www.w3.org/2000/svg">
<g clip-path="url(#clip0_1782_39533)">
<path d="M169.821 34.474C169.376 34.0068 168.833 33.6418 168.231 33.4046C167.629 33.1675 166.983 33.0639 166.336 33.1012C162.623 33.1012 159.817 36.0407 159.817 39.9488C159.817 43.3684 162.055 46.8217 166.336 46.8217C166.98 46.8501 167.623 46.7441 168.223 46.5106C168.823 46.277 169.367 45.921 169.821 45.4656V46.4005H174V33.5223H169.821V34.474Z" fill="#82B4B6"/>
<path d="M103.078 46.366V36.7473H104.883V33.4961H103.078V29.3438H98.9066V33.4961H97.05V36.7473H98.9066V46.366H103.078Z" fill="#82B4B6"/>
<path d="M111.123 46.7703C112.443 46.7809 113.734 46.3771 114.81 45.6164C115.977 44.7892 116.887 43.6543 117.438 42.3399L117.565 42.0451H113.327L113.259 42.1209C113.03 42.4663 112.716 42.7476 112.346 42.9378C111.976 43.128 111.564 43.2209 111.148 43.2075C110.547 43.2396 109.952 43.0656 109.465 42.7144C108.977 42.3633 108.626 41.8565 108.469 41.2787H117.794L117.845 40.9839C117.893 40.6831 117.916 40.3788 117.913 40.0742C117.95 39.1634 117.8 38.2546 117.473 37.4029C117.146 36.5512 116.648 35.7743 116.01 35.1192C115.372 34.4641 114.607 33.9444 113.762 33.5916C112.916 33.2388 112.006 33.0601 111.089 33.0666C109.27 33.091 107.535 33.8307 106.263 35.1237C104.992 36.4166 104.289 38.1574 104.307 39.9647C104.307 41.7697 105.028 43.5007 106.313 44.777C107.597 46.0532 109.34 46.7703 111.157 46.7703" fill="#82B4B6"/>
<path d="M138.997 46.367V33.4971H134.809V34.4489C134.365 33.9801 133.823 33.6135 133.221 33.3749C132.619 33.1363 131.971 33.0314 131.324 33.0676C130.077 33.0576 128.854 33.4134 127.809 34.0906C126.764 34.7678 125.943 35.7362 125.45 36.8746V33.0676H125.238C124.675 33.0185 124.109 33.1099 123.591 33.3335C123.072 33.5571 122.619 33.9058 122.27 34.3478V33.5056H118.32V46.3754H122.491V39.3256C122.491 37.6411 123.5 37.2958 125.246 37.2536H125.297C124.974 38.1128 124.81 39.0232 124.814 39.9405C124.814 43.3095 127.052 46.8134 131.324 46.8134C131.968 46.8402 132.61 46.7335 133.21 46.5C133.81 46.2666 134.355 45.9114 134.809 45.4573V46.3838L138.997 46.367Z" fill="#82B4B6"/>
<path d="M148.271 33.067C147.573 33.0448 146.878 33.1682 146.231 33.4294C145.584 33.6905 145 34.0835 144.515 34.5831V33.4966H140.565V50.5188H144.744V45.541C145.723 46.3959 146.994 46.8451 148.296 46.7959C151.891 46.7959 154.604 43.8985 154.604 40.0578C154.604 35.2569 151.323 33.067 148.271 33.067Z" fill="#82B4B6"/>
<path d="M159.249 33.4961H155.07V46.3659H159.249V33.4961Z" fill="#82B4B6"/>
<path d="M159.249 27.8203H155.07V31.0715H159.249V27.8203Z" fill="#82B4B6"/>
<path d="M40.0475 45.9288V33.5391H35.8767V46.0636C35.8767 47.0743 35.8003 47.7481 34.7576 47.7481H34.0454V50.9824H35.19C39.683 50.9824 40.0475 48.5904 40.0475 45.9288Z" fill="#82B4B6"/>
<path d="M46.3547 46.7708C46.9325 46.8213 47.5142 46.7337 48.051 46.5154C48.5878 46.2971 49.0642 45.9544 49.4406 45.5158V46.3581H53.4249V33.4883H49.2541V40.5381C49.2541 42.4584 48.2029 42.8627 47.3212 42.8627C45.6257 42.8627 45.5239 41.6835 45.5239 40.5886V33.4883H41.353V41.1445C41.353 42.9133 41.514 43.8566 42.5228 45.1116C42.9998 45.6567 43.5923 46.0905 44.2576 46.3817C44.923 46.6729 45.6448 46.8144 46.3716 46.7961" fill="#82B4B6"/>
<path d="M60.7326 46.7711C62.0502 46.7778 63.3367 46.3743 64.4117 45.6172C65.5801 44.7921 66.491 43.6566 67.0398 42.3408L67.1753 42.0376H62.9366L62.8772 42.1218C62.6454 42.4644 62.3307 42.7435 61.9618 42.9333C61.5929 43.1232 61.1817 43.2178 60.7663 43.2084C60.1646 43.2421 59.5698 43.0686 59.0818 42.7173C58.5938 42.3659 58.2426 41.8582 58.0875 41.2796H67.4127L67.4552 40.9848C67.4552 40.9005 67.4552 40.8163 67.4976 40.7321C67.5973 42.3728 68.3259 43.9133 69.5338 45.0366C70.7416 46.1599 72.3368 46.7806 73.9913 46.7711C74.6021 46.7972 75.2112 46.6891 75.7753 46.4548C76.3394 46.2204 76.8448 45.8654 77.2552 45.4151C77.145 48.0514 75.2544 48.3462 74.4236 48.3462C74.018 48.378 73.6121 48.2893 73.2573 48.0914C72.9026 47.8934 72.615 47.5951 72.4313 47.2344L72.3721 47.108H67.6501V47.3523C68.1588 50.9488 71.9566 51.909 74.1183 51.909C76.9413 51.909 79.5017 50.7129 80.6461 48.86C81.2989 47.7482 81.4175 46.4763 81.4175 44.6486V33.4886H77.2467V34.3309C76.8101 33.9167 76.2935 33.5949 75.7281 33.385C75.1627 33.1751 74.5602 33.0814 73.9573 33.1096C72.2735 33.0998 70.6521 33.7429 69.4379 34.902C68.2237 36.0612 67.5125 37.6451 67.4552 39.3171C67.3384 37.6146 66.5711 36.0209 65.3103 34.8622C64.0495 33.7035 62.3906 33.0675 60.6732 33.0843C58.8542 33.1087 57.1191 33.8484 55.8479 35.1414C54.5767 36.4343 53.8731 38.1751 53.8912 39.9825C53.8935 41.7882 54.617 43.5192 55.903 44.7952C57.1889 46.0713 58.9319 46.788 60.7493 46.788" fill="#82B4B6"/>
<path d="M88.7506 46.7707C89.3958 46.7993 90.04 46.6934 90.6415 46.4598C91.243 46.2263 91.7887 45.8703 92.2434 45.4147V46.3496H96.4143V33.4713H92.2434V34.4231C91.7969 33.955 91.2531 33.589 90.65 33.3505C90.0469 33.112 89.3988 33.0066 88.7506 33.0418C85.0375 33.0418 82.24 35.9897 82.24 39.8978C82.24 43.3174 84.478 46.7707 88.7506 46.7707Z" fill="#82B4B6"/>
<path d="M32.6297 29.0333C32.2419 28.7571 31.776 28.6097 31.2987 28.6122C30.9871 28.6144 30.679 28.6774 30.3918 28.7975C30.0928 28.353 29.7133 27.9674 29.2727 27.6604C28.7647 27.3091 28.1864 27.0706 27.5772 26.9614C27.5645 26.6038 27.4683 26.254 27.2961 25.9398C27.124 25.6255 26.8807 25.3553 26.5854 25.1505C26.1976 24.8814 25.7359 24.7373 25.2629 24.7378C24.8887 24.7379 24.5199 24.8275 24.1879 24.999C23.8559 25.1705 23.5704 25.4189 23.3554 25.7232C23.0681 26.1333 22.9218 26.6247 22.9386 27.1241C22.9554 27.6236 23.1343 28.1042 23.4486 28.4943C23.3902 28.5637 23.3364 28.6369 23.2876 28.7133C22.9775 29.1475 22.7531 29.6362 22.6263 30.1535C22.5754 29.9346 22.5331 29.7408 22.4907 29.5808C22.4673 29.4073 22.4218 29.2375 22.3552 29.0754C22.3552 29.0165 22.3551 28.8986 22.2873 28.7385C21.9122 25.8495 20.5541 23.1748 18.4385 21.1581C20.1975 20.5496 21.6935 19.3605 22.6772 17.7891C23.3499 17.5781 23.9375 17.16 24.3551 16.5952C24.7727 16.0304 24.9986 15.3482 25 14.6474C25.001 14.1188 24.8737 13.5978 24.6287 13.1286C24.3837 12.6593 24.0284 12.2558 23.5928 11.9522C23.9343 10.9859 24.1091 9.96935 24.1099 8.94527C24.1076 6.558 23.1522 4.26913 21.4532 2.58107C19.7541 0.89301 17.4503 -0.056325 15.0475 -0.058555C12.6621 -0.0654988 10.37 0.861387 8.66745 2.52137C6.96493 4.18136 5.98907 6.44083 5.95119 8.81051C5.18243 8.94335 4.48554 9.3414 3.98311 9.93457C3.48068 10.5277 3.20493 11.278 3.2045 12.0532C3.20642 12.9153 3.54668 13.7426 4.15304 14.3592C4.75939 14.9757 5.58406 15.333 6.45143 15.3549C6.63173 16.4999 7.09036 17.5839 7.78763 18.5129C8.48489 19.442 9.39971 20.1881 10.4528 20.6865C10.3179 20.7311 10.1896 20.7934 10.0713 20.8718C9.22358 21.4277 7.92636 24.8894 7.78224 25.2852L6.9345 27.9805C5.83243 32.5709 6.68028 34.7186 7.04481 35.6535C7.10415 35.8136 7.14646 35.9315 7.17189 36.0157C7.29905 36.5716 5.71391 41.4231 4.56097 44.0088C4.14044 45.0207 3.65609 46.0053 3.11115 46.9568C2.45665 47.1611 1.85651 47.5086 1.35481 47.9735C0.853106 48.4384 0.462634 49.0091 0.211925 49.6436C0.0361564 50.3207 -0.00331362 51.0256 0.0956077 51.7179C0.194529 52.4102 0.429839 53.0763 0.788334 53.678C2.10166 54.5588 3.66435 54.9986 5.24749 54.933C7.67534 54.8453 10.0638 54.2964 12.2838 53.3159H12.3263C12.7925 52.7768 12.4534 50.1237 12.3263 49.1719C12.8688 48.4728 12.7331 46.384 12.6992 45.9545C12.7785 45.0302 12.9927 44.1223 13.335 43.2592C13.335 43.9751 13.3859 45.0111 13.335 46.1903C13.3514 47.2741 13.1736 48.3522 12.8095 49.3741C12.7366 50.5644 12.7592 51.7586 12.8772 52.9453V53.0379L12.9621 53.0969C14.4495 54.0789 16.2138 54.5629 17.9976 54.4782C20.1233 54.4283 22.2283 54.0504 24.2371 53.358H24.3303V53.2653C24.8594 51.9777 24.8594 50.5353 24.3303 49.2477C24.5116 49.3356 24.7022 49.4033 24.8984 49.4499C25.0591 49.4912 25.224 49.5138 25.39 49.5172C25.6916 49.4948 25.9839 49.4024 26.2431 49.2473C26.5022 49.0922 26.721 48.8789 26.882 48.6244L27.0178 48.4644C27.1522 48.2507 27.2411 48.0119 27.279 47.7627C27.3169 47.5136 27.303 47.2593 27.2382 47.0157C27.4162 47.3442 27.9842 48.2875 28.6963 48.3381H28.9082C29.0777 48.3467 29.2473 48.3467 29.4168 48.3381C29.7194 48.3542 30.0202 48.2833 30.2833 48.1339C30.5464 47.9845 30.7606 47.763 30.9003 47.4958C31.5192 46.4767 31.231 45.9376 30.7902 45.129L30.078 43.8067C29.6783 41.8832 29.111 39.9978 28.3825 38.1719C28.1706 37.7592 28.0011 37.4392 27.8316 37.1528C27.467 36.26 27.2041 35.6704 27.06 35.384C27.68 35.3246 28.2798 35.1327 28.8182 34.8217C29.3566 34.5106 29.8212 34.0875 30.1799 33.5816C30.2917 33.4239 30.3908 33.2578 30.4764 33.0846C30.6933 33.1516 30.9191 33.1857 31.1462 33.1857C31.5191 33.1849 31.8863 33.095 32.2168 32.9235C32.5474 32.752 32.8315 32.5039 33.0451 32.2002C33.2205 31.9527 33.3451 31.6732 33.4115 31.3777C33.4779 31.0823 33.4847 30.7767 33.432 30.4785C33.3792 30.1804 33.2678 29.8955 33.1039 29.6403C32.9401 29.385 32.7271 29.1645 32.4772 28.9912L32.6297 29.0333ZM26.9753 45.9292C26.2208 44.2868 25.7969 43.5961 25.4154 43.4024C24.958 42.7003 24.6174 41.9296 24.4066 41.1198C24.6251 41.0061 24.8645 40.9373 25.1103 40.9177L25.5257 41.1957C25.9626 41.9206 26.2774 42.7115 26.4581 43.5372C26.3564 43.9162 26.4582 44.5984 26.9923 45.9629L26.9753 45.9292ZM22.0838 46.7378C21.4388 45.8707 20.8714 44.9491 20.3883 43.9836C19.8527 42.8314 19.6869 41.5434 19.9135 40.2944C19.9814 40.5471 20.0577 40.8082 20.1509 41.1367C20.9493 42.9315 21.8995 44.6559 22.991 46.2914L23.4318 47.7232C23.1089 47.3963 22.7441 47.1131 22.3467 46.881L22.0838 46.7378Z" fill="#82B4B6"/>
<path fill-rule="evenodd" clip-rule="evenodd" d="M25.7205 36.4114L25.2204 36.2598L25.3645 35.7797L24.7287 35.5859L24.5761 36.066L24.0844 35.9144L23.8894 36.5545L24.3811 36.6977L24.2285 37.2115L24.8643 37.4052L25.0254 36.8915L25.5256 37.0431L25.7205 36.4114Z" fill="#D73A75"/>
<path d="M35.9868 27.9375H37.4788V28.207H36.2835V29.2767H37.4365V29.5462H36.2835V30.8854H35.9868V27.9375Z" fill="#81B3B4"/>
<path d="M35.9868 27.9375H37.4788V28.207H36.2835V29.2767H37.4365V29.5462H36.2835V30.8854H35.9868V27.9375Z" stroke="#81B3B4" stroke-width="0.24" stroke-miterlimit="10"/>
<path d="M43.3199 27.9219V29.758C43.3124 29.9403 43.3471 30.1219 43.4216 30.2886C43.4788 30.3998 43.5665 30.4928 43.6745 30.5568C43.7824 30.6209 43.9062 30.6535 44.0319 30.6508C44.1588 30.6541 44.2843 30.6218 44.3937 30.5578C44.5031 30.4938 44.5921 30.4005 44.6507 30.2886C44.722 30.1211 44.754 29.9396 44.7441 29.758V27.9219H45.0409V29.758C45.05 29.9658 45.0122 30.173 44.9306 30.3645C44.8533 30.5353 44.7265 30.6794 44.5665 30.7784C44.4065 30.8774 44.2203 30.9268 44.0319 30.9203C43.8437 30.9257 43.6582 30.8758 43.4983 30.7769C43.3385 30.678 43.2117 30.5346 43.1335 30.3645C43.0558 30.1718 43.0182 29.9655 43.0231 29.758V27.9219H43.3199Z" fill="#81B3B4"/>
<path d="M43.3199 27.9219V29.758C43.3124 29.9403 43.3471 30.1219 43.4216 30.2886C43.4788 30.3998 43.5665 30.4928 43.6745 30.5568C43.7824 30.6209 43.9062 30.6535 44.0319 30.6508C44.1588 30.6541 44.2843 30.6218 44.3937 30.5578C44.5031 30.4938 44.5921 30.4005 44.6507 30.2886C44.722 30.1211 44.754 29.9396 44.7441 29.758V27.9219H45.0409V29.758C45.05 29.9658 45.0122 30.173 44.9306 30.3645C44.8533 30.5353 44.7265 30.6794 44.5665 30.7784C44.4065 30.8774 44.2203 30.9268 44.0319 30.9203C43.8437 30.9257 43.6582 30.8758 43.4983 30.7769C43.3385 30.678 43.2117 30.5346 43.1335 30.3645C43.0558 30.1718 43.0182 29.9655 43.0231 29.758V27.9219H43.3199Z" stroke="#81B3B4" stroke-width="0.24" stroke-miterlimit="10"/>
<path d="M50.1611 27.9375H50.5596L52.2127 30.3885H52.2212V27.9375H52.5179V30.8854H52.2212L50.4663 28.2997H50.4578V30.8854H50.1611V27.9375Z" fill="#81B3B4"/>
<path d="M50.1611 27.9375H50.5596L52.2127 30.3885H52.2212V27.9375H52.5179V30.8854H52.2212L50.4663 28.2997H50.4578V30.8854H50.1611V27.9375Z" stroke="#81B3B4" stroke-width="0.24" stroke-miterlimit="10"/>
<path d="M57.3923 27.9461H58.2401C58.5789 27.9362 58.9138 28.0208 59.2066 28.1904C59.4132 28.325 59.5827 28.5088 59.6996 28.725C59.8166 28.9412 59.8773 29.183 59.8764 29.4285C59.8731 29.6708 59.8103 29.9087 59.6936 30.1215C59.5769 30.3343 59.4098 30.5156 59.2066 30.6498C58.9121 30.8153 58.5784 30.8996 58.2401 30.894H57.3923V27.9461ZM57.6891 30.6245H58.113C58.4686 30.6542 58.8246 30.5717 59.1303 30.3887C59.2759 30.2702 59.3932 30.1212 59.4738 29.9522C59.5545 29.7833 59.5965 29.5986 59.5966 29.4116C59.596 29.2215 59.5495 29.0343 59.461 28.8658C59.3725 28.6972 59.2445 28.5522 59.0878 28.443C58.7961 28.2646 58.4542 28.1848 58.113 28.2156H57.6891V30.6245Z" fill="#81B3B4"/>
<path d="M57.3923 27.9461H58.2401C58.5789 27.9362 58.9138 28.0208 59.2066 28.1904C59.4132 28.325 59.5827 28.5088 59.6996 28.725C59.8166 28.9412 59.8773 29.183 59.8764 29.4285C59.8731 29.6708 59.8103 29.9087 59.6936 30.1215C59.5769 30.3343 59.4098 30.5156 59.2066 30.6498C58.9121 30.8153 58.5784 30.8996 58.2401 30.894H57.3923V27.9461ZM57.6891 30.6245H58.113C58.4686 30.6542 58.8246 30.5717 59.1303 30.3887C59.2759 30.2702 59.3932 30.1212 59.4738 29.9522C59.5545 29.7833 59.5965 29.5986 59.5966 29.4116C59.596 29.2215 59.5495 29.0343 59.461 28.8658C59.3725 28.6972 59.2445 28.5522 59.0878 28.443C58.7961 28.2646 58.4542 28.1848 58.113 28.2156H57.6891V30.6245Z" stroke="#81B3B4" stroke-width="0.24" stroke-miterlimit="10"/>
<path d="M65.7768 27.9473H66.1073L67.379 30.8952H67.0569L66.6245 29.9013H65.2935L64.8612 30.8952H64.5476L65.7768 27.9473ZM65.3614 29.6318H66.5142L65.9378 28.2842L65.3614 29.6318Z" fill="#81B3B4"/>
<path d="M65.7768 27.9473H66.1073L67.379 30.8952H67.0569L66.6245 29.9013H65.2935L64.8612 30.8952H64.5476L65.7768 27.9473ZM65.3614 29.6318H66.5142L65.9378 28.2842L65.3614 29.6318Z" stroke="#81B3B4" stroke-width="0.24" stroke-miterlimit="10"/>
<path d="M74.7035 30.1189C74.5729 30.368 74.3772 30.5776 74.137 30.7257C73.8969 30.8739 73.6212 30.9552 73.3386 30.9612C73.1356 30.9634 72.9343 30.9256 72.7462 30.85C72.5581 30.7744 72.3869 30.6625 72.2426 30.5207C72.0984 30.3789 71.9837 30.2101 71.9055 30.024C71.8273 29.838 71.7871 29.6383 71.7871 29.4367C71.7871 29.2351 71.8273 29.0354 71.9055 28.8494C71.9837 28.6633 72.0984 28.4945 72.2426 28.3527C72.3869 28.2109 72.5581 28.099 72.7462 28.0234C72.9343 27.9478 73.1356 27.91 73.3386 27.9122C73.6162 27.912 73.8888 27.9862 74.1275 28.127C74.3662 28.2679 74.5623 28.4701 74.695 28.7124H74.3643C74.2479 28.5475 74.093 28.4131 73.9129 28.3207C73.7328 28.2283 73.5328 28.1806 73.3301 28.1817C72.9987 28.1883 72.683 28.3232 72.4502 28.5576C72.2175 28.792 72.086 29.1074 72.0839 29.4367C72.0924 29.7654 72.2271 30.0785 72.4604 30.3118C72.6936 30.5452 73.0077 30.681 73.3386 30.6917C73.5434 30.6893 73.7445 30.6374 73.9247 30.5406C74.1049 30.4438 74.2587 30.3048 74.3728 30.1358L74.7035 30.1189Z" fill="#81B3B4"/>
<path d="M74.7035 30.1189C74.5729 30.368 74.3772 30.5776 74.137 30.7257C73.8969 30.8739 73.6212 30.9552 73.3386 30.9612C73.1356 30.9634 72.9343 30.9256 72.7462 30.85C72.5581 30.7744 72.3869 30.6625 72.2426 30.5207C72.0984 30.3789 71.9837 30.2101 71.9055 30.024C71.8273 29.838 71.7871 29.6383 71.7871 29.4367C71.7871 29.2351 71.8273 29.0354 71.9055 28.8494C71.9837 28.6633 72.0984 28.4945 72.2426 28.3527C72.3869 28.2109 72.5581 28.099 72.7462 28.0234C72.9343 27.9478 73.1356 27.91 73.3386 27.9122C73.6162 27.912 73.8888 27.9862 74.1275 28.127C74.3662 28.2679 74.5623 28.4701 74.695 28.7124H74.3643C74.2479 28.5475 74.093 28.4131 73.9129 28.3207C73.7328 28.2283 73.5328 28.1806 73.3301 28.1817C72.9987 28.1883 72.683 28.3232 72.4502 28.5576C72.2175 28.792 72.086 29.1074 72.0839 29.4367C72.0924 29.7654 72.2271 30.0785 72.4604 30.3118C72.6936 30.5452 73.0077 30.681 73.3386 30.6917C73.5434 30.6893 73.7445 30.6374 73.9247 30.5406C74.1049 30.4438 74.2587 30.3048 74.3728 30.1358L74.7035 30.1189Z" stroke="#81B3B4" stroke-width="0.24" stroke-miterlimit="10"/>
<path d="M80.7054 27.9375H80.4087V30.8854H80.7054V27.9375Z" fill="#81B3B4"/>
<path d="M80.7054 27.9375H80.4087V30.8854H80.7054V27.9375Z" stroke="#81B3B4" stroke-width="0.24" stroke-miterlimit="10"/>
<path d="M87.8521 28.2832C88.2629 28.281 88.6579 28.4398 88.9515 28.7252C89.2452 29.0106 89.4136 29.3996 89.4203 29.8077C89.4136 30.2158 89.2452 30.6048 88.9515 30.8903C88.6579 31.1757 88.2629 31.3345 87.8521 31.3322C87.4448 31.3324 87.0532 31.1752 86.7605 30.8939C86.4678 30.6125 86.2969 30.229 86.2837 29.8246C86.2848 29.6211 86.3262 29.4197 86.4056 29.2321C86.485 29.0445 86.6008 28.8743 86.7465 28.7312C86.8921 28.5881 87.0647 28.4748 87.2544 28.398C87.4441 28.3211 87.6473 28.2821 87.8521 28.2832ZM87.8521 31.0627C88.018 31.0638 88.1823 31.0325 88.336 30.9704C88.4897 30.9084 88.6296 30.8168 88.7477 30.7011C88.8657 30.5853 88.9597 30.4476 89.0242 30.2958C89.0887 30.1439 89.1226 29.981 89.1237 29.8161C89.1237 29.4811 88.9896 29.1597 88.7512 28.9228C88.5127 28.6859 88.1894 28.5527 87.8521 28.5527C87.5141 28.555 87.1906 28.69 86.9524 28.9282C86.7142 29.1665 86.5805 29.4887 86.5805 29.8246C86.5893 30.1546 86.7267 30.4682 86.964 30.6993C87.2013 30.9303 87.5199 31.0606 87.8521 31.0627Z" fill="#81B3B4"/>
<path d="M87.8521 28.2832C88.2629 28.281 88.6579 28.4398 88.9515 28.7252C89.2452 29.0106 89.4136 29.3996 89.4203 29.8077C89.4136 30.2158 89.2452 30.6048 88.9515 30.8903C88.6579 31.1757 88.2629 31.3345 87.8521 31.3322C87.4448 31.3324 87.0532 31.1752 86.7605 30.8939C86.4678 30.6125 86.2969 30.229 86.2837 29.8246C86.2848 29.6211 86.3262 29.4197 86.4056 29.2321C86.485 29.0445 86.6008 28.8743 86.7465 28.7312C86.8921 28.5881 87.0647 28.4748 87.2544 28.398C87.4441 28.3211 87.6473 28.2821 87.8521 28.2832ZM87.8521 31.0627C88.018 31.0638 88.1823 31.0325 88.336 30.9704C88.4897 30.9084 88.6296 30.8168 88.7477 30.7011C88.8657 30.5853 88.9597 30.4476 89.0242 30.2958C89.0887 30.1439 89.1226 29.981 89.1237 29.8161C89.1237 29.4811 88.9896 29.1597 88.7512 28.9228C88.5127 28.6859 88.1894 28.5527 87.8521 28.5527C87.5141 28.555 87.1906 28.69 86.9524 28.9282C86.7142 29.1665 86.5805 29.4887 86.5805 29.8246C86.5893 30.1546 86.7267 30.4682 86.964 30.6993C87.2013 30.9303 87.5199 31.0606 87.8521 31.0627Z" stroke="#81B3B4" stroke-width="0.24" stroke-miterlimit="10"/>
<path d="M88.2166 27.3574L88.3437 27.5933L87.5553 28.0228L87.4197 27.787L88.2166 27.3574Z" fill="#81B3B4"/>
<path d="M88.2166 27.3574L88.3437 27.5933L87.5553 28.0228L87.4197 27.787L88.2166 27.3574Z" stroke="#81B3B4" stroke-width="0.24" stroke-miterlimit="10"/>
<path d="M93.9812 27.9375H94.3796L96.0327 30.3885H96.0497V27.9375H96.3379V30.8854H96.0497L94.2864 28.2997H94.2779V30.8854H93.9812V27.9375Z" fill="#81B3B4"/>
<path d="M93.9812 27.9375H94.3796L96.0327 30.3885H96.0497V27.9375H96.3379V30.8854H96.0497L94.2864 28.2997H94.2779V30.8854H93.9812V27.9375Z" stroke="#81B3B4" stroke-width="0.24" stroke-miterlimit="10"/>
</g>
<defs>
<clipPath id="clip0_1782_39533">
<rect width="174" height="55" fill="white"/>
</clipPath>
</defs>
</svg>
