<svg xmlns="http://www.w3.org/2000/svg" xmlns:xlink="http://www.w3.org/1999/xlink" id="Capa_1" x="0px" y="0px" viewBox="0 0 329.8 339" style="enable-background:new 0 0 329.8 339;" xml:space="preserve"> <g> <path d="M58,179.9V49.5l1.5-1.3c11-9.1,27.7-20,44.9-20c14.1,0,20.8,7.1,24,13.1c2.5,4.6,3.8,11,3.8,18.7v119.9h31.9v-130 c0-12.3-2.6-22.8-7.9-31.2c-8.1-12.2-21.4-18.8-38.4-18.8C95.4-0.1,78.6,10.5,63.9,25l-7.4,7.2V2.9H1.8v25.6H26v151.4H58z"></path> <polygon points="295.4,2.9 295.4,76.3 219.7,76.3 219.7,2.9 186.9,2.9 186.9,180 219.7,180 219.7,106.7 295.4,106.7 295.4,180 328,180 328,2.9 "></polygon> <polygon points="60.7,266.6 60.7,223.8 55.9,223.8 55.9,242.8 31.2,242.8 31.2,223.8 26.4,223.8 26.4,266.6 31.2,266.6 31.2,247.4 55.9,247.4 55.9,266.6 "></polygon> <path d="M114.6,245.1c0-11.8-8.8-22-21.8-22s-21.9,10.3-21.9,22.1v0.1c0,11.8,8.8,22,21.8,22s21.9-10.3,21.9-22.1V245.1z M109.6,245.3c0,9.7-7,17.5-16.7,17.5c-9.8,0-16.9-8-16.9-17.7V245c0-9.7,6.9-17.5,16.7-17.5S109.6,235.5,109.6,245.3L109.6,245.3z "></path> <polygon points="140.9,266.6 140.9,228.3 155.3,228.3 155.3,223.8 121.7,223.8 121.7,228.3 136,228.3 136,266.6 "></polygon> <polygon points="195.6,262.2 169.2,262.2 169.2,247.2 192.5,247.2 192.5,242.8 169.2,242.8 169.2,228.2 195.3,228.2 195.3,223.8 164.4,223.8 164.4,266.6 195.6,266.6 "></polygon> <polygon points="205.3,223.8 205.3,266.6 234.2,266.6 234.2,262.1 210.1,262.1 210.1,223.8 "></polygon> <path d="M258,262.8c-6,0-10.2-2-14.7-6l-3,3.5c5.2,4.6,10.7,6.9,17.5,6.9c8.5,0,14.6-4.8,14.6-12.1V255c0-6.5-4.4-10-13.9-12.1 c-9.4-2-11.6-4.3-11.6-8.3v-0.1c0-3.8,3.5-6.9,9.1-6.9c4.4,0,8.3,1.4,12.3,4.6l2.8-3.7c-4.3-3.5-8.8-5.3-15-5.3 c-8.2,0-14.1,5-14.1,11.7v0.1c0,7,4.6,10.2,14.4,12.3c9,1.9,11.1,4.1,11.1,8.1v0.1C267.5,259.7,263.7,262.8,258,262.8z"></path> <path d="M316.3,260.4l6.7,7.1l3.7-2.8l-7.5-7.6c2.3-3.1,4.3-6.8,6.2-10.8l-4-1.8c-1.5,3.5-3.2,6.8-5.1,9.5l-9.8-10 c6.2-2.2,10.1-5.7,10.1-11.1v-0.1c0-5.4-4.4-9.7-10.4-9.7c-6.8,0-11.3,4.5-11.3,10.1v0.1c0,3.4,1.4,6,4.3,9.4 c-6.5,2.5-10.3,6.6-10.3,12.3v0.1c0,7.2,5.7,12,13.4,12C307.9,267.1,312.4,264.6,316.3,260.4z M299.4,233.2c0-3.5,2.7-6.2,6.5-6.2 c3.5,0,6.1,2.5,6.1,5.9v0.1c0,3.6-2.8,6.3-8.3,8.2c-3.3-3.5-4.3-5.4-4.3-7.9V233.2z M293.7,254.9L293.7,254.9 c0-3.7,2.5-7.2,8.2-9.3l11.4,11.8c-3.1,3.4-6.6,5.6-10.7,5.6C297.4,263.1,293.7,259.6,293.7,254.9z"></path> <path d="M61.5,306.9v-0.1c0-3.5-1.2-6.6-3.4-8.8c-2.8-2.8-7.1-4.4-12.6-4.4H26.4h-0.2v44.3h5v-17.3h12.7l12.9,17.3H63l-13.6-18.1 C56.4,318.6,61.5,314.3,61.5,306.9z M31.3,316.3v-18H45c7.2,0,11.4,3.3,11.4,8.8v0.1c0,5.7-4.7,9.1-11.4,9.1H31.3z"></path> <polygon points="77.3,318 101.5,318 101.5,313.4 77.3,313.4 77.3,298.2 104.4,298.2 104.4,293.6 72.3,293.6 72.3,338.1 104.7,338.1 104.7,333.5 77.3,333.5 "></polygon> <path d="M130.7,313.7c-9.8-2.1-12.1-4.4-12.1-8.6V305c0-4,3.7-7.2,9.5-7.2c4.6,0,8.7,1.4,12.8,4.8l2.9-3.9 c-4.5-3.7-9.1-5.5-15.6-5.5c-8.4,0-14.6,5.1-14.6,12.1v0.1c0,7.3,4.7,10.6,14.9,12.8c9.3,1.9,11.5,4.3,11.5,8.4v0.1 c0,4.3-3.9,7.5-9.9,7.5c-6.1,0-10.6-2.1-15.2-6.3l-3.1,3.7c5.4,4.7,11.1,7.1,18.2,7.4c8.9,0,15.2-5,15.2-12.6v-0.1 C145.2,319.5,140.6,315.9,130.7,313.7z"></path> <path d="M176.1,292.9c-13.5,0-22.7,10.8-22.7,23v0.1c0,12.2,9.1,22.8,22.6,22.8s22.7-10.8,22.7-23v-0.1 C198.7,303.5,189.6,292.9,176.1,292.9z M193.5,316c0,10.1-7.2,18.2-17.4,18.2c-10.1,0-17.5-8.2-17.5-18.3v-0.1 c0-10.1,7.3-18.2,17.4-18.2C186.1,297.6,193.5,305.8,193.5,316L193.5,316z"></path> <path d="M244.4,306.9v-0.1c0-3.5-1.2-6.6-3.4-8.8c-2.8-2.8-7.1-4.4-12.6-4.4h-19.1v44.3h5v-17.3H227l12.9,17.3h6l-13.6-18.1 C239.3,318.6,244.4,314.3,244.4,306.9z M214.2,316.3v-18h13.7c7.2,0,11.4,3.3,11.4,8.8v0.1c0,5.7-4.7,9.1-11.4,9.1H214.2z"></path> <polygon points="252,298.3 266.9,298.3 266.9,338.1 272,338.1 272,298.3 286.9,298.3 286.9,293.7 252,293.7 "></polygon> <path d="M312.2,313.7c-9.8-2.1-12.1-4.4-12.1-8.6V305c0-4,3.7-7.2,9.5-7.2c4.6,0,8.7,1.4,12.8,4.8l2.9-3.9 c-4.5-3.7-9.1-5.5-15.6-5.5c-8.4,0-14.6,5.1-14.6,12.1v0.1c0,7.3,4.7,10.6,14.9,12.8c9.3,1.9,11.5,4.3,11.5,8.4v0.1 c0,4.3-3.9,7.5-9.9,7.5c-6.1,0-10.6-2.1-15.2-6.3l-3.1,3.7c5.4,4.7,11.1,7.1,18.2,7.4c8.9,0,15.2-5,15.2-12.6v-0.1 C326.7,319.5,322.1,315.9,312.2,313.7z"></path> </g> </svg>