<svg xmlns="http://www.w3.org/2000/svg" xmlns:xlink="http://www.w3.org/1999/xlink" id="Capa_1" x="0px" y="0px" viewBox="0 0 396.9 131.9" style="enable-background:new 0 0 396.9 131.9;" xml:space="preserve"> <g> <path d="M86.5,93.7C66,77.1,55.3,14.5,21.9,3.2v0.1c1.9,4.6,5.9,15.9,11.7,28.9c-3.9,7.6-7.7,15.7-11.1,23.4 C14.8,56,8,56.2,2.5,54.1c3.7,4.3,11.4,6.3,17.5,7.3c-5.2,12.4-9.2,23.4-10.9,29.4c2.5-4,1.4-0.6,1.4-0.6 c3.5-4.8,9.7-16.4,15.6-28.1c1.5,0.1,2.5,0.1,2.5,0.1c4.4,0.7,12.9-0.8,19.3-2.2C58.5,77.5,71.7,92.5,86.5,93.7z M29.5,55.2 c2.8-5.7,5.5-11.1,7.6-15.5c2.5,5.4,5.3,10.7,8.2,16C39.8,55,34.4,55,29.5,55.2z"></path> <path d="M349.3,70.3c4.9,17.2,45.2,22.5,45.2,22.5c-6.9-2.5-7.2-5.2-7.2-5.2c-25.6-7.7-33.3-44-33.3-44h-0.1 C332.6,52.9,322,67.5,322,67.5c-6.6,7.8,1.8,10.5,1.8,10.5C340.4,80.8,349.3,70.3,349.3,70.3z M330.2,68.6c0,0,3.3-10.1,13.2-15.6 c4.5,13.3-8.9,20.7-8.9,20.7S328.3,76.5,330.2,68.6z"></path> <path d="M316.3,81.4c0.5-0.1,1.4,0.2,1.4-0.7c-3-9.9-5-20.3-11.4-28.2c-1.6-1.8-3.9-1.2-5.7-2.3c-7-2.2-11.3,3.8-15.7,9 c-4.9,5.5-13.7,18.2-16.3,10.2h0.1c0,0,0,0,0,0c0-0.5,0-1,0-1.6c0-13,8-23.6,18-23.6h0.2c-2-1.1,1.9-1.7-6.7-1.7 c-8.6,0-16.6,8.5-18.6,19.2c-0.1,0.6-0.3,1.2-0.3,1.8c-0.2,1.1-0.2,2.2-0.2,3.4v0.6c-0.5,19,11.8,16.4,18.7,10.4 c8.1-6,12-16.1,19.2-22.9c0.7-0.2,1.3-1.3,2-0.2c4.3,6.1,4.9,14.3,8.9,20.6C311.6,77.7,313.4,80.7,316.3,81.4z"></path> <path d="M90.9,40.7C81.9,41.4,80.1,56,78.8,54c-0.1-0.6-0.6-3.7-0.6-3.7s-0.7-2-1.4-0.5c-2.8,11.8-0.6,21-0.2,22.7 c0.4,1.3,3.9,5.3,4.2,5.3l-0.1,0.1c1.5,1.1,1.8-2.1,1.8-2.1s-3.1-13.3,3-24.4C89.7,42,94.7,47,96.1,49c7,11,10.7,40.6,20.8,41 C118.3,87.5,115.4,39.5,90.9,40.7z"></path> <path d="M219.9,85.5c-23.6-9.6-24-41.9-24-41.9l0,0.1C174.6,53,164,67.6,164,67.6c-6.6,7.8,1.8,10.5,1.8,10.5 c16.6,2.8,25.5-7.7,25.5-7.7c4.8,17.1,27.1,16.4,27.1,16.4C218.1,85.5,219.9,85.5,219.9,85.5z M176.3,73.7c0,0-6.2,2.8-4.3-5.1 c0,0,3.3-10.1,13.2-15.6C189.7,66.3,176.3,73.7,176.3,73.7z"></path> <path d="M237.2,42C237.2,42,237.2,42.1,237.2,42c0.1,0,0.1-0.1,0.1-0.1L237.2,42z"></path> <path d="M160.5,79.9c-8.5-3.7-3-58.8-20.6-76.4c-0.8,19.8,0.3,34.6,2.2,45.8c-14.1,8.5-20.7,18.2-20.7,18.2 c-6.6,7.8,1.8,10.5,1.8,10.5c15.4,2.6,24.2-6.2,25.4-7.5c5.7,11.5,12.1,12.3,12.1,12.3S159.4,80.8,160.5,79.9z M133.9,73.7 c0,0-6.2,2.8-4.3-5.1c0,0,3.3-10.1,13.2-15.6h0c0.1,0.3,0.3,0.7,0.3,1c0.2,0.6,0.4,1.1,0.4,1.7C145.5,67.3,133.9,73.7,133.9,73.7z"></path> <path d="M254.3,42.3c-2.9,1.8-13.6,26-13.6,26c-3.8-7.5,0-22.3-3.5-26.3c-8.6,14.4-6.3,38.3,7,40.8 C249.2,81.8,258.6,58.4,254.3,42.3z"></path> <path d="M305.5,40.4c2.9-5.8,6.9-10.4,11.2-14.9c3.4-3.9,10.9-8.4,9.6-16h0.1c-1.6-2-0.1-4.7-0.9-6.5c-2,2.9-4.2,4.2-5.6,5.4 c-10.5,8.9-14,20.6-15.1,32.3C304.8,40.7,305,41.3,305.5,40.4z"></path> <path d="M225.3,85.5c-4.8-12.6,6.7-56.8-5.9-82.3C205.7,64.1,215.6,81.4,225.3,85.5z"></path> <path d="M37.8,128.6h21.1v-14.1H37.8V128.6z M38.3,115h20.1v13.1H38.3V115z"></path> <polygon points="48.4,116.2 48.2,116.8 47.6,116.8 48.1,117.1 47.9,117.6 48.4,117.3 48.8,117.6 48.6,117.1 49.1,116.8 48.5,116.8 "></polygon> <polygon points="46.1,116.8 45.9,117.4 45.3,117.4 45.8,117.7 45.6,118.2 46.1,117.9 46.5,118.2 46.3,117.7 46.8,117.4 46.2,117.4 "></polygon> <polygon points="44.4,118.5 44.2,119.1 43.6,119.1 44.1,119.4 43.9,119.9 44.4,119.6 44.8,119.9 44.6,119.4 45.1,119.1 44.5,119.1 "></polygon> <polygon points="43.7,121.9 44.2,122.2 44,121.7 44.5,121.4 43.9,121.4 43.7,120.8 43.6,121.4 43,121.4 43.5,121.7 43.3,122.2 "></polygon> <polygon points="44.5,123.7 44.4,123.1 44.2,123.7 43.6,123.7 44.1,124 43.9,124.5 44.4,124.2 44.8,124.5 44.6,124 45.1,123.7 "></polygon> <polygon points="46.2,125.4 46.1,124.8 45.9,125.4 45.3,125.4 45.8,125.7 45.6,126.2 46.1,125.9 46.5,126.2 46.3,125.7 46.8,125.4 "></polygon> <polygon points="48.5,126 48.4,125.5 48.2,126 47.6,126 48.1,126.3 47.9,126.8 48.4,126.5 48.8,126.8 48.6,126.3 49.1,126 "></polygon> <polygon points="50.8,125.4 50.7,124.8 50.5,125.4 49.9,125.4 50.4,125.7 50.2,126.2 50.7,125.9 51.1,126.2 50.9,125.7 51.4,125.4 "></polygon> <polygon points="52.5,123.7 52.4,123.1 52.2,123.7 51.6,123.7 52.1,124 51.9,124.5 52.4,124.2 52.8,124.5 52.6,124 53.1,123.7 "></polygon> <polygon points="53.1,121.4 53,120.8 52.8,121.4 52.2,121.4 52.7,121.7 52.5,122.2 53,121.9 53.4,122.2 53.2,121.7 53.7,121.4 "></polygon> <polygon points="51.9,119.9 52.4,119.6 52.8,119.9 52.6,119.4 53.1,119.1 52.5,119.1 52.4,118.5 52.2,119.1 51.6,119.1 52.1,119.4 "></polygon> <polygon points="50.7,116.8 50.5,117.4 49.9,117.4 50.4,117.7 50.2,118.2 50.7,117.9 51.1,118.2 51,117.7 51.4,117.4 50.8,117.4 "></polygon> <path d="M323.6,119.7c-0.3,0-0.5-0.2-0.7-0.5l-0.6,0.5c0.3,0.5,0.4,0.7,1.4,0.7c1,0,1.4-0.7,1.4-1.5v-3h-0.9v3 C324.2,119.5,324,119.7,323.6,119.7z"></path> <path d="M322.3,119.7L322.3,119.7C322.3,119.7,322.3,119.7,322.3,119.7L322.3,119.7z"></path> <path d="M327.2,120.6c0.5,0,0.8-0.3,1.1-0.6v0.5h0.7v-3.4h-0.9v2.3c-0.2,0.3-0.3,0.4-0.7,0.4c-0.4,0-0.5-0.2-0.5-0.7v-2H326v2.1 h0.2C326.2,120.1,326.5,120.6,327.2,120.6z"></path> <path d="M331.2,117.8c0.4,0,0.5,0.2,0.5,0.7v2h0.9v-2.1c0-0.9-0.3-1.4-1-1.4c-0.5,0-0.8,0.2-1.1,0.5v-0.4h-0.7h-0.2v3.4h0.9v-2.3 C330.7,117.9,330.8,117.8,331.2,117.8z"></path> <path d="M335.3,117.7V117h-0.8v-0.9h-0.7l-0.1,1h-0.5v0.7h0.5v1.5l-0.1-0.1c0,0.8,0.3,1.3,1.1,1.3c0.3,0,0.6-0.1,0.6-0.1v-0.6 c-0.1,0,0,0-0.3,0s-0.5-0.2-0.5-0.6v-1.5H335.3z"></path> <path d="M338.6,120.5v-2c0-1-0.4-1.5-1.3-1.5c-0.5,0-1,0.2-1.4,0.4l0.3,0.6c0.3-0.2,0.5-0.3,0.9-0.3c0.4,0,0.6,0.3,0.6,0.6 c-1.3,0.1-1.9,0.5-1.9,1.2h0.1c0,0.6,0.4,1,1,1c0.4,0,0.7-0.1,1-0.4v0.4H338.6z M337.7,119.5c-0.3,0.2-0.5,0.3-0.7,0.3 c-0.2,0-0.4-0.1-0.4-0.4s0.3-0.5,1.1-0.6V119.5z"></path> <path d="M324.6,123.1v0.5c-0.3-0.3-0.2-0.4-0.9-0.4c-0.7,0-1.4,0.7-1.4,1.8h0.2c0,1.1,0.6,1.8,1.4,1.8c0.3,0,0.7-0.2,0.9-0.4v0.3 h0.7v-4.8h-0.9V123.1z M324.5,125.6c-0.2,0.3-0.2,0.3-0.6,0.3s-0.7-0.4-0.7-1c0-0.6,0.3-1,0.7-1c0.2,0,0.4,0.1,0.6,0.3V125.6z"></path> <path d="M327.7,123.2c-0.8,0-1.6,0.7-1.6,1.8c0,1.1,0.8,1.7,1.7,1.7c0.4,0,0.9-0.2,1.2-0.4l-0.3-0.5c-0.3,0.2-0.3,0.2-0.8,0.2 s-0.9-0.2-0.9-0.8h2.1c0,0,0,0,0,0c0-0.1,0-0.2,0-0.4C329.1,123.9,328.5,123.2,327.7,123.2z M327,124.6c0-0.4,0.3-0.7,0.7-0.7 c0.4,0,0.6,0.2,0.6,0.7H327z"></path> <path d="M326.1,125C326.1,125,326.1,125,326.1,125C326.1,125,326.1,124.9,326.1,125L326.1,125z"></path> <path d="M332,122.2l-1.4,4.5h0.9l0.3-1.1h1.4l0.3,1.1h0.9l-1.4-4.5H332z M333.1,124.8h-0.9v-0.5c0.2-0.5,0.3-1,0.4-1.5 c0.1,0.5,0.2,1,0.5,1.5V124.8z"></path> <path d="M336.7,123.2c-0.5,0-0.8,0.2-1.1,0.5v-0.4h-0.7h-0.2v3.4h0.9v-2.3c0.2-0.3,0.3-0.4,0.7-0.4c0.4,0,0.5,0.2,0.5,0.7v2h0.9 v-2.1C337.7,123.7,337.4,123.2,336.7,123.2z"></path> <path d="M340.8,123.1v0.5c-0.3-0.3-0.2-0.4-0.9-0.4c-0.7,0-1.4,0.7-1.4,1.8h0.2c0,1.1,0.6,1.8,1.4,1.8c0.3,0,0.7-0.2,0.9-0.4v0.3 h0.7v-4.8h-0.9V123.1z M340.7,125.6c-0.2,0.3-0.2,0.3-0.6,0.3s-0.7-0.4-0.7-1c0-0.6,0.3-1,0.7-1c0.2,0,0.4,0.1,0.6,0.3V125.6z"></path> <path d="M343.8,123.3c-0.5,0-1,0.2-1.4,0.4l0.3,0.6c0.3-0.2,0.5-0.3,0.9-0.3c0.4,0,0.6,0.3,0.6,0.6c-1.3,0.1-1.9,0.5-1.9,1.2h0.1 c0,0.6,0.4,1,1,1c0.4,0,0.7-0.1,1-0.4v0.4h0.7v-2C345.1,123.8,344.7,123.3,343.8,123.3z M344.3,125.7c-0.3,0.2-0.5,0.3-0.7,0.3 c-0.2,0-0.4-0.1-0.4-0.4s0.3-0.5,1.1-0.6V125.7z"></path> <path d="M347.1,126C347.1,126,347.1,126,347.1,126c-0.3,0-0.3-0.1-0.3-0.3v-3.9H346v3.9h0.1c0,0.6,0.2,1,0.8,1c0.2,0,0.3,0,0.3,0 L347.1,126C347.2,126,347.2,126,347.1,126C347.2,126,347.2,126,347.1,126z"></path> <path d="M349.9,125.6c-0.2,0.3-0.3,0.4-0.7,0.4c-0.4,0-0.5-0.2-0.5-0.7v-2h-0.9v2.1h0.2c0,0.9,0.3,1.4,1,1.4c0.5,0,0.8-0.3,1.1-0.6 v0.5h0.7v-3.4h-0.9V125.6z"></path> <path d="M353.1,126c-0.4,0-0.8-0.4-0.8-1c0-0.6,0.4-1,0.9-1c0.2,0,0.3,0.1,0.5,0.2l0.4-0.6c-0.3-0.2-0.1-0.4-1-0.4 s-1.7,0.7-1.7,1.8l0.1-0.1c0,1.1,0.7,1.8,1.6,1.8c0.4,0,0.8-0.1,1.1-0.4l-0.4-0.6C353.6,125.9,353.5,126,353.1,126z"></path> <rect x="354.8" y="123.3" width="0.9" height="3.4"></rect> <polygon points="354.8,122.4 355.2,122.8 356.4,121.7 355.8,121.1 354.8,122.3 "></polygon> <path d="M357.9,123.3c-0.5,0-1,0.2-1.4,0.4l0.3,0.6c0.3-0.2,0.5-0.3,0.9-0.3c0.4,0,0.6,0.3,0.6,0.6c-1.3,0.1-1.9,0.5-1.9,1.2h0.1 c0,0.6,0.4,1,1,1c0.4,0,0.7-0.1,1-0.4v0.4h0.7v-2C359.2,123.8,358.8,123.3,357.9,123.3z M358.3,125.7c-0.3,0.2-0.5,0.3-0.7,0.3 c-0.2,0-0.4-0.1-0.4-0.4s0.3-0.5,1.1-0.6V125.7z"></path> <path d="M311.6,114.4l-6.7,14.3h2.8l5.2-11l3,7.6c-0.9-0.4-1.9-0.6-3-0.6c-3,0-0.9,0-1.4,0.1v2.2c0.4,0,0.9-0.1,1.4-0.1 c1.7,0,3.2,0.6,4.3,1.7h2.9l-5.7-14.3H311.6z"></path> <rect x="175.8" y="114.4" width="0.2" height="14.4"></rect> <path d="M213.4,114.1h-11.3c-0.3,0-0.4,0.3-0.4,0.5l0.4,1.4c0,0.3-0.1,0.5-0.4,0.5h-6.6c-0.2,0-0.2,0.1-0.2,0.2l0.5,2 c0,0.1,0.2,0.1,0.2,0.1h7.3c0.3,0,0.4-0.3,0.4-0.5l-0.4-1.4c0-0.3,0.1-0.5,0.4-0.5h10.6c0.2,0,0.2-0.1,0.2-0.2l-0.5-2 C213.6,114.1,213.4,114.1,213.4,114.1z"></path> <path d="M213.4,119h-8.9c-0.3,0-0.4,0.3-0.4,0.5l0.4,1.4c0,0.3-0.1,0.5-0.4,0.5h-9c-0.2,0-0.2,0.1-0.2,0.2l0.5,2 c0,0.1,0.2,0.1,0.2,0.1h9.7c0.3,0,0.4-0.3,0.4-0.5l-0.4-1.4c0-0.3,0.1-0.5,0.4-0.5h8.2c0.2,0,0.2-0.1,0.2-0.2l-0.5-2 C213.6,119,213.4,119,213.4,119z"></path> <path d="M213.3,123.8h-6.4c-0.3,0-0.4,0.3-0.4,0.5l0.4,1.4c0,0.3-0.1,0.5-0.4,0.5h-11.4c-0.2,0-0.2,0.1-0.2,0.2l0.5,2 c0,0.1,0.2,0.1,0.2,0.1h12c0.3,0,0.5-0.3,0.5-0.6l-0.3-1.3c0-0.3,0.1-0.5,0.4-0.5h5.6c0.2,0,0.2-0.1,0.2-0.2l-0.5-2 C213.5,123.8,213.3,123.8,213.3,123.8z"></path> <polygon points="191.4,116.4 190.9,114.9 190.4,116.4 188.8,116.4 190.1,117.3 189.6,118.9 190.9,117.9 192.2,118.9 191.7,117.3 192.9,116.4 "></polygon> <polygon points="193.3,112.4 192.9,111.2 192.5,112.4 191.3,112.4 192.3,113.2 191.9,114.4 192.9,113.6 194,114.4 193.6,113.2 194.6,112.4 "></polygon> <polygon points="197.4,112.4 197.1,111.5 196.8,112.4 195.8,112.4 196.6,113 196.3,114 197.1,113.4 197.9,114 197.6,113 198.4,112.4 "></polygon> <polygon points="218.9,123.6 219.7,123.6 219.7,120.9 222,120.9 222,120.3 219.7,120.3 219.7,118.3 222.4,118.3 222.4,117.7 218.9,117.7 "></polygon> <path d="M226.3,119.7c-0.2-0.2-0.4-0.3-0.7-0.5c-0.3-0.2-0.5-0.2-0.8-0.2s-0.5,0.1-0.8,0.2c-0.3,0.1-0.5,0.3-0.7,0.5 c-0.2,0.2-0.4,0.4-0.5,0.7c-0.2,0.3-0.2,0.6-0.2,1c0,0.4,0.1,0.7,0.2,1c0.2,0.3,0.3,0.5,0.5,0.7s0.5,0.4,0.7,0.5 c0.3,0.2,0.5,0.2,0.8,0.2s0.6-0.1,0.8-0.2c0.3-0.1,0.5-0.3,0.7-0.5s0.4-0.4,0.5-0.7c0.2-0.3,0.2-0.6,0.2-1c0-0.4-0.1-0.7-0.2-1 C226.6,120.2,226.5,119.9,226.3,119.7z M226,121.5c0,0.3,0,0.5,0,0.7c-0.1,0.2-0.2,0.3-0.3,0.5c-0.1,0.2-0.3,0.3-0.4,0.4 c-0.1,0.1-0.3,0.1-0.5,0.1s-0.3-0.1-0.5-0.1c-0.1-0.1-0.2-0.3-0.4-0.4c-0.2-0.1-0.3-0.3-0.3-0.5c0-0.2,0-0.4,0-0.7 c0-0.3,0-0.5,0-0.7c0.1-0.2,0.2-0.3,0.3-0.5c0.1-0.2,0.2-0.4,0.4-0.4c0.1-0.1,0.3-0.1,0.5-0.1s0.3,0.1,0.5,0.1 c0.1,0.1,0.3,0.2,0.4,0.4c0.2,0.1,0.3,0.3,0.3,0.5S226,121.2,226,121.5z"></path> <path d="M230,119.1c-0.3,0-0.5,0.1-0.8,0.2c-0.3,0.1-0.5,0.3-0.7,0.5v-0.6h-0.6v4.4h0.6v-3.2c0.2-0.2,0.4-0.4,0.6-0.5 c0.2-0.2,0.4-0.2,0.6-0.2s0.4,0.1,0.6,0.3s0.2,0.5,0.2,0.9v2.7h0.8v-2.8c0-0.6-0.1-1-0.3-1.3S230.5,119.1,230,119.1z"></path> <polygon points="227.9,123.7 227.9,123.6 227.7,123.6 "></polygon> <path d="M235.7,118.8v0.8c-0.2-0.2-0.4-0.4-0.6-0.4c-0.2-0.1-0.5-0.1-0.7-0.1s-0.5,0.1-0.7,0.2c-0.2,0.1-0.4,0.3-0.6,0.5 c-0.1,0.2-0.3,0.4-0.4,0.7c-0.2,0.3-0.2,0.3-0.2,1c0,0.7,0.2,1.3,0.5,1.7c0.3,0.4,0.7,0.6,1.3,0.6h0.3c0.2,0,0.5-0.1,0.7-0.2 s0.4-0.2,0.6-0.4v0.5h0.6v-6.6h-0.8V118.8z M235.7,122.4c-0.2,0.2-0.4,0.4-0.6,0.5c-0.2,0.2-0.3,0.2-0.5,0.2 c-0.4,0-0.7-0.2-0.9-0.5c-0.2-0.3-0.3-0.8-0.3-1.3c0-0.3,0.1-0.5,0.1-0.7c0.1-0.2,0.2-0.3,0.3-0.5c0.1-0.2,0.2-0.4,0.4-0.4 c0.2-0.1,0.4-0.1,0.5-0.1c0.1,0,0.3,0.1,0.5,0.1c0.1,0.1,0.3,0.2,0.5,0.4V122.4z"></path> <path d="M241,119.7c-0.2-0.2-0.4-0.3-0.7-0.5c-0.3-0.2-0.5-0.2-0.8-0.2s-0.5,0.1-0.8,0.2c-0.3,0.1-0.5,0.3-0.7,0.5 c-0.2,0.2-0.4,0.4-0.5,0.7c-0.2,0.3-0.2,0.6-0.2,1c0,0.4,0.1,0.7,0.2,1c0.2,0.3,0.3,0.5,0.5,0.7s0.5,0.4,0.7,0.5 c0.3,0.2,0.5,0.2,0.8,0.2s0.6-0.1,0.8-0.2c0.3-0.1,0.5-0.3,0.7-0.5s0.4-0.4,0.5-0.7c0.2-0.3,0.2-0.6,0.2-1c0-0.4-0.1-0.7-0.2-1 C241.3,120.2,241.2,119.9,241,119.7z M240.7,121.5c0,0.3,0,0.5,0,0.7c-0.1,0.2-0.2,0.3-0.3,0.5c-0.1,0.2-0.3,0.3-0.4,0.4 c-0.1,0.1-0.3,0.1-0.5,0.1s-0.3-0.1-0.5-0.1c-0.1-0.1-0.2-0.3-0.4-0.4c-0.2-0.1-0.3-0.3-0.3-0.5c0-0.2,0-0.4,0-0.7 c0-0.3,0-0.5,0-0.7c0.1-0.2,0.2-0.3,0.3-0.5c0.1-0.2,0.2-0.4,0.4-0.4c0.1-0.1,0.3-0.1,0.5-0.1s0.3,0.1,0.5,0.1 c0.1,0.1,0.3,0.2,0.4,0.4c0.2,0.1,0.3,0.3,0.3,0.5S240.7,121.2,240.7,121.5z"></path> <path d="M243.4,119.9c0.1-0.2,0.3-0.2,0.6-0.2c0.2,0,0.3,0.1,0.5,0.1c0.2,0.1,0.3,0.2,0.5,0.3l0.4-0.5c-0.2-0.2-0.4-0.4-0.6-0.4 c-0.3-0.1-0.6-0.1-0.8-0.1s-0.4,0-0.6,0c-0.2,0.1-0.4,0.2-0.5,0.3c-0.1,0.1-0.3,0.2-0.3,0.4c-0.1,0.2-0.1,0.3-0.1,0.5 s0.1,0.4,0.1,0.5c0.1,0.2,0.2,0.3,0.3,0.4c0.1,0.1,0.2,0.3,0.4,0.3c0.2,0.1,0.3,0.2,0.5,0.2c0.2,0.1,0.3,0.1,0.4,0.1 c0.1,0.1,0.3,0.2,0.3,0.2c0.1,0,0.2,0.2,0.2,0.2c0,0.1,0,0.1,0,0.3c0,0.2,0,0.3-0.2,0.5c-0.2,0.2-0.4,0.2-0.7,0.2 c-0.3,0-0.5-0.1-0.7-0.1c-0.2-0.1-0.4-0.2-0.6-0.4l-0.4,0.5c0.3,0.1,0.5,0.3,0.8,0.4c0.3,0.2,0.6,0.2,0.9,0.2l0,0.1 c0.3,0,0.5,0,0.7-0.1c0.2-0.1,0.4-0.2,0.5-0.3c0.1-0.1,0.3-0.2,0.3-0.4c0.1-0.1,0.1-0.3,0.1-0.5s-0.1-0.4-0.1-0.5 c-0.1-0.2-0.2-0.3-0.3-0.4c-0.1-0.1-0.2-0.3-0.4-0.3c-0.2-0.1-0.3-0.2-0.5-0.2c-0.2-0.1-0.3-0.1-0.4-0.1c-0.1-0.1-0.3-0.2-0.3-0.2 c-0.1-0.1-0.2-0.2-0.2-0.2c0-0.1,0-0.1,0-0.3S243.3,120.1,243.4,119.9z"></path> <polygon points="248.9,120.9 251.2,120.9 251.2,120.2 248.9,120.2 248.9,118.3 251.6,118.3 251.6,117.7 248.1,117.7 248.1,123.7 248.1,123.8 251.7,123.8 251.7,123.1 248.9,123.1 "></polygon> <path d="M255.5,122.4c-0.2,0.3-0.4,0.5-0.6,0.6c-0.2,0.2-0.3,0.2-0.6,0.2c-0.3,0-0.5-0.1-0.6-0.3c-0.2-0.2-0.2-0.5-0.2-0.9v-2.7 h-0.8v2.8c0,0.6,0.1,1,0.3,1.3s0.5,0.4,1,0.4h0.2c0.3,0,0.5,0,0.8-0.2c0.3-0.2,0.5-0.4,0.7-0.6v0.7h0.6v-4.5h-0.8V122.4z"></path> <path d="M258.8,119.3c-0.3,0.2-0.4,0.4-0.6,0.7v-0.8h-0.6v4.5h0.7v-2.9c0.1-0.4,0.3-0.6,0.5-0.8c0.2-0.2,0.4-0.2,0.6-0.2 c0.1,0,0.2,0,0.2,0c0.1,0,0.2,0,0.4,0v-0.7c-0.2,0-0.3,0-0.5,0S259,119.1,258.8,119.3z"></path> <path d="M263.8,119.7c-0.2-0.2-0.4-0.3-0.7-0.5c-0.3-0.2-0.5-0.2-0.8-0.2s-0.5,0.1-0.8,0.2c-0.3,0.1-0.5,0.3-0.7,0.5 c-0.2,0.2-0.4,0.4-0.5,0.7c-0.2,0.3-0.2,0.6-0.2,1c0,0.4,0.1,0.7,0.2,1c0.2,0.3,0.3,0.5,0.5,0.7s0.5,0.4,0.7,0.5 c0.3,0.2,0.5,0.2,0.8,0.2s0.6-0.1,0.8-0.2c0.3-0.1,0.5-0.3,0.7-0.5s0.4-0.4,0.5-0.7c0.2-0.3,0.2-0.6,0.2-1c0-0.4-0.1-0.7-0.2-1 C264.1,120.2,264,119.9,263.8,119.7z M263.5,121.5c0,0.3,0,0.5,0,0.7c-0.1,0.2-0.2,0.3-0.3,0.5c-0.1,0.2-0.3,0.3-0.4,0.4 c-0.1,0.1-0.3,0.1-0.5,0.1s-0.3-0.1-0.5-0.1c-0.1-0.1-0.2-0.3-0.4-0.4c-0.2-0.1-0.3-0.3-0.3-0.5c0-0.2,0-0.4,0-0.7 c0-0.3,0-0.5,0-0.7c0.1-0.2,0.2-0.3,0.3-0.5c0.1-0.2,0.2-0.4,0.4-0.4c0.1-0.1,0.3-0.1,0.5-0.1s0.3,0.1,0.5,0.1 c0.1,0.1,0.3,0.2,0.4,0.4c0.2,0.1,0.3,0.3,0.3,0.5S263.5,121.2,263.5,121.5z"></path> <path d="M268.9,119.8c-0.2-0.2-0.4-0.4-0.6-0.5c-0.3-0.2-0.5-0.2-0.8-0.2s-0.5,0.1-0.8,0.2c-0.3,0.1-0.5,0.2-0.7,0.4v-0.5h-0.6v6.4 l0,0.1h0.8v-1.5v-0.8c0.2,0.2,0.4,0.4,0.6,0.4c0.2,0.1,0.4,0.1,0.6,0.1s0.5-0.1,0.7-0.2c0.2-0.1,0.4-0.3,0.6-0.5 c0.2-0.2,0.3-0.5,0.4-0.8c0.2-0.3,0.2-0.7,0.2-1s-0.1-0.6-0.1-0.9C269.2,120.2,269,120,268.9,119.8z M268.4,121.3 c0,0.2,0,0.5,0,0.7c-0.1,0.3-0.2,0.4-0.3,0.6c-0.1,0.2-0.2,0.4-0.4,0.4c-0.1,0.1-0.3,0.1-0.5,0.1v0.1c-0.1,0-0.3-0.1-0.5-0.1 c-0.2-0.1-0.4-0.2-0.6-0.4v-2.3c0.2-0.2,0.4-0.3,0.6-0.5s0.4-0.2,0.6-0.2s0.3,0.1,0.5,0.1s0.3,0.2,0.4,0.3c0.1,0.1,0.2,0.3,0.2,0.5 S268.4,121.1,268.4,121.3z"></path> <path d="M273.4,119.5c-0.2-0.2-0.4-0.4-0.6-0.4c-0.3-0.1-0.6-0.1-0.8-0.1s-0.5,0.1-0.7,0.2c-0.2,0.1-0.4,0.3-0.6,0.5 c-0.2,0.2-0.4,0.4-0.5,0.7c-0.2,0.3-0.2,0.6-0.2,1c0,0.4,0.1,0.7,0.2,1c0.2,0.3,0.3,0.5,0.5,0.7s0.4,0.4,0.7,0.5 c0.2,0.2,0.5,0.2,0.8,0.2l-0.1-0.2c0.3,0,0.5,0,0.8-0.1c0.3-0.1,0.5-0.2,0.7-0.3l-0.3-0.5c-0.1,0.2-0.3,0.3-0.5,0.3s-0.2,0-0.6,0 c-0.4,0-0.8-0.2-1-0.4c-0.2-0.2-0.4-0.6-0.4-1.1h3c0-0.1,0-0.1,0-0.1c0,0,0,0,0,0c0,0,0-0.1,0-0.2c0-0.4-0.1-0.6-0.1-0.9 C273.7,119.9,273.6,119.7,273.4,119.5z M270.8,121.1L270.8,121.1c0-0.3,0.1-0.5,0.1-0.7c0.1-0.1,0.2-0.3,0.3-0.4 c0.1-0.1,0.2-0.3,0.4-0.3s0.2,0,0.5,0s0.6,0.2,0.8,0.4c0.3,0.2,0.3,0.5,0.3,1H270.8z"></path> <path d="M278,119.7c-0.2-0.2-0.4-0.3-0.7-0.5c-0.3-0.2-0.5-0.2-0.8-0.2s-0.5,0.1-0.8,0.2c-0.3,0.1-0.5,0.3-0.7,0.5 c-0.2,0.2-0.4,0.4-0.5,0.7c-0.2,0.3-0.2,0.6-0.2,1c0,0.4,0.1,0.7,0.2,1c0.2,0.3,0.3,0.5,0.5,0.7s0.5,0.4,0.7,0.5 c0.3,0.2,0.5,0.2,0.8,0.2s0.6-0.1,0.8-0.2c0.3-0.1,0.5-0.3,0.7-0.5s0.4-0.4,0.5-0.7c0.2-0.3,0.2-0.6,0.2-1c0-0.4-0.1-0.7-0.2-1 C278.3,120.2,278.2,119.9,278,119.7z M277.7,121.5c0,0.3,0,0.5,0,0.7c-0.1,0.2-0.2,0.3-0.3,0.5c-0.1,0.2-0.3,0.3-0.4,0.4 c-0.1,0.1-0.3,0.1-0.5,0.1s-0.3-0.1-0.5-0.1c-0.1-0.1-0.2-0.3-0.4-0.4c-0.2-0.1-0.3-0.3-0.3-0.5c0-0.2,0-0.4,0-0.7 c0-0.3,0-0.5,0-0.7c0.1-0.2,0.2-0.3,0.3-0.5c0.1-0.2,0.2-0.4,0.4-0.4c0.1-0.1,0.3-0.1,0.5-0.1s0.3,0.1,0.5,0.1 c0.1,0.1,0.3,0.2,0.4,0.4c0.2,0.1,0.3,0.3,0.3,0.5S277.7,121.2,277.7,121.5z"></path> <path d="M280.4,119.9c0.1-0.2,0.3-0.2,0.6-0.2c0.2,0,0.3,0.1,0.5,0.1c0.2,0.1,0.3,0.2,0.5,0.3l0.4-0.5c-0.2-0.2-0.4-0.4-0.6-0.4 c-0.3-0.1-0.6-0.1-0.8-0.1s-0.4,0-0.6,0c-0.2,0.1-0.4,0.2-0.5,0.3c-0.1,0.1-0.3,0.2-0.3,0.4c-0.1,0.2-0.1,0.3-0.1,0.5 s0.1,0.4,0.1,0.5c0.1,0.2,0.2,0.3,0.3,0.4c0.1,0.1,0.2,0.3,0.4,0.3c0.2,0.1,0.3,0.2,0.5,0.2c0.2,0.1,0.3,0.1,0.4,0.1 c0.1,0.1,0.3,0.2,0.3,0.2c0.1,0,0.2,0.2,0.2,0.2c0,0.1,0,0.1,0,0.3c0,0.2,0,0.3-0.2,0.5c-0.2,0.2-0.4,0.2-0.7,0.2 c-0.3,0-0.5-0.1-0.7-0.1c-0.2-0.1-0.4-0.2-0.6-0.4l-0.4,0.5c0.3,0.1,0.5,0.3,0.8,0.4c0.3,0.2,0.6,0.2,0.9,0.2l0,0.1 c0.3,0,0.5,0,0.7-0.1c0.2-0.1,0.4-0.2,0.5-0.3c0.1-0.1,0.3-0.2,0.3-0.4c0.1-0.1,0.1-0.3,0.1-0.5s-0.1-0.4-0.1-0.5 c-0.1-0.2-0.2-0.3-0.3-0.4c-0.1-0.1-0.2-0.3-0.4-0.3c-0.2-0.1-0.3-0.2-0.5-0.2c-0.2-0.1-0.3-0.1-0.4-0.1c-0.1-0.1-0.3-0.2-0.3-0.2 c-0.1-0.1-0.2-0.2-0.2-0.2c0-0.1,0-0.1,0-0.3S280.3,120.1,280.4,119.9z"></path> <path d="M63.7,120.1c0.3,0,0.7-0.1,0.9-0.3c0.2-0.2,0.4-0.5,0.5-0.9l-0.7-0.2l0.1,0.1c-0.1,0.3-0.2,0.5-0.3,0.6 c-0.1,0.2-0.3,0.2-0.5,0.2s-0.4-0.1-0.6-0.3c-0.2-0.2-0.2-0.6-0.2-1c0-0.4,0-0.7,0.2-0.9c0.1-0.3,0.4-0.3,0.6-0.3s0.4,0.1,0.5,0.2 c0.2,0.1,0.3,0.2,0.3,0.4l0.7-0.2c-0.1-0.3-0.2-0.5-0.4-0.7c-0.3-0.3-0.6-0.4-1.1-0.4s-0.9,0.2-1.2,0.5s-0.5,0.9-0.5,1.4 s0.2,1,0.5,1.3S63.4,120.1,63.7,120.1z"></path> <path d="M68.3,118.7c0-0.4-0.2-0.7-0.4-1c-0.3-0.3-0.6-0.4-1-0.4c-0.3,0-0.5,0.1-0.7,0.2c-0.2,0.1-0.4,0.3-0.5,0.5 c-0.2,0.3-0.2,0.4-0.2,0.6c0,0.3,0.1,0.6,0.2,0.8c0.1,0.2,0.3,0.4,0.5,0.5c0.2,0.2,0.3,0.2,0.7,0.2c0.4,0,0.7-0.1,1-0.4 C68.2,119.4,68.3,119.1,68.3,118.7z M67.2,119.3c-0.1,0.2-0.3,0.2-0.4,0.2c-0.1,0-0.3-0.1-0.4-0.2c-0.2-0.1-0.2-0.3-0.2-0.6 c0-0.3,0.1-0.5,0.2-0.6c0.1-0.2,0.3-0.2,0.4-0.2c0.1,0,0.3,0.1,0.4,0.2c0.2,0.2,0.2,0.3,0.2,0.6C67.4,119,67.3,119.2,67.2,119.3z"></path> <path d="M65.5,118.7C65.5,118.7,65.5,118.7,65.5,118.7C65.5,118.6,65.5,118.6,65.5,118.7L65.5,118.7z"></path> <path d="M69.5,116.8c0,0,0.1,0,0.2,0s0.2,0,0.4,0v-0.5c-0.2,0-0.4,0-0.6,0s-0.4,0.1-0.5,0.1c-0.2,0.1-0.3,0.2-0.3,0.3 c0,0.1,0,0.3,0,0.5v0.2h-0.3v0.4h0.4v2h0.7v-2H70v-0.5h-0.5v-0.2C69.5,116.9,69.5,116.8,69.5,116.8z"></path> <polygon points="68.3,117.4 68.4,117.4 68.4,117.3 "></polygon> <rect x="70.2" y="116.5" width="0.7" height="0.6"></rect> <rect x="70.2" y="117.4" width="0.7" height="2.6"></rect> <path d="M73.5,117.5c-0.1,0-0.1,0-0.4,0c-0.3,0-0.6,0.1-0.8,0.4v-0.4h-0.6v2.6h0.7v-1.2c0-0.3,0-0.5,0-0.6c0-0.1,0.2-0.3,0.2-0.3 c0.1,0,0.2,0,0.3,0c0.1,0,0.2,0,0.2,0c0.1,0.1,0.1,0.2,0.1,0.2s0,0.2,0,0.5v1.3h0.7v-1.5c0-0.2,0-0.4,0-0.5c0-0.1,0-0.2-0.1-0.3 C73.7,117.6,73.6,117.5,73.5,117.5z"></path> <path d="M76.7,119.9c-0.1-0.1-0.1-0.2-0.1-0.3c0-0.1,0-0.3,0-0.5v-0.8c0-0.3,0-0.5,0-0.6c0-0.1-0.2-0.3-0.3-0.3 c-0.2-0.1-0.3-0.1-0.7-0.1c-0.4,0-0.6,0-0.8,0.2c-0.2,0.2-0.4,0.3-0.4,0.7H75l0.1,0c0.1-0.2,0.2-0.3,0.2-0.3c0.1,0,0.1,0,0.3,0 s0.4,0,0.4,0s0,0.1,0,0.3c-0.2,0.1-0.4,0.2-0.7,0.2c-0.2,0.1-0.4,0.1-0.5,0.2c-0.1,0.1-0.2,0.2-0.3,0.3c-0.1,0.1-0.1,0.2-0.1,0.4 c0,0.2,0,0.4,0.2,0.5c0.1,0.2,0.3,0.2,0.6,0.2c0.1,0,0.3,0,0.4,0c0.2-0.1,0.3-0.2,0.4-0.3c0,0.1,0,0.2,0,0.2H76.7z M75.9,119.4 c-0.2,0.1-0.3,0.1-0.4,0.1c-0.1,0-0.3-0.1-0.3-0.1c-0.1,0-0.1-0.1-0.1-0.2c0-0.1,0.1-0.2,0.1-0.2c0.1-0.1,0.2-0.1,0.4-0.1 c0.2-0.1,0.4-0.1,0.4-0.1l0.1,0.1c0,0.1,0,0.3,0,0.3C76,119.3,75.9,119.4,75.9,119.4z"></path> <path d="M78.8,118c0.1,0.1,0.1,0.2,0.1,0.2s0,0.2,0,0.5v1.3h0.7v-1.5c0-0.2,0-0.4,0-0.5c0-0.1,0-0.2-0.1-0.3 c-0.1-0.1-0.2-0.2-0.3-0.2c-0.1,0-0.1,0-0.4,0c-0.3,0-0.6,0.1-0.8,0.4v-0.4h-0.6v2.6h0.7v-1.2c0-0.3,0-0.5,0-0.6 c0-0.1,0.2-0.3,0.2-0.3c0.1,0,0.2,0,0.3,0C78.7,118,78.8,118,78.8,118z"></path> <path d="M81.3,117.9c0.1,0,0.3,0.1,0.3,0.1c0.2,0.1,0.2,0.2,0.2,0.2h0.7l-0.1-0.2c-0.1-0.3-0.3-0.4-0.4-0.6 c-0.1-0.2-0.3-0.2-0.7-0.2c-0.4,0-0.7,0.2-0.9,0.4s-0.3,0.6-0.3,1c0,0.4,0.1,0.8,0.3,1c0.2,0.3,0.6,0.4,0.9,0.4 c0.3,0,0.6-0.1,0.8-0.2c0.2-0.1,0.4-0.4,0.4-0.8h-0.7c-0.1,0.2-0.2,0.4-0.2,0.4c-0.1,0.1-0.1,0.1-0.3,0.1c-0.2,0-0.2-0.1-0.4-0.2 c-0.2-0.1-0.2-0.3-0.2-0.6c0-0.3,0.1-0.5,0.2-0.6C81,117.9,81.2,117.9,81.3,117.9z"></path> <rect x="83" y="116.5" width="0.7" height="0.6"></rect> <rect x="83" y="117.4" width="0.7" height="2.6"></rect> <path d="M86.5,119.9c-0.1-0.1-0.1-0.2-0.1-0.3c0-0.1,0-0.3,0-0.5v-0.8c0-0.3,0-0.5,0-0.6c0-0.1-0.2-0.3-0.3-0.3 c-0.2-0.1-0.3-0.1-0.7-0.1c-0.4,0-0.6,0-0.8,0.2c-0.2,0.2-0.4,0.3-0.4,0.7h0.6l0.1,0c0.1-0.2,0.2-0.3,0.2-0.3c0.1,0,0.1,0,0.3,0 s0.4,0,0.4,0s0,0.1,0,0.3c-0.2,0.1-0.4,0.2-0.7,0.2c-0.2,0.1-0.4,0.1-0.5,0.2c-0.1,0.1-0.2,0.2-0.3,0.3c-0.1,0.1-0.1,0.2-0.1,0.4 c0,0.2,0,0.4,0.2,0.5c0.1,0.2,0.3,0.2,0.6,0.2c0.1,0,0.3,0,0.4,0c0.2-0.1,0.3-0.2,0.4-0.3c0,0.1,0,0.2,0,0.2H86.5z M85.6,119.4 c-0.2,0.1-0.3,0.1-0.4,0.1c-0.1,0-0.3-0.1-0.3-0.1c-0.1,0-0.1-0.1-0.1-0.2c0-0.1,0.1-0.2,0.1-0.2c0.1-0.1,0.2-0.1,0.4-0.1 c0.2-0.1,0.4-0.1,0.4-0.1l0.1,0.1c0,0.1,0,0.3,0,0.3C85.7,119.3,85.6,119.4,85.6,119.4z"></path> <path d="M89.4,120v-3.6h-0.7v1.3c-0.2-0.3-0.4-0.4-0.7-0.4s-0.6,0.1-0.8,0.3s-0.3,0.6-0.3,1c0,0.4,0.1,0.8,0.3,1 c0.3,0.3,0.5,0.4,0.8,0.4c0.1,0,0.3-0.1,0.4-0.1c0.2,0,0.3-0.2,0.4-0.3v0.4H89.4z M88.5,119.4c-0.1,0.2-0.2,0.2-0.4,0.2 c-0.2,0-0.4-0.1-0.5-0.3c-0.1-0.1-0.1-0.3-0.1-0.5c0-0.3,0.1-0.5,0.2-0.6c0.1-0.2,0.2-0.2,0.4-0.2c0.2,0,0.3,0.1,0.4,0.2 c0.2,0.1,0.2,0.3,0.2,0.6S88.6,119.2,88.5,119.4z"></path> <path d="M89.8,118.7C89.8,118.7,89.8,118.7,89.8,118.7C89.8,118.6,89.8,118.6,89.8,118.7L89.8,118.7z"></path> <path d="M92.2,119.7c0.3-0.3,0.4-0.6,0.4-1c0-0.4-0.2-0.7-0.4-1c-0.3-0.3-0.6-0.4-1-0.4c-0.3,0-0.5,0.1-0.7,0.2 c-0.2,0.1-0.4,0.3-0.5,0.5c-0.2,0.3-0.2,0.4-0.2,0.6c0,0.3,0.1,0.6,0.2,0.8c0.1,0.2,0.3,0.4,0.5,0.5c0.2,0.2,0.3,0.2,0.7,0.2 C91.6,120.1,91.9,120,92.2,119.7z M90.7,119.3c-0.2-0.1-0.2-0.3-0.2-0.6c0-0.3,0.1-0.5,0.2-0.6c0.1-0.2,0.3-0.2,0.4-0.2 c0.1,0,0.3,0.1,0.4,0.2c0.2,0.2,0.2,0.3,0.2,0.6c0,0.3-0.1,0.5-0.2,0.6c-0.1,0.2-0.3,0.2-0.4,0.2C91,119.5,90.8,119.4,90.7,119.3z"></path> <path d="M96.5,117.8c-0.2-0.3-0.5-0.4-0.8-0.4c-0.2,0-0.4,0-0.5,0.1c-0.1,0.1-0.3,0.2-0.3,0.3v-0.4h-0.6l-0.1,0.2v3.6h0.7v-1.3 c0.2,0.1,0.3,0.3,0.4,0.3c0.1,0,0.1,0,0.4,0s0.6-0.2,0.8-0.4c0.2-0.2,0.3-0.6,0.3-1C96.8,118.4,96.7,118,96.5,117.8z M96,119.3 c-0.1,0.2-0.3,0.2-0.4,0.2c-0.1,0-0.3-0.1-0.4-0.2c-0.2-0.1-0.2-0.3-0.2-0.6c0-0.3,0.1-0.5,0.2-0.6c0.1-0.2,0.2-0.2,0.4-0.2 c0.2,0,0.3,0.1,0.4,0.2c0.2,0.1,0.2,0.3,0.2,0.6C96.2,119,96.1,119.1,96,119.3z"></path> <path d="M97.1,118.7C97.1,118.7,97.1,118.7,97.1,118.7C97.1,118.6,97.1,118.6,97.1,118.7L97.1,118.7z"></path> <path d="M97.8,119.9c0.2,0.2,0.3,0.2,0.7,0.2c0.4,0,0.7-0.1,1-0.4c0.3-0.3,0.4-0.6,0.4-1c0-0.4-0.2-0.7-0.4-1 c-0.3-0.3-0.6-0.4-1-0.4c-0.3,0-0.5,0.1-0.7,0.2c-0.2,0.1-0.4,0.3-0.5,0.5c-0.2,0.3-0.2,0.4-0.2,0.6c0,0.3,0.1,0.6,0.2,0.8 C97.4,119.6,97.6,119.8,97.8,119.9z M98,118.1c0.1-0.2,0.3-0.2,0.4-0.2c0.1,0,0.3,0.1,0.4,0.2c0.2,0.2,0.2,0.3,0.2,0.6 c0,0.3-0.1,0.5-0.2,0.6c-0.1,0.2-0.3,0.2-0.4,0.2c-0.1,0-0.3-0.1-0.4-0.2c-0.2-0.1-0.2-0.3-0.2-0.6C97.8,118.4,97.9,118.2,98,118.1 z"></path> <path d="M101.1,117.5c-0.1,0-0.2,0.1-0.3,0.3v-0.4h-0.6v2.6h0.7v-0.7c0-0.5-0.1-0.7,0-0.9s0.2-0.3,0.2-0.3s0.1,0,0.2,0 c0.1,0,0.2,0.1,0.3,0.1l0.2-0.6c-0.1-0.1-0.3-0.1-0.4-0.1C101.3,117.5,101.1,117.5,101.1,117.5z"></path> <rect x="62.1" y="122.3" width="0.7" height="3.6"></rect> <path d="M65.5,125v-0.8c0-0.3,0-0.5,0-0.6c0-0.1-0.2-0.3-0.3-0.3c-0.2-0.1-0.3-0.1-0.7-0.1c-0.4,0-0.6,0-0.8,0.2s-0.4,0.3-0.4,0.7 h0.6l0.1,0c0.1-0.2,0.2-0.3,0.2-0.3c0.1,0,0.1,0,0.3,0s0.4,0,0.4,0s0,0.1,0,0.3c-0.2,0.1-0.4,0.2-0.7,0.2c-0.2,0.1-0.4,0.1-0.5,0.2 c-0.1,0.1-0.2,0.2-0.3,0.3c-0.1,0.1-0.1,0.2-0.1,0.4s0,0.4,0.2,0.5c0.1,0.2,0.3,0.2,0.6,0.2c0.1,0,0.3,0,0.4,0 c0.2-0.1,0.3-0.2,0.4-0.3c0,0.1,0,0.2,0,0.2h0.7c-0.1-0.1-0.1-0.2-0.1-0.3C65.5,125.4,65.5,125.2,65.5,125z M65,125 c-0.1,0.1-0.2,0.2-0.2,0.2c-0.2,0.1-0.3,0.1-0.4,0.1c-0.1,0-0.3-0.1-0.3-0.1c-0.1,0-0.1-0.1-0.1-0.2c0-0.1,0.1-0.2,0.1-0.2 c0.1-0.1,0.2-0.1,0.4-0.1c0.2-0.1,0.4-0.1,0.4-0.1l0.1,0.1C65,124.8,65,125,65,125z"></path> <path d="M69.6,124.3c0,0.3,0,0.5,0,0.6c0,0.1-0.1,0.3-0.2,0.3c-0.1,0.1-0.3,0.1-0.5,0.1c-0.2,0-0.4,0-0.5-0.1 c-0.1-0.1-0.2-0.3-0.2-0.4c0-0.1,0-0.3,0-0.6v-1.9h-0.6v1.9c0,0.4,0,0.7,0,0.9c0,0.1,0.1,0.3,0.2,0.4c0.1,0.1,0.2,0.2,0.4,0.3 c0.2,0.1,0.5,0.1,0.8,0.1s0.5,0,0.7-0.1c0.2-0.1,0.3-0.2,0.4-0.3c0.1-0.1,0.2-0.2,0.2-0.4c0-0.2,0-0.5,0-0.9v-1.9h-0.7V124.3z"></path> <polygon points="67.5,122.3 67.6,122.3 67.6,122.3 "></polygon> <path d="M73,123.4c-0.1,0-0.1,0-0.4,0c-0.3,0-0.6,0.1-0.8,0.4v-0.4h-0.6v2.6h0.7v-1.2c0-0.3,0-0.5,0-0.6c0-0.1,0.2-0.3,0.2-0.3 c0.1,0,0.2,0,0.3,0c0.1,0,0.2,0,0.2,0c0.1,0.1,0.1,0.2,0.1,0.2s0,0.2,0,0.5v1.3h0.7v-1.5c0-0.2,0-0.4,0-0.5c0-0.1,0-0.2-0.1-0.3 C73.2,123.5,73.1,123.4,73,123.4z"></path> <rect x="74" y="122.3" width="0.7" height="0.6"></rect> <rect x="74" y="123.3" width="0.7" height="2.6"></rect> <path d="M75.2,124.5C75.2,124.5,75.2,124.5,75.2,124.5C75.2,124.4,75.2,124.4,75.2,124.5L75.2,124.5z"></path> <path d="M76.6,123.1c-0.3,0-0.5,0.1-0.7,0.2c-0.2,0.1-0.4,0.3-0.5,0.5c-0.2,0.3-0.2,0.4-0.2,0.6c0,0.3,0.1,0.6,0.2,0.8 c0.1,0.2,0.3,0.4,0.5,0.5c0.2,0.2,0.3,0.2,0.7,0.2c0.4,0,0.7-0.1,1-0.4c0.3-0.3,0.4-0.6,0.4-1c0-0.4-0.2-0.7-0.4-1 C77.3,123.2,77,123.1,76.6,123.1z M76.9,125.2c-0.1,0.2-0.3,0.2-0.4,0.2c-0.1,0-0.3-0.1-0.4-0.2c-0.2-0.1-0.2-0.3-0.2-0.6 s0.1-0.5,0.2-0.6c0.1-0.2,0.3-0.2,0.4-0.2s0.3,0.1,0.4,0.2c0.2,0.2,0.2,0.3,0.2,0.6S77,125.1,76.9,125.2z"></path> <polygon points="77.3,122.3 76.5,122.3 76.2,123 76.6,123 "></polygon> <path d="M80.3,123.4c-0.1,0-0.1,0-0.4,0s-0.6,0.1-0.8,0.4v-0.4h-0.6v2.6h0.7v-1.2c0-0.3,0-0.5,0-0.6c0-0.1,0.2-0.3,0.2-0.3 c0.1,0,0.2,0,0.3,0s0.2,0,0.2,0c0.1,0.1,0.1,0.2,0.1,0.2s0,0.2,0,0.5v1.3h0.7v-1.5c0-0.2,0-0.4,0-0.5c0-0.1,0-0.2-0.1-0.3 C80.5,123.5,80.4,123.4,80.3,123.4z"></path> <polygon points="83.4,124.3 85.2,124.3 85.2,123.7 83.4,123.7 83.4,122.9 85.3,122.9 85.3,122.3 82.7,122.3 82.7,125.9 85.4,125.9 85.4,125.3 83.4,125.3 "></polygon> <path d="M87.5,124.5c0,0.4,0,0.7,0,0.7c0,0.1-0.2,0.2-0.2,0.2c-0.1,0-0.2,0-0.3,0c-0.1,0-0.3,0-0.3,0c-0.1-0.1-0.1-0.2-0.1-0.2 c0-0.1,0-0.3,0-0.7v-1.2h-0.7v1.6c0,0.3,0,0.5,0,0.6c0.1,0.1,0.2,0.3,0.3,0.3c0.2,0.1,0.3,0.1,0.5,0.1s0.3-0.1,0.5-0.1 c0.2-0.1,0.4-0.2,0.4-0.3v0.4v0.1h0.6v-2.6h-0.7V124.5z"></path> <path d="M89.8,123.4c-0.1,0-0.2,0.1-0.3,0.3v-0.4h-0.6v2.6h0.7v-0.7c0-0.5-0.1-0.7,0-0.9c0.1-0.2,0.2-0.3,0.2-0.3s0.1,0,0.2,0 c0.1,0,0.2,0.1,0.3,0.1l0.2-0.6c-0.1-0.1-0.3-0.1-0.4-0.1C90,123.4,89.8,123.4,89.8,123.4z"></path> <path d="M90.6,124.5C90.6,124.5,90.6,124.5,90.6,124.5C90.6,124.4,90.6,124.4,90.6,124.5L90.6,124.5z"></path> <path d="M92,123.1c-0.3,0-0.5,0.1-0.7,0.2c-0.2,0.1-0.4,0.3-0.5,0.5c-0.2,0.3-0.2,0.4-0.2,0.6c0,0.3,0.1,0.6,0.2,0.8 c0.1,0.2,0.3,0.4,0.5,0.5c0.2,0.2,0.3,0.2,0.7,0.2c0.4,0,0.7-0.1,1-0.4c0.3-0.3,0.4-0.6,0.4-1c0-0.4-0.2-0.7-0.4-1 C92.7,123.2,92.4,123.1,92,123.1z M92.3,125.2c-0.1,0.2-0.3,0.2-0.4,0.2c-0.1,0-0.3-0.1-0.4-0.2c-0.2-0.1-0.2-0.3-0.2-0.6 s0.1-0.5,0.2-0.6c0.1-0.2,0.3-0.2,0.4-0.2c0.1,0,0.3,0.1,0.4,0.2c0.2,0.2,0.2,0.3,0.2,0.6S92.4,125.1,92.3,125.2z"></path> <path d="M95.2,123.3c-0.2,0-0.4,0-0.5,0.1c-0.1,0.1-0.3,0.2-0.3,0.3v-0.4h-0.6l-0.1,0.2v3.6h0.7v-1.3c0.2,0.1,0.3,0.3,0.4,0.3 c0.1,0,0.1,0,0.4,0s0.6-0.2,0.8-0.4c0.2-0.2,0.3-0.6,0.3-1c0-0.4-0.1-0.8-0.3-1C95.8,123.4,95.5,123.3,95.2,123.3z M95.4,125.1 c-0.1,0.2-0.3,0.2-0.4,0.2s-0.3-0.1-0.4-0.2c-0.2-0.1-0.2-0.3-0.2-0.6c0-0.3,0.1-0.5,0.2-0.6c0.1-0.2,0.2-0.2,0.4-0.2 s0.3,0.1,0.4,0.2c0.2,0.1,0.2,0.3,0.2,0.6C95.6,124.8,95.5,124.9,95.4,125.1z"></path> <path d="M98.3,125.2c-0.1,0.1-0.2,0.3-0.2,0.3c-0.1,0-0.1,0-0.3,0c-0.2,0-0.2-0.1-0.4-0.2c-0.2-0.1-0.2-0.3-0.2-0.5h1.7 c0-0.6-0.1-0.9-0.3-1.2c-0.2-0.3-0.6-0.4-0.9-0.4s-0.6,0.2-0.8,0.4s-0.3,0.6-0.3,1c0,0.4,0.1,0.7,0.3,0.9c0.2,0.3,0.6,0.4,1,0.4 c0.3,0,0.5-0.1,0.7-0.2c0.2-0.1,0.4-0.3,0.4-0.7h-0.7V125.2z M97.3,123.8c0.1-0.2,0.2-0.2,0.4-0.2s0.4,0.1,0.4,0.2 c0.2,0.2,0.2,0.3,0.2,0.5l-0.1-0.1h-1C97.2,124.1,97.2,124,97.3,123.8z"></path> <path d="M101.6,125v-0.8c0-0.3,0-0.5,0-0.6c0-0.1-0.2-0.3-0.3-0.3c-0.2-0.1-0.3-0.1-0.7-0.1c-0.4,0-0.6,0-0.8,0.2s-0.4,0.3-0.4,0.7 h0.6l0.1,0c0.1-0.2,0.2-0.3,0.2-0.3c0.1,0,0.1,0,0.3,0s0.4,0,0.4,0s0,0.1,0,0.3c-0.2,0.1-0.4,0.2-0.7,0.2c-0.2,0.1-0.4,0.1-0.5,0.2 c-0.1,0.1-0.2,0.2-0.3,0.3c-0.1,0.1-0.1,0.2-0.1,0.4s0,0.4,0.2,0.5c0.1,0.2,0.3,0.2,0.6,0.2c0.1,0,0.3,0,0.4,0 c0.2-0.1,0.3-0.2,0.4-0.3c0,0.1,0,0.2,0,0.2h0.7c-0.1-0.1-0.1-0.2-0.1-0.3C101.6,125.4,101.6,125.2,101.6,125z M101,125 c-0.1,0.1-0.2,0.2-0.2,0.2c-0.2,0.1-0.3,0.1-0.4,0.1c-0.1,0-0.3-0.1-0.3-0.1c-0.1,0-0.1-0.1-0.1-0.2c0-0.1,0.1-0.2,0.1-0.2 c0.1-0.1,0.2-0.1,0.4-0.1c0.2-0.1,0.4-0.1,0.4-0.1l0.1,0.1C101,124.8,101,125,101,125z"></path> <path d="M144.3,124.3c0,0,0,0.1,0,0.2c0,0.2,0,0.4,0,0.5c0-0.1,0-0.2,0.1-0.2c0,0,0.2-0.1,0.2-0.2c0,0-0.1-0.1-0.2-0.2L144.3,124.3 z"></path> <path d="M144,121.5v0.6c0,0,0,0,0.1,0c0,0,0.1,0,0.2,0c0,0,0.1,0,0.1-0.2v-0.2v-0.1c0,0-0.1,0-0.2-0.1H144z"></path> <path d="M144.4,123.4h-0.1c0,0,0,0-0.1,0c0,0,0,0-0.1,0c0,0-0.1-0.1-0.2-0.2v0.7c0,0,0,0,0.1,0.1c0,0,0.1,0.1,0.1,0.1 c0,0,0,0,0.1,0c0,0,0.1,0,0.2,0.1c0,0,0.2,0.1,0.3,0.2c0-0.2,0-0.5,0.1-0.7C144.8,123.6,144.6,123.5,144.4,123.4z"></path> <polygon points="143.8,126.1 143.6,126.1 143.4,126.1 142.3,126.1 142.3,126.2 144,126.2 144,124 143.8,124 "></polygon> <path d="M144.1,127.6C144,127.6,144,127.6,144.1,127.6c-0.2,0-0.4,0-0.4,0v0.2c0.1,0,0.3,0,0.3,0c0.1,0,0.1,0,0.1,0 c0.1,0,0.2,0,0.2,0c0.1,0,0.1,0,0.1,0v-0.2c-0.1,0-0.1,0-0.1,0C144.2,127.6,144.1,127.6,144.1,127.6z"></path> <path d="M143.6,126.5c0,0,0,0.1,0,0.2h0.4c0,0,0,0,0-0.2H143.6z"></path> <path d="M144.1,126.7L144.1,126.7l0,0.5h-1.9v0.1c0,0-0.2,0-0.3,0v1.2c0.1,0,0.2,0,0.3,0c0,0,0,0,0.1,0c0,0,0.1,0,0.2,0 c0,0,0.1,0,0.2,0v-1.2l1.4,0.1V126.7z"></path> <path d="M144.1,128.1C144,128.1,144,128.1,144.1,128.1c-0.2,0-0.4,0-0.4,0v0.2c0.1,0,0.3,0,0.3,0c0.1,0,0.1,0,0.1,0 c0.1,0,0.2,0,0.2,0c0.1,0,0.1,0,0.1,0v-0.2c-0.1,0-0.1,0-0.1,0C144.2,128.1,144.1,128.1,144.1,128.1z"></path> <path d="M142.3,126.6C142.3,126.5,142.3,126.5,142.3,126.6l-0.2-0.1c0,0.1,0,0.2,0,0.2h-0.2v0.5h0.3L142.3,126.6L142.3,126.6z"></path> <path d="M144.3,127.4l-0.2,0v0C144.2,127.4,144.3,127.4,144.3,127.4z"></path> <path d="M138.4,117.7c-0.1,0,0,0.2-0.1,0.2c0,0,0,0-0.1,0c0,0,0,0,0,0.1c0,0,0,0,0.1,0c0,0,0,0,0,0c0,0,0,0,0.1,0 C138.4,117.9,138.5,117.8,138.4,117.7z"></path> <path d="M138.5,119.1c0,0-0.1,0,0,0.2c0,0,0,0,0.1,0c0,0,0,0.1,0,0.2c0,0,0,0.1,0,0.1c0,0,0.1,0,0.1-0.2c0,0,0,0,0.1,0 C138.7,119.4,138.7,119.1,138.5,119.1z"></path> <path d="M139,119.3c0,0,0,0,0.1,0.1C139.1,119.4,139,119.3,139,119.3C139,119.3,139,119.3,139,119.3z"></path> <path d="M139.2,119.6C139.2,119.6,139.2,119.6,139.2,119.6c0,0.1,0,0.1,0,0.2c0,0,0,0.1,0,0.1c0,0,0,0.1,0.2,0.2c0,0,0-0.1,0-0.2 c0,0,0-0.1,0-0.2C139.3,119.6,139.3,119.6,139.2,119.6C139.3,119.6,139.2,119.6,139.2,119.6z"></path> <path d="M138.9,118.6L138.9,118.6c0,0,0,0-0.1,0c0,0,0,0.1,0,0.2c0,0,0,0.1,0,0.2c0,0,0,0.1,0,0.1v0.1c0,0.1,0,0.2,0,0.2 c0,0,0,0,0,0c0,0,0,0,0.1,0c0,0,0-0.1,0-0.2c0,0,0,0,0-0.1c0,0,0,0,0-0.1v-0.1h0c0,0,0-0.1,0-0.1 C138.9,118.8,138.9,118.7,138.9,118.6z"></path> <path d="M138.9,118.9c0,0.1,0,0.1,0,0.2c0,0,0.1,0.1,0.1,0.1C139,119.2,139,119.1,138.9,118.9C138.9,118.9,138.9,118.9,138.9,118.9 z"></path> <path d="M138.9,118.5C138.9,118.6,138.9,118.6,138.9,118.5c0.1,0.1,0.2,0.1,0.2,0.1C139,118.5,138.9,118.5,138.9,118.5z"></path> <path d="M139.1,118.6c0,0,0-0.1,0-0.2c0,0,0.1,0,0.1,0.1c0-0.2,0-0.2-0.1-0.4c0,0,0,0,0,0.1c0,0-0.1,0-0.2,0c0,0-0.1,0-0.1,0 c0,0,0,0-0.1,0c0,0,0,0-0.1,0c0,0,0-0.1-0.1-0.1c0,0-0.1-0.1-0.1-0.1c0,0,0,0,0,0.1c0,0,0,0.1,0,0.1c0,0,0.1,0,0.1,0 c0,0,0,0.1,0,0.2c0,0,0,0,0.1,0c0,0,0,0,0,0.1c0-0.1,0.1-0.2,0.2-0.2c0,0,0,0,0,0.1c0,0,0,0,0.1,0.1h0c0,0,0-0.1,0-0.1 C138.9,118.4,139,118.4,139.1,118.6z"></path> <path d="M139.8,117.4C139.8,117.4,139.8,117.4,139.8,117.4c0,0.1,0,0.2-0.1,0.3c0,0.2-0.1,0.3,0,0.5c0,0,0,0,0,0c0,0,0.1,0,0.2-0.1 c0,0,0-0.1,0-0.2c0,0,0,0,0-0.2c0,0,0-0.1,0-0.1c0,0,0,0,0,0c0,0,0,0,0,0c0,0,0,0-0.1,0C139.8,117.6,139.8,117.5,139.8,117.4z"></path> <path d="M139.2,119.2c0,0.1,0,0.2,0,0.2c-0.1-0.1-0.1-0.2-0.1-0.2v0.2c0,0,0.1,0.1,0.1,0.1c0-0.1,0.1-0.1,0.1-0.1 C139.2,119.2,139.2,119.2,139.2,119.2z"></path> <path d="M139.5,118.8c0,0.1,0,0.2,0,0.2c-0.1,0.1-0.1,0.2-0.1,0.2c0,0.1,0,0.3,0,0.3c0,0,0,0.1,0,0.1c0.1,0,0.1,0,0.1,0 c0.2,0,0.2-0.1,0.2-0.1c0-0.1,0-0.2,0-0.2c0-0.1,0-0.2,0-0.3c0-0.2,0-0.5,0-0.7c0,0,0-0.1,0-0.1c-0.1,0-0.2,0-0.2,0 C139.3,118.4,139.3,118.6,139.5,118.8z"></path> <path d="M138.9,117.7c0.1,0.1,0.1,0.1,0.1,0.1C138.9,117.7,138.9,117.7,138.9,117.7z"></path> <path d="M139.3,117.5c0.1,0,0,0,0-0.1c0,0,0,0-0.1,0C139.2,117.5,139.2,117.5,139.3,117.5C139.2,117.5,139.2,117.5,139.3,117.5 C139.2,117.5,139.3,117.5,139.3,117.5z"></path> <path d="M139.2,118L139.2,118c0,0,0,0-0.1,0c0,0,0,0,0,0c0,0,0,0-0.1,0c0,0-0.1-0.2-0.3-0.1c0,0,0.1,0.2,0.3,0.2c0,0,0,0,0.1,0 c0,0,0,0,0-0.1C139.1,118,139.1,118,139.2,118z"></path> <path d="M139.2,117.5c0,0.1,0,0.1,0,0.2h0C139.2,117.6,139.2,117.6,139.2,117.5z"></path> <path d="M138.9,117.7c-0.1-0.1-0.1-0.1-0.1-0.1c-0.1,0-0.1,0-0.1,0l0.1,0.1C138.9,117.7,138.9,117.7,138.9,117.7z"></path> <path d="M139.1,117.9C139.1,117.9,139.2,117.9,139.1,117.9c0,0,0.1-0.1,0.1-0.2h-0.1H139L139.1,117.9L139.1,117.9 C139,117.9,139,117.9,139.1,117.9z"></path> <path d="M128.4,122.8c0,0.2,0,0.5,0.1,0.7c0,0,0.2-0.2,0.3-0.2c0.1,0,0.3-0.2,0.4-0.2c0,0,0,0,0.1,0c0,0,0,0,0.1,0c0,0,0,0,0.1,0 c0,0,0,0,0.1,0c0,0,0,0,0.1,0c0,0,0.1,0,0.2-0.1c0.1,0,0.2-0.2,0.3-0.3V122l-0.1,0c0,0,0,0-0.1,0.1c0,0,0-0.1,0-0.2v-0.2 c0,0,0,0-0.2,0c0,0-0.1,0-0.2,0v0.7c0,0,0,0-0.1,0c0,0,0,0-0.1,0c0,0,0,0-0.1,0c0,0,0,0-0.1,0c0,0-0.2,0-0.3,0.1c0,0,0,0-0.1,0 C128.6,122.5,128.5,122.7,128.4,122.8z"></path> <polygon points="128.1,126.2 129.8,126.2 129.8,123.3 129.6,123.3 129.6,126.1 129.4,126.1 129.2,126.1 128.1,126.1 "></polygon> <path d="M129.7,116.2c0,0,0,0,0.1-0.1c0,0,0,0,0.1,0l-0.2-0.2c0,0,0,0,0,0.1c0,0,0,0,0,0.1C129.7,116.1,129.7,116.1,129.7,116.2z"></path> <path d="M127.8,115.9c-0.1,0.1-0.1,0.1-0.1,0.1c0,0.1,0,0.2,0,0.2l0.3-0.3c0,0,0,0-0.1,0C127.8,115.9,127.8,115.9,127.8,115.9z"></path> <path d="M128.1,115.9C128.1,115.9,128.1,115.9,128.1,115.9H128c0,0,0,0,0.1,0.1C128.1,116,128.1,116,128.1,115.9z"></path> <rect x="127.7" y="117" width="0.9" height="0.5"></rect> <path d="M129.4,116.9c0-0.1,0-0.2,0-0.2c0,0,0,0-0.1-0.1c0,0,0,0-0.1,0c0,0,0,0-0.1,0c0,0,0,0-0.1,0c0,0.1,0,0.2,0,0.4h-0.1h0h-0.1 h-0.1h-0.1h0v0.1h1.2v0.5h-1.2v0.1h0.2v0.1v0.1h1.1h0.2h0.2v-0.1c0,0,0,0,0-0.1c0-0.1,0,0,0-0.1v-0.1c0,0,0,0,0-0.1h0.1v-0.7h-0.6 L129.4,116.9z"></path> <path d="M129.4,115.9l-0.2-0.1c0,0.1,0,0.1,0,0.2c0.1-0.1,0.1-0.1,0.1-0.1C129.4,115.9,129.4,115.9,129.4,115.9z"></path> <path d="M128.9,115.8C128.9,115.9,128.9,115.9,128.9,115.8C129,115.8,129,115.8,128.9,115.8C128.9,115.8,128.9,115.8,128.9,115.8z"></path> <path d="M128.4,115.8c-0.1,0-0.1,0-0.1,0v0.2c0.1,0.1,0.1,0.1,0.1,0.1V116C128.4,115.9,128.4,115.8,128.4,115.8z"></path> <path d="M129.6,116C129.6,115.9,129.6,115.9,129.6,116L129.6,116z"></path> <path d="M133,114.6C133.1,114.6,133.1,114.6,133,114.6L133,114.6c0,0.2,0,0.2,0,0.2c0.1,0,0.1,0,0.1,0c0.1-0.1,0.2-0.1,0.2-0.1h0 c0,0,0-0.1,0-0.1h0c0-0.1,0-0.1,0-0.1c0,0,0,0,0,0c0-0.1,0-0.1,0-0.1c0.1,0,0.1,0,0.1,0c0-0.1,0-0.1,0-0.1c-0.1,0-0.1-0.2-0.1-0.2 c0.1,0,0.1,0,0.1,0c0-0.1,0-0.2,0-0.2c0-0.1,0,0,0-0.1c0.1,0.1,0.2,0.2,0.2,0.2c0-0.1,0-0.2,0-0.3c0-0.1,0-0.1,0-0.1 c-0.1-0.1-0.1-0.1-0.1-0.1l-0.1-0.2c0,0.1,0,0.2,0,0.3c-0.1,0-0.1,0-0.1,0c-0.1,0-0.1,0-0.1,0c-0.2,0-0.3,0-0.4,0 c-0.1,0-0.1,0-0.1,0c-0.1,0-0.2,0-0.2,0c-0.1,0-0.2,0-0.2,0c-0.1,0-0.1,0-0.1,0c-0.1,0.1-0.3,0.2-0.3,0.2c0,0.1,0.1,0.2,0.1,0.2 s-0.2,0.3-0.2,0.4c0.1,0,0.1,0,0.1,0c0-0.1,0-0.1,0-0.1c0.2,0.1,0.2,0.1,0.2,0.1c0.1,0,0.1,0.2,0.1,0.2c0-0.1,0.2-0.2,0.2-0.2 c0.1,0,0.2,0,0.2,0c0,0.1,0,0.2,0,0.2c0.1,0,0.1,0,0.1,0h0.2v0C132.9,114.6,133,114.6,133,114.6C133,114.6,133,114.6,133,114.6z"></path> <polygon points="129,120.8 128.9,120.5 128.9,120.8 "></polygon> <path d="M133.3,114.7C133.3,114.7,133.3,114.7,133.3,114.7C133.3,114.6,133.3,114.6,133.3,114.7 C133.3,114.7,133.3,114.7,133.3,114.7z"></path> <path d="M131.7,115C131.8,115,131.8,115,131.7,115L131.7,115l0.1-0.2c-0.1,0-0.1,0-0.1,0C131.7,114.9,131.7,115,131.7,115z"></path> <path d="M133.6,114.8c0,0,0-0.1,0-0.1c0,0,0-0.1,0-0.1c0-0.1,0-0.1,0-0.1l-0.1,0.1c-0.1,0-0.1,0.1-0.1,0.1c0,0,0,0,0,0 C133.4,114.8,133.5,114.8,133.6,114.8L133.6,114.8z"></path> <path d="M130.2,120.5c0-0.1,0-0.1,0-0.1c0-0.1-0.1-0.1-0.1-0.1c-0.1,0-0.1,0-0.1,0L130.2,120.5 C130.2,120.5,130.2,120.5,130.2,120.5z"></path> <path d="M132.8,115C132.7,115,132.7,115,132.8,115c-0.1,0.1-0.1,0.2-0.1,0.2c0.1,0,0.1,0,0.1,0c0.2,0,0.2,0,0.2-0.1 c-0.1,0-0.1,0-0.1,0C132.8,115,132.8,115,132.8,115z"></path> <path d="M132.1,115.2c-0.1,0-0.1,0-0.1,0C132.1,115.3,132.2,115.3,132.1,115.2c0.2,0.2,0.2,0.2,0.2,0.2c0.1,0.1,0.2,0.1,0.2,0.1 l-0.1-0.2h-0.1C132.2,115.2,132.1,115.2,132.1,115.2z"></path> <path d="M132.4,115.1C132.4,115.1,132.4,115.1,132.4,115.1c-0.1-0.1-0.2-0.1-0.2-0.1l0.2,0.3h0.1c0,0,0.1,0,0.2-0.1 c0,0-0.1,0-0.1,0C132.6,115.2,132.5,115.2,132.4,115.1z"></path> <path d="M132.3,115C132.3,115,132.3,115,132.3,115C132.3,115,132.3,115,132.3,115c0.1,0,0.2,0,0.3,0c0,0,0,0,0.1,0c0,0,0,0,0-0.1 c0.1,0,0.2-0.2,0.2-0.3c0,0-0.1,0-0.1,0c0,0-0.1,0-0.2,0c0,0,0,0,0,0.1c0,0,0,0,0,0.1c0,0,0,0-0.1,0c0,0,0,0-0.1,0h-0.1 C132.3,114.8,132.3,114.8,132.3,115c0-0.1,0-0.1-0.1-0.1C132.2,114.9,132.2,115,132.3,115z"></path> <path d="M132.2,114.9L132.2,114.9c0.1-0.1,0.1-0.2,0.1-0.2c-0.1,0-0.1,0-0.1,0c-0.1,0-0.1,0-0.1,0c0-0.1,0-0.1,0-0.1 c-0.1,0-0.1,0-0.1,0c-0.1,0-0.2,0.2-0.2,0.2l0,0.2c0.1,0,0.1,0,0.1,0C132,115,132.1,115,132.2,114.9 C132.1,115,132.1,115,132.2,114.9L132.2,114.9C132.2,114.9,132.2,114.9,132.2,114.9z"></path> <path d="M131.1,120.3c-0.2,0.1-0.2,0.2-0.2,0.3c0,0,0,0.1,0,0.2l0.3,0.6l0,0v-1.2C131.1,120.3,131.1,120.3,131.1,120.3z"></path> <path d="M128.1,120.9v-0.2v-0.2c0-0.1,0-0.2,0-0.2h-0.2L128.1,120.9z"></path> <path d="M136.8,115.8C136.8,115.8,136.8,115.8,136.8,115.8C136.7,115.9,136.7,115.8,136.8,115.8z"></path> <path d="M131.2,125.6c0,0.4,0.1,0.7,0.2,1c0,0.1,0,0.1,0,0.1c0,0.2,0.2,0.3,0.2,0.4h0.1v-4.7h-0.5V125.6z"></path> <path d="M132.3,127.8c0.1,0.1,0.2,0.1,0.2,0.1h0.2l0.2,0.1v-5.4h-0.6V127.8z"></path> <path d="M134.8,115.1C134.8,115.1,134.8,115.1,134.8,115.1L134.8,115.1C134.8,115.1,134.8,115.1,134.8,115.1z"></path> <path d="M129.6,120.1h-0.1v0.1c0,0-0.1,0-0.1,0c0,0.1,0,0.2,0,0.2l0.1-0.1v0.2L129.6,120.1z"></path> <polygon points="134.6,114.9 134.6,114.9 134.6,114.9 "></polygon> <path d="M134.2,114.9C134.2,114.9,134.1,114.9,134.2,114.9C134.1,114.8,134.1,114.8,134.2,114.9 C134.1,114.8,134.1,114.8,134.2,114.9z"></path> <polygon points="128.8,120.3 128.9,120.5 128.9,120.3 "></polygon> <path d="M136,116C135.9,116,135.9,116,136,116C135.9,116.1,135.9,116.1,136,116z"></path> <path d="M134,115.1c-0.2,0-0.2,0-0.2,0c0,0.1,0,0.1,0,0.1C133.9,115.2,134,115.2,134,115.1L134,115.1z"></path> <path d="M135.2,113C135.2,113,135.2,113,135.2,113C135.2,113,135.2,113,135.2,113c0,0.2,0,0.2,0,0.2c0,0,0,0,0,0 C135.2,113.2,135.2,113.2,135.2,113L135.2,113z"></path> <path d="M135.3,113.1C135.3,113.1,135.3,113.1,135.3,113.1C135.3,113.1,135.3,113.1,135.3,113.1c0-0.1,0-0.1,0-0.1c0,0,0,0,0,0 c0-0.1,0-0.1,0-0.2c0-0.2,0-0.5,0-0.7s0.1-0.3,0.1-0.3c0.1,0,0.2,0,0.2,0c0.1,0,0.1,0,0.1,0c0.1,0,0.1,0.1,0.1,0.2 c0,0.1,0,0.1,0,0.2c0,0,0,0,0,0c0,0.1,0,0.1,0,0.2c0,0,0,0,0,0c0,0,0,0,0,0c0,0.1,0,0.2,0,0.3l0,0c0,0,0,0,0,0c0,0.1,0,0.2,0,0.3 c0-0.1,0-0.1,0.1-0.1c0,0,0,0,0,0c0,0,0-0.1,0-0.1c0.1,0,0.1-0.1,0.1-0.1c0-0.1-0.1-0.1-0.1-0.1c0,0,0-0.1,0-0.1c0,0,0,0,0-0.1 c0-0.1,0-0.1,0-0.1v0c0.1,0,0.1,0,0.1,0.1c0-0.2,0-0.4,0-0.6c0-0.2,0-0.2,0-0.2c0,0,0,0-0.1,0c0,0,0,0,0,0c-0.1,0-0.1,0-0.1,0v0.1 c-0.1,0-0.1,0-0.1,0c-0.1,0-0.1,0-0.1,0l-0.4,0.1c0,0.1,0,0.2,0,0.2c0,0.2,0,0.4,0,0.6c0,0.1,0,0.3,0,0.3L135.3,113.1 C135.3,113,135.3,113.1,135.3,113.1z"></path> <path d="M140.5,113.8L140.5,113.8c0.1,0,0.1-0.1,0.1-0.1c0,0-0.1,0-0.1-0.1C140.5,113.7,140.5,113.7,140.5,113.8 C140.5,113.8,140.5,113.8,140.5,113.8z"></path> <path d="M136.6,112.9c0-0.1,0-0.1,0-0.1C136.7,112.8,136.7,112.9,136.6,112.9c0.2,0,0.2,0.1,0.2,0.1h0c0,0,0.1,0,0.1,0l-0.1,0.1 c0.1,0,0.2,0,0.2,0s0,0,0-0.1c0,0,0,0,0,0c0,0,0,0,0,0c0,0,0.1,0,0.1,0c0,0.1,0,0.1,0,0.1c0.1,0,0.3,0,0.3,0c-0.1,0-0.1,0-0.1-0.1 h0c0.1,0,0.1,0,0.1,0h0.1h0.1c0,0.1-0.1,0.1-0.1,0.1h0.2c0,0,0,0,0-0.1h0c0-0.1,0-0.1,0-0.1c0.1,0,0.1,0,0.1,0.1 c0,0.1-0.1,0.1-0.1,0.1c0.1,0,0.1,0,0.2,0c0-0.1,0-0.1,0-0.1c0,0,0.1,0.1,0.1,0.1c0,0,0,0,0-0.1c0-0.1,0.1-0.1,0.1-0.1 c0.1,0,0.1,0,0.1,0c-0.1,0-0.1-0.1-0.1-0.1c0-0.1,0-0.1,0-0.1c0-0.1,0-0.1,0-0.1c0.1-0.1,0.1-0.1,0.1-0.1h0c0,0,0-0.1,0-0.1 c-0.1,0-0.1,0-0.1,0c0,0-0.1,0-0.1,0v0c0,0,0,0,0,0c0,0,0,0,0,0c-0.1,0-0.1,0-0.1,0c-0.1,0-0.1,0-0.1,0c-0.1,0-0.1,0-0.1,0 c0-0.1,0-0.1,0-0.1c-0.1-0.1-0.1-0.2-0.1-0.2c-0.1-0.1-0.2-0.2-0.3-0.2c-0.1,0-0.1,0-0.1,0c-0.1,0-0.1,0-0.1,0c-0.1,0-0.2,0-0.2,0 c-0.1,0-0.2,0-0.2,0c-0.1,0-0.1,0-0.1,0c-0.1,0-0.3,0.1-0.3,0.1c0,0.2,0,0.4,0,0.6l0.1,0.4C136.4,113,136.5,113,136.6,112.9 C136.6,113,136.6,113,136.6,112.9C136.6,113,136.6,113,136.6,112.9z"></path> <path d="M134.9,114.7c0-0.1,0-0.2,0-0.2V114.7C134.9,114.7,134.9,114.7,134.9,114.7z"></path> <path d="M135.4,112.9C135.4,112.9,135.3,112.9,135.4,112.9c-0.1,0.1-0.1,0.1-0.1,0.1c0,0.1,0,0.1,0.1,0.1 C135.4,113.1,135.4,113.1,135.4,112.9C135.4,112.9,135.4,113,135.4,112.9z"></path> <path d="M134.9,115.1C134.8,115.1,134.8,115.1,134.9,115.1L134.9,115.1C134.8,115.1,134.8,115.1,134.9,115.1L134.9,115.1z"></path> <path d="M134.7,114.4C134.7,114.5,134.7,114.5,134.7,114.4c0,0.1,0,0.1,0,0.2c0,0,0.1,0,0.1-0.1v0l0,0c0,0,0,0,0-0.1 C134.8,114.4,134.8,114.4,134.7,114.4C134.8,114.4,134.7,114.4,134.7,114.4z"></path> <path d="M135.3,115.6C135.3,115.6,135.3,115.6,135.3,115.6C135.3,115.7,135.3,115.7,135.3,115.6 C135.4,115.7,135.4,115.7,135.3,115.6C135.3,115.7,135.3,115.6,135.3,115.6z"></path> <path d="M135.2,115.5C135.2,115.5,135.2,115.5,135.2,115.5c0-0.1,0-0.2,0-0.2v0c-0.1,0-0.2,0-0.2,0c0-0.1,0-0.2,0-0.2l-0.1,0.1 c0,0-0.1-0.1-0.1-0.1l0,0.2c0,0.1,0,0.2,0,0.2c0,0,0.1,0.1,0.1,0.1c0-0.1,0.2-0.1,0.2-0.1C135.1,115.5,135.1,115.5,135.2,115.5z"></path> <path d="M135.2,115.5C135.2,115.5,135.2,115.6,135.2,115.5C135.3,115.6,135.2,115.5,135.2,115.5z"></path> <path d="M139.7,114.6C139.6,114.6,139.6,114.6,139.7,114.6C139.6,114.7,139.6,114.7,139.7,114.6 C139.7,114.7,139.8,114.7,139.7,114.6l0.1,0.1C139.7,114.6,139.7,114.6,139.7,114.6z"></path> <path d="M140.6,113.3c0,0,0.1,0,0.1,0c0,0,0-0.1,0-0.1v0C140.7,113.3,140.6,113.3,140.6,113.3z"></path> <path d="M140.3,113.5C140.2,113.5,140.2,113.5,140.3,113.5c-0.1,0-0.1,0-0.1,0l0.1,0.2V113.5z"></path> <path d="M139.5,114.7C139.4,114.7,139.4,114.7,139.5,114.7c-0.1,0-0.1,0.1-0.1,0.1l0.2-0.1v-0.1 C139.5,114.7,139.5,114.7,139.5,114.7z"></path> <path d="M140.7,113.2V113h-0.1c0,0,0,0.1,0,0.1c0,0,0,0,0,0C140.7,113.1,140.7,113.1,140.7,113.2z"></path> <path d="M132.9,114.8c0,0,0,0,0-0.1C132.9,114.7,132.8,114.8,132.9,114.8c0,0.1,0,0.2,0.1,0.2c0,0,0,0.1,0,0.1c0,0,0.1,0,0.1,0 c0,0,0,0,0.1,0c0,0,0,0,0.1,0c0,0,0-0.1,0-0.2L132.9,114.8z"></path> <path d="M137.5,113c0,0.1-0.1,0.1-0.1,0.1h0.1C137.5,113,137.5,113.1,137.5,113z"></path> <path d="M138,113.7c0,0.1,0,0.1,0,0.2h0c0.1-0.1,0.1-0.1,0.2-0.2c0,0,0,0,0,0v-0.2c-0.1,0-0.1,0-0.2,0c0,0,0,0,0,0c0,0,0,0,0,0 V113.7C138,113.7,138,113.7,138,113.7z"></path> <path d="M140.3,113.2C140.3,113.1,140.3,113.1,140.3,113.2c0.1-0.1,0.1-0.1,0.1,0c0,0.1-0.1,0.1-0.1,0.1h0.2c0,0,0-0.1,0-0.1 c0,0.1,0,0.1,0,0.1h0c0,0.1-0.1,0.1-0.2,0.2c0.1,0,0.1,0.1,0.2,0.1c0.1-0.2,0.1-0.3,0.1-0.5c-0.1,0-0.1,0-0.1,0.1 c0-0.2,0-0.3,0-0.5c-0.1-0.1-0.2-0.3-0.3-0.4c-0.1-0.1-0.2-0.2-0.3-0.2c-0.1,0-0.1,0-0.1,0c0.1,0,0.3,0.2,0.3,0.2 c0.1,0.1,0.2,0.3,0.2,0.4c0.1,0.2,0,0.4-0.1,0.6c0.1,0,0.1,0,0.1,0S140.3,113.3,140.3,113.2z"></path> <path d="M139.7,113C139.7,113,139.7,113,139.7,113C139.6,113.1,139.6,113,139.7,113C139.6,113.1,139.7,113.1,139.7,113z"></path> <path d="M139.2,113.1C139.2,113.1,139.1,113.1,139.2,113.1c-0.1,0.2-0.1,0.2,0,0.2c0,0,0.1,0,0.1-0.1 C139.3,113.1,139.3,113.1,139.2,113.1z"></path> <path d="M135.2,113.2L135.2,113.2C135.3,113.3,135.3,113.3,135.2,113.2C135.2,113.2,135.2,113.2,135.2,113.2z"></path> <path d="M133.7,113.1V113c-0.1-0.1-0.1-0.1-0.1-0.1c-0.1-0.1-0.1-0.2-0.1-0.4c0,0.1,0,0.3,0,0.3 C133.6,112.9,133.7,113.1,133.7,113.1z"></path> <path d="M133.9,111.9c0,0-0.2,0-0.2,0.1C133.7,112,133.9,112,133.9,111.9z"></path> <path d="M136.1,116.6c0-0.1,0,0,0-0.1c0,0,0,0,0,0c-0.1,0-0.1,0-0.2,0c-0.1,0-0.2,0-0.2,0c-0.1,0-0.1,0-0.1,0h-0.3 c-0.1,0-0.2,0-0.2,0H135c0,0,0,0,0,0c-0.1,0-0.2,0-0.3,0h-0.2h-0.2c-0.2,0-0.3,0-0.4,0h-0.2c-0.1,0-0.1,0-0.1,0c-0.1,0-0.1,0-0.1,0 c0,0,0,0,0,0c0,0,0,0,0,0c0,0-0.1,0-0.1,0c0,0.1,0,0,0,0.1c0,0.1,0,0.1,0,0.1c0.1,0,0.1,0,0.1,0h0c0.1,0,0.1,0,0.1,0 c0.1,0,0.1,0,0.1,0h0.1h0.1c0,0,0.1,0,0.1,0v-0.1H136.1z"></path> <path d="M131.8,112.3C131.7,112.3,131.7,112.3,131.8,112.3c-0.2,0-0.4,0.2-0.4,0.2c-0.1,0.1-0.2,0.3-0.2,0.4h0.1 c0.1-0.1,0.2-0.2,0.2-0.3C131.6,112.5,131.7,112.3,131.8,112.3z"></path> <polygon points="132.9,116 133,116.1 133,116 "></polygon> <path d="M133.7,112c-0.1,0-0.1,0-0.1,0c-0.2,0.1-0.2,0.3-0.2,0.3l0.1-0.1c0,0.1,0,0.2,0,0.3c0-0.2,0.1-0.3,0.1-0.4 C133.7,112,133.7,112,133.7,112z"></path> <path d="M131.4,114.4c-0.1,0-0.1,0-0.1,0c0,0.1,0,0.2,0,0.2c0.2,0,0.2,0,0.2,0c0.1,0.1,0.1,0.2,0.1,0.2c0-0.1,0-0.2,0-0.2 c0-0.1,0-0.1,0-0.1C131.5,114.4,131.5,114.4,131.4,114.4L131.4,114.4z"></path> <path d="M134.7,111.9c0.1,0.1,0.2,0.1,0.3,0.1C134.9,111.9,134.8,111.9,134.7,111.9z"></path> <polygon points="144.4,120.9 144.3,120.9 144.2,121 144.2,121.1 144.3,121.1 144.3,121.3 144.4,121.3 "></polygon> <polygon points="144.5,120.8 144.4,120.7 144.4,120.8 "></polygon> <path d="M135.9,111.3c0,0-0.1,0-0.2-0.1l-0.1,0.1H135.9z"></path> <path d="M135.6,110.8l-0.1,0.1v0.1v0.2h0.2h0.5V111H136v-0.1h0.1c0-0.1,0-0.2,0-0.2c-0.1,0-0.1,0-0.1,0v-0.4h0.2v-0.2H136v-0.2 h-0.2v0.2h-0.2v0.2h0.2v0.7h-0.1v-0.3C135.6,110.8,135.6,110.8,135.6,110.8z"></path> <path d="M134,113c0.2-0.1,0.3-0.1,0.4-0.1h0.2h0.2c0.1,0,0.2,0,0.3,0c0-0.2,0-0.4,0-0.6c-0.1-0.1-0.2-0.1-0.3-0.1h-0.2 c-0.1,0-0.2,0-0.2,0c-0.2,0-0.3,0-0.4,0c0,0.1-0.2,0.1-0.2,0.1c-0.1,0.1-0.1,0.2-0.1,0.2c0,0.1,0,0.1,0,0.1s0,0,0,0.1 c0,0.1,0,0.1,0,0.1c0,0.1,0,0.1,0,0.1c0,0.1,0,0.1,0,0.1h0.1C134,113,134,113,134,113z"></path> <path d="M133.7,121.6v-0.4l-0.2,0.1c0-0.1,0-0.1,0-0.1c0,0,0,0-0.1,0c0,0,0,0,0,0c-0.1,0-0.1,0-0.1,0v0.4h-1.1v-0.7h0 c-0.1,0-0.1,0-0.1,0c-0.1,0-0.1,0-0.1,0c-0.1,0-0.1,0-0.1,0c-0.1,0-0.1,0-0.1,0c-0.2,0-0.3,0.2-0.4,0.2c-0.1,0.1-0.2,0.3-0.2,0.3 v0.9h0.1h2.5L133.7,121.6L133.7,121.6z"></path> <path d="M133.8,126.1c0-0.1,0-0.3,0-0.4v-3.3h-0.3v5.5c0.1,0,0.2,0,0.2,0c0.1,0,0.1,0,0.1,0v-1.4c0,0,0,0,0,0 C133.8,126.4,133.8,126.2,133.8,126.1z"></path> <path d="M131.4,113.9c0,0,0.1-0.2,0.1-0.3c0,0-0.1-0.1-0.1-0.1c0,0.1,0,0.2,0,0.2V113.9z"></path> <path d="M132.8,119.9C132.8,119.9,132.8,119.9,132.8,119.9L132.8,119.9C132.8,119.9,132.8,119.9,132.8,119.9z"></path> <path d="M136.7,127.7c0-0.1,0-0.2-0.1-0.3c0,0,0,0-0.1-0.1c0,0,0,0,0-0.1h-0.1c0,0,0,0,0,0.1c0,0,0,0-0.1,0.1c0,0,0,0,0,0.1 c0,0.1,0,0,0,0.1c0,0,0,0,0.1,0.1c0,0,0.1,0,0.2,0C136.6,127.7,136.6,127.7,136.7,127.7z"></path> <path d="M131.8,119.9C131.9,119.9,131.9,119.9,131.8,119.9c0.2,0,0.2,0,0.2,0c0.1,0,0.1,0,0.1,0c0.1,0,0.1,0,0.1,0h0.3 c0,0,0.1,0,0.1,0v-0.5h-0.2v-0.7h0.3v-0.4h-0.1v-0.4h0.2h0.1h0.2h0.2v0.4h-0.1v0.4h0.2v-0.9h-0.1v-0.4c0,0,0.2,0,0.2,0.1 c0,0,0.1,0,0.1-0.1c0,0,0.2,0,0.2,0.1c0,0,0,0,0-0.1h0.1v-0.5h-2.7v3.3c0.1-0.1,0.1-0.1,0.2-0.1C131.5,120,131.7,119.9,131.8,119.9 z"></path> <path d="M132.8,112.4c-0.1,0-0.2,0-0.2,0c-0.1,0-0.2,0-0.2,0c-0.1,0-0.2,0-0.2,0c-0.1,0-0.1,0-0.1,0c-0.1,0-0.2,0.2-0.2,0.2 c-0.1,0.2-0.1,0.5,0,0.7c0.1-0.1,0.2-0.2,0.3-0.2c0.1,0,0.1,0,0.1,0c0.1,0,0.2,0,0.2,0c0.1,0,0.2,0,0.2,0c0.1,0,0.3,0,0.4,0 c0.1,0,0.1,0,0.1,0c0.1,0,0.1,0,0.1,0c0,0,0-0.1,0-0.1c0,0,0,0,0-0.1c0-0.1,0-0.1,0-0.1c0-0.1,0,0,0-0.1c0-0.1,0-0.1,0-0.1 s0,0,0-0.1c0,0,0-0.1,0-0.1c-0.1,0-0.1,0-0.1,0C133.1,112.4,132.9,112.4,132.8,112.4z"></path> <path d="M131.4,113.4c0-0.2,0-0.3,0-0.5h-0.1C131.3,113.1,131.3,113.3,131.4,113.4C131.4,113.5,131.4,113.4,131.4,113.4z"></path> <path d="M133.2,112.3L133.2,112.3C133.3,112.4,133.3,112.3,133.2,112.3C133.2,112.3,133.2,112.3,133.2,112.3z"></path> <path d="M142.8,121h0.2c0,0,0,0,0.1,0c0,0,0.1,0,0.2,0.1c0.1,0,0.2,0.2,0.2,0.3l0.3-0.6c0,0,0,0,0-0.1c0-0.1,0-0.1,0-0.2h0l0,0 c0,0,0,0,0-0.1h-0.1c-0.1,0-0.2,0-0.3,0c-0.2,0-0.4,0-0.6,0c0,0-0.1,0-0.2,0V118h0.7h0.1h0.2v-0.1l0.3-0.2h0.2v-0.2h-1.5V117h0.3 h0.3h0.9v0h-2.1v0h-1v5.4l-0.3-0.1h-3.1c0-0.1,0-0.2,0-0.3c0-0.1,0-0.3-0.1-0.4c0,0,0-0.2-0.1-0.2c0,0.1,0,0.3,0.1,0.4 c0,0,0,0.2,0,0.3c0,0.1,0,0.2,0,0.3v0.2c0,0.2,0,0.3-0.1,0.4h0.2c0,0.1,0,0.1,0,0.1l0.1,0.1c0,0,0,0,0-0.1c0-0.1,0-0.2,0-0.3h3.1 v3.2l-0.1-0.3c0,0.1,0,0.2,0,0.3c0,0.3,0,0.5-0.2,0.8v0.1c0,0.1-0.2,0.3-0.3,0.4c0,0,0,0,0,0.1c0,0,0,0-0.1,0.1c0,0-0.1,0-0.2,0.1 c0,0,0,0-0.1,0c0,0-0.2,0-0.3,0c0,0-0.1,0-0.2,0c0,0,0,0-0.1,0c0,0,0,0-0.1,0c0,0-0.1,0-0.2,0c0,0,0,0-0.1,0c-0.1,0-0.2,0-0.3,0 c0,0,0,0-0.1,0c0,0,0,0-0.1,0c0,0,0,0,0,0c0,0,0,0-0.1,0c0,0-0.1,0-0.2-0.1c0,0,0,0-0.1-0.1c0,0-0.1-0.1-0.1-0.1c0,0,0,0,0,0 c0,0,0,0,0,0c-0.1-0.1-0.1-0.2-0.2-0.3c0-0.1-0.1-0.2-0.2-0.3c0,0,0,0,0-0.1h-0.1l-0.3-0.3c0,0,0,0,0-0.1c0,0,0-0.1,0-0.2 c0,0,0,0,0-0.1c0,0,0-0.1,0-0.2v-0.3c0,0,0.1,0,0.1-0.1h0.2v-0.8c0,0.1-0.3,0.1-0.3,0.1s0-0.1-0.1-0.1v-0.3l0,0l0,0v-0.1v-0.4 c0,0,0.1-0.1,0.2-0.2l0.2,0.2v0.1l0.1,0.3l0.1,0.1h0.1c0,0.1,0,0.1,0,0.1l0.3,0.3h-0.2v-0.1h-0.1v0.3c0,0-0.1,0-0.1,0.1h0.2 c0,0.1,0,0.1,0,0.1h-0.3v0c0,0.1,0,0.2,0.2,0.2v0.3h0.2h0.2v0.1l-0.2,0.3l-0.1,0.2h0c0,0,0,0,0,0.1c0,0,0,0,0,0.1l0,0h0.1 c0-0.1,0-0.2,0-0.2l0.2-0.3l0.1-0.2v0.6v0.4v0.5h0.1l0.1,0.1c0,0,0.1,0,0.2,0c0,0,0,0,0.1,0.1c0,0,0,0,0-0.1c0,0,0,0,0.1,0 c0,0.1,0,0.1,0,0.1l0.3-0.2c0,0,0,0-0.1,0c0,0,0,0,0-0.1v-0.6V126v-0.7h0.1h0.4h0.1c0,0,0-0.1,0-0.1c0-0.1,0-0.2-0.1-0.2v-0.4v-0.1 H139v-0.1l0.1-0.2h0.1l0.1-0.1v-0.3h0.1l0-0.1c0,0,0-0.1,0-0.1c0,0,0,0,0,0c0,0,0,0.1-0.1,0.1l-0.1-0.3h-0.3c0-0.1,0-0.1,0-0.1 h-0.4h-0.3c0,0,0,0,0-0.1c0,0,0,0-0.1,0.1h-0.3c0-0.1,0-0.1,0-0.1h-0.2l0,0v0h-0.3c0,0,0,0,0-0.1c0,0,0,0,0-0.1 c0,0.1-0.1,0.2-0.2,0.3c0,0-0.1,0.2-0.2,0.2c0,0,0,0-0.1,0.1c-0.1,0-0.2,0.1-0.3,0.2c0,0-0.1,0-0.2,0c0,0,0,0-0.1,0c0,0,0,0-0.1,0 c-0.1,0-0.1,0-0.2,0c-0.1,0-0.1,0-0.2,0c0,0,0,0-0.1,0c-0.1,0-0.2-0.1-0.3-0.2c0,0-0.2-0.2-0.2-0.3c0,0,0,0,0-0.1 c-0.1-0.2-0.2-0.3-0.2-0.5s0-0.4,0-0.5c0-0.1,0-0.4,0-0.5c0-0.2,0.1-0.4,0.2-0.5c0,0,0,0,0-0.1c0,0,0.2-0.2,0.2-0.3 c0.1,0,0.2-0.2,0.3-0.2c0,0,0,0,0.1,0c0,0,0.1,0,0.2,0c0,0,0.1,0,0.2,0s0,0,0.1,0V117h3.6c0.1,0.2,0.1,0.3,0.1,0.4v0.2c0,0,0,0,0,0 h0c0,0.1,0,0.2,0,0.2c0,0.1,0,0.2,0,0.2l0.1-1h0.3c0.1,0,0.2-0.1,0.2-0.2c0-0.1,0-0.1-0.1-0.2c0-0.1,0-0.2,0-0.2h0.1l-0.1-0.2 c0-0.1,0,0,0.1,0c0,0,0.1,0,0.1-0.1c0,0,0.1,0,0.2,0c0,0,0.1,0,0.2-0.1c0,0,0,0,0,0c0,0,0,0,0.1-0.1c0,0,0,0,0.1-0.1 c0,0,0-0.1,0-0.2v-0.1c0,0,0.2-0.1,0.3-0.1c0,0,0,0,0.1,0v-0.2c0,0,0.1,0,0.1-0.1c0-0.1,0-0.1-0.1-0.1c0,0,0,0-0.1,0 c0,0,0-0.1,0.1-0.2c0,0,0,0.1,0.1,0.1c0,0,0.1,0,0.1-0.1c0-0.1,0-0.1-0.1-0.1c0,0,0,0-0.1,0c0,0,0,0,0-0.1c0,0,0.1,0,0.1-0.1 c0-0.1,0-0.1-0.1-0.1v-0.2c0,0,0.1,0,0.1-0.1c0-0.1,0-0.1-0.1-0.1v-0.1c0,0,0,0,0.1,0c0.1,0,0.1,0,0.1-0.1c0-0.1,0-0.1-0.1-0.1 c-0.1,0-0.1,0-0.1,0.1c0,0,0-0.1,0-0.2c0,0,0.1,0,0.1-0.1c0-0.1,0-0.1-0.1-0.1c-0.1,0-0.1,0-0.1,0.1c0,0,0,0-0.1-0.1c0,0,0,0,0-0.1 c0-0.1,0-0.1,0-0.1s-0.1,0-0.1,0.1c0,0,0,0-0.1-0.1c0,0,0.1,0,0.1-0.1c0-0.1,0-0.1-0.1-0.1c-0.1,0-0.1,0-0.1,0.1c0,0,0,0-0.1,0 c0,0,0,0-0.1,0c0,0-0.1,0-0.1,0.1c0,0.1,0,0,0,0.1c0,0,0,0-0.1,0c0,0.1,0,0.2,0,0.3c0,0.1,0,0.3-0.2,0.4c0.1,0,0.2,0.2,0.2,0.2 s0,0-0.1,0c0,0,0,0,0-0.1c0,0-0.1,0-0.2,0.1c0,0,0,0.1,0,0.2c0,0,0,0,0.1-0.1c0,0,0,0,0,0.1h0.1c0,0,0,0,0.1,0c0,0,0,0,0.1,0 c0,0,0,0.1,0,0.2l-0.1-0.1c0,0-0.1,0-0.2,0c0,0,0,0.1-0.1,0.2c0,0,0-0.1,0-0.2c0,0,0,0,0-0.1c0,0,0,0-0.1-0.1c0,0-0.1,0-0.2,0 c0,0,0,0.1,0,0.2H140h-0.2c0,0.1,0.1,0.2,0.2,0.3c0,0,0,0,0,0.1c0,0,0,0,0.1,0h0c0,0.1,0,0.1,0,0.1l0.1,0.1c0,0,0,0,0,0 c0-0.1,0-0.1,0-0.1c0,0,0.1,0,0.1,0c0,0,0.1,0,0.2,0c0,0-0.1,0-0.2,0.1c0,0,0,0-0.1,0c0,0,0,0,0,0.1l0,0c0,0,0,0-0.1,0 c0,0,0,0-0.2,0c-0.1,0-0.2,0-0.2-0.2c0,0,0,0,0.1-0.2l-0.2,0.1v0.1c0,0,0,0-0.1,0c0,0,0,0-0.1-0.1l-0.2,0.1c0-0.1,0-0.2,0-0.2 s-0.1,0-0.1,0.2c0,0,0,0.1,0,0.2c0,0,0,0-0.1,0c0,0-0.1,0-0.2-0.1c0-0.1,0-0.2,0-0.4c0,0,0.1,0,0.2,0.1c0,0,0,0,0.1,0 c0,0,0,0,0.1,0c0,0,0.1,0,0.2,0c0,0-0.1-0.1-0.2-0.2c0,0,0-0.1,0-0.2c0,0,0,0-0.1,0c0,0,0,0,0-0.1c0,0,0-0.1,0.1-0.2c0,0,0,0-0.1,0 v-0.2c0,0,0,0,0-0.1c0-0.1,0,0,0-0.1c0,0,0,0,0-0.1c0,0,0,0,0.1,0c0,0,0,0,0.1,0c0,0,0.1,0,0.2,0c0.1,0,0.3,0,0.4,0c0,0,0,0,0.1,0 c0,0,0.1,0,0.2,0l-0.1-0.1c0,0,0.1-0.1,0.1-0.1c0,0,0,0-0.1,0c0,0,0,0,0-0.1c0-0.1,0,0,0-0.1c0,0,0,0,0,0c0,0,0,0.1-0.1,0.1 c0,0-0.1-0.1-0.2-0.1c0,0,0,0,0,0c0,0-0.1,0-0.2,0c0,0,0,0-0.1,0c0,0,0,0-0.1,0c0,0-0.1,0-0.1,0.1c0,0.1,0,0.1,0.1,0.1 c0,0,0,0-0.1,0c0,0,0,0-0.1,0c0,0,0,0-0.1,0c0,0,0,0,0-0.1c0,0-0.1,0-0.1,0.1c0,0.1,0,0.1,0.1,0.1h-0.2c0,0,0,0,0-0.1 c0-0.1,0-0.1-0.1-0.1c0-0.1,0.1-0.1,0.1-0.2c0,0-0.1,0-0.1,0c0,0,0,0-0.1,0c0,0,0,0,0,0c0,0,0,0-0.1,0h-0.1c0,0,0,0,0-0.1 c0,0,0-0.1,0-0.1c0-0.1,0-0.1,0-0.1s0,0,0-0.1c0-0.1,0,0,0-0.1c0,0,0,0,0-0.1c0-0.1,0-0.1,0-0.1v-0.1c0,0,0,0,0.1,0c0,0,0,0,0,0 c0,0,0,0,0.1,0c0,0,0,0,0.1,0V112h-0.2v-0.2h-0.3v0.2h-0.2v0.3h0.2v0.2h-0.1c0,0.1,0,0.1,0,0.1s0,0,0,0.1c0,0.2,0,0.3,0,0.5 c0,0-0.1-0.1-0.2-0.1c0,0,0,0,0,0s0,0-0.1,0c0,0,0,0.1,0,0.1c0,0,0,0-0.1,0c0,0-0.1,0-0.2,0c0,0,0,0.1,0.2,0.2c0,0,0,0,0.1,0 c0,0,0,0,0,0.1c0,0,0,0,0.1,0c0,0,0,0,0.1-0.1l0.1,0.1c0,0,0.1,0,0.1,0c0,0.1,0,0.2-0.1,0.2c0,0,0,0,0,0c0,0,0,0,0,0.1 c0,0-0.1,0.2-0.2,0.2c0,0,0,0,0-0.1c0,0,0,0-0.1,0c0,0-0.1,0-0.2-0.1c0,0,0,0,0-0.1l-0.6,0.9c0,0,0,0.1,0,0.1c0,0,0,0,0,0.1h-0.2 c0,0-0.2,0-0.2-0.1c0,0,0-0.1-0.1-0.2c0,0,0-0.1,0-0.2c0,0,0,0,0.1,0c0,0,0.1,0,0.2,0c0,0,0.2,0,0.3,0c0,0,0-0.1,0-0.2 c0,0,0,0,0.1-0.1c0,0,0,0-0.1-0.1c0,0,0-0.1,0-0.2c-0.1,0-0.2,0-0.3,0c0,0-0.1,0-0.2,0c0-0.2,0.1-0.3,0.1-0.5c0,0,0,0-0.1,0 l0.1-0.1h0c0,0,0,0,0-0.1c0,0,0,0-0.1,0c0,0-0.1,0-0.1,0c0,0,0,0.1,0,0.1c0,0,0,0,0,0c0,0,0,0-0.1,0h-0.3H136c0,0,0,0,0-0.1 c0,0,0-0.1-0.1-0.1c0,0.1,0,0.1,0,0.2c0,0,0,0,0,0.1l-0.1,0.1c0,0,0,0.1,0.1,0.2v0.2c0,0,0,0.2-0.1,0.2c0,0,0,0-0.1,0 c0,0,0,0-0.1,0c0-0.1-0.1-0.3-0.2-0.4h0.1l0.2,0.1v-0.1c0,0,0-0.1,0-0.1l0,0l0.1-0.2c0-0.1,0-0.1,0-0.2c0,0.1,0,0.1,0.1,0.1 c0,0,0,0,0,0c0,0,0,0-0.1-0.1c0,0,0,0,0,0c0,0,0,0,0,0c0,0,0,0,0,0c0,0-0.1,0.1-0.1,0.2c0,0,0,0,0-0.1c0,0,0,0,0,0c0,0,0,0,0-0.1 c0-0.1,0-0.1-0.1-0.1c-0.1,0-0.1,0-0.1,0.1c0,0.1,0,0.1,0.1,0.1h-0.2c0,0,0,0-0.1,0c0,0,0,0.1,0,0.1l0.1,0.2l-0.1-0.1 c0,0.1,0,0.2-0.1,0.3h0.1c0,0.1,0,0.2,0,0.2h0.1c0,0.1,0,0.1,0,0.1s0,0-0.1,0c0,0,0,0.1,0,0.1c0,0,0.1,0,0.2,0c0,0,0,0,0.1,0 c0,0,0,0,0.1,0c0,0,0,0,0,0.1c0,0.1,0,0,0,0.1c0,0,0,0-0.1,0c0,0,0,0-0.1,0c0,0-0.1,0-0.1,0c0,0,0,0.1,0,0.1c0,0,0,0.1,0,0.2 c0,0,0,0-0.1,0c0,0-0.2,0-0.3,0c0,0,0,0.1,0,0.2c0,0,0,0-0.1,0h0v0c0,0,0,0,0,0l0,0c0,0-0.1,0-0.1,0c0,0,0,0,0,0c0,0,0-0.1,0-0.1v0 l0,0c-0.1,0-0.1,0-0.1-0.1c0-0.1,0-0.1,0.1-0.1c0-0.1,0-0.1,0-0.1c0.1,0,0.1,0,0.1,0.1c0,0,0,0,0,0v-0.1c-0.1,0-0.1,0-0.1-0.1 c0-0.1,0.1-0.1,0.1-0.1v-0.2c-0.1,0-0.1,0-0.1-0.1c0-0.1,0.1-0.1,0.1-0.1v-0.1c0,0,0,0-0.1,0c-0.1,0-0.1,0-0.1-0.1 c0-0.1,0-0.1,0.1-0.1c0.1,0,0.1,0.1,0.1,0.1c0-0.1,0-0.2,0-0.2c-0.1,0-0.1,0-0.1-0.1h-0.2c-0.1,0.1-0.3,0.1-0.4,0.1 c-0.1,0-0.1,0-0.1,0c-0.1,0-0.1,0-0.1,0s0,0.2,0,0.3c0,0.1,0,0.1,0,0.1c0,0.2,0,0.3,0,0.5c0-0.1,0.1-0.1,0.1-0.1 c-0.1,0.1-0.1,0.1-0.1,0.1c0,0.1,0,0.1,0,0.1h0.2h0.2v0c0.1,0,0.2,0,0.2,0c0.2,0,0.2,0,0.2,0c-0.1,0.1-0.2,0.2-0.2,0.2 c-0.1,0-0.1,0-0.1,0v0.1c-0.1,0-0.2,0-0.3,0H134c0,0.1,0.1,0.1,0.1,0.2c0.1,0,0.2,0,0.2,0h0.2c0,0,0,0,0-0.1 c0.1,0.1,0.1,0.1,0.1,0.1c0,0,0,0.1,0,0.1c0,0,0,0,0.1,0c0,0,0,0,0,0v0c0,0,0,0,0,0c0,0,0,0,0,0c0,0,0,0,0,0.1c0,0,0.1,0.1,0.1,0.1 l0-0.1c0,0,0,0,0,0v0.2c0,0,0,0,0,0c0,0,0,0,0.1,0v0c0.1,0,0.1,0,0.1,0s0.1,0.1,0.1,0.2c0,0,0.1,0,0.1,0c0,0,0,0,0.1,0 c0,0,0.1,0,0.2,0v0.2h0c0,0,0,0-0.1,0c0,0,0,0,0,0.1c0,0.1,0,0,0,0.1c0,0-0.1,0-0.1,0h0c0,0,0,0,0,0h-0.1v0c0,0-0.2,0-0.3,0 c0,0,0,0-0.1-0.1c0,0,0,0,0,0.1c-0.1,0-0.1,0-0.2,0c0,0,0-0.1,0-0.1c0,0,0-0.2-0.2-0.1h-0.4c0,0-0.2,0-0.1,0.2c-0.1,0-0.2,0-0.2,0 h-0.2h0c0,0-0.1,0-0.1,0c-0.1,0-0.1,0-0.1,0h-0.2c-0.1,0-0.1,0-0.1,0c-0.1,0-0.1,0-0.1,0c-0.1,0-0.1,0-0.1,0c-0.1,0-0.1,0-0.1,0 c-0.1,0-0.2,0-0.2,0l0,0.1h0.1h0.1c0.1,0,0.1,0,0.1,0c0.1,0,0.2,0,0.2,0c0.1,0,0.1,0,0.1,0h0.2c0.1,0,0.3,0,0.3,0 c0.1,0,0.1,0,0.1,0c0.1,0,0.1,0,0.1,0c0,0,0.1,0,0.1,0h0c0,0,0.1,0,0.2,0h0.2v0.1v0.1c0.1,0,0.1,0,0.1,0c0.1,0,0.2,0,0.2,0 c0.1,0,0.1,0,0.1,0h0.2c0.1,0,0.3,0,0.4,0h0.2h0.2c0,0,0.1,0,0.1,0c0,0,0-0.1,0-0.1c-0.1,0-0.2,0-0.2,0c-0.1,0-0.2-0.1-0.2-0.1 c0,0,0,0,0,0c0.1,0,0.1,0,0.1,0c0.1,0,0.2,0,0.2,0c0.1,0,0.2,0,0.2,0c0.1,0,0.1,0,0.1,0c0.1,0,0.1,0,0.1,0c0.1,0,0.2,0,0.3,0 c0.1,0,0.1,0,0.1,0c0.1,0,0.1,0,0.1,0c0,0,0,0,0,0c0,0,0-0.1,0-0.1h0c0,0,0.1,0,0.1,0c0,0.1,0,0.1,0,0.1h0c0.1,0,0.2,0,0.2,0 c0.1,0,0.1,0,0.1,0c0.1,0,0.1,0,0.1,0c0.1-0.1,0-0.1,0-0.1c0,0,0.1,0,0.1,0c0,0,0,0,0.1,0c0,0,0.1,0,0.1,0c0,0,0,0,0.1,0 c0,0,0,0,0.1,0c0.1,0,0.2,0,0.3,0c0,0,0,0,0.1,0c0,0,0.1,0,0.2,0c0,0,0,0,0,0.1c0,0.1,0,0,0,0.1c0,0,0,0,0.1,0c0,0,0,0,0-0.1 c0-0.1,0,0,0-0.1c0,0,0,0,0.1,0c0,0,0.1,0,0.2,0l0.3,0.1h-0.3v0.1v0.1c0,0,0,0-0.1,0c0,0-0.1,0-0.2,0c0,0,0,0-0.1,0 c-0.1,0-0.2,0-0.3,0c0,0,0,0-0.1,0c0,0,0,0-0.1,0c0,0-0.1,0-0.2,0c0,0-0.1,0-0.2,0c0,0,0,0-0.1,0c-0.1,0-0.2,0-0.3,0 c0,0-0.1,0-0.2,0h-0.6c0,0,0,0-0.1,0c0,0,0,0,0,0c0,0.1-0.1,0.3-0.1,0.3h0.1v0.1c0,0,0,0,0,0.1c0,0,0.1,0,0.1,0c0,0,0,0,0.1,0 c0,0,0.1,0,0.2,0c0,0,0.1,0,0.2,0c0,0,0,0,0.1,0c0,0,0,0,0.1,0c0.1,0,0.2,0,0.3,0c0,0,0,0,0.1,0c0,0,0.1,0,0.2,0c0,0,0,0,0.1,0 c0,0,0,0,0.1,0c0,0,0,0,0,0.1c0,0.1,0,0,0,0.1c0,0,0,0-0.1,0c0,0,0,0-0.1,0c0,0,0,0,0,0c0,0,0,0-0.1,0c0,0-0.1,0-0.1,0 c0,0,0,0-0.1,0h-0.1h0H137h-0.1h0h-0.1h-0.1h-0.1h0h0h-0.1h-0.1h0h-0.2h-0.1h0h0H136h-0.1c0,0-0.1,0-0.1,0h-0.1h-0.1c0,0,0,0-0.1,0 h-0.1h-0.1h-0.1c0,0,0,0-0.1,0c0,0-0.1,0-0.1,0h-0.1c0,0-0.1,0-0.1,0c-0.1,0-0.1,0-0.2,0h0h-0.1h-0.1h-0.2c0,0-0.1,0-0.2,0 c0,0-0.1,0-0.1,0c0,0,0,0,0,0v0.2h2v3.6c0,0,0,0-0.1,0c0,0-0.1,0-0.2,0c0,0,0,0-0.1,0c-0.1,0-0.2,0.1-0.3,0.2c0,0-0.1,0-0.1,0.1 h-0.4v-1.4h0.2v-0.7h-0.3v-0.4h0.1v-0.4h-0.2h-0.2h-0.1H134v0.4h0.1v0.4h-0.2v-0.9h0.1v-0.4h-0.1v2.6c0,0-0.1,0-0.2,0 c-0.3,0-0.6-0.1-0.9-0.1l0.3,0.1v0.3h-0.3V120c0,0,0,0,0-0.1c0,0-0.1,0-0.1,0c0,0,0,0-0.1,0v0.9h-0.4v0.1c0,0,0,0,0.1,0h0.1 c0,0,0.1,0,0.2,0c0.3,0,0.7,0,1,0.2c0,0,0.1,0,0.2,0v0.5h0.7c0,0.2-0.1,0.4-0.1,0.7h-0.6v0.1h0v4.1c0,0.2,0.1,0.4,0.2,0.5 c0,0.2,0.2,0.3,0.3,0.4c0,0,0,0,0.1,0c0,0,0.1,0.1,0.2,0.2c0,0,0.1,0,0.2,0.1c0,0,0.1,0,0.2,0.1c0.1,0,0.2,0.1,0.3,0.1 c0,0,0.1,0,0.1,0c0,0,0.1,0,0.2,0c0,0,0-0.1,0-0.2c0,0,0,0,0.2-0.1c0,0,0,0,0.1,0c0,0,0,0,0,0c0,0,0.1-0.1,0.1-0.1c0,0,0,0.1,0,0.1 c0,0,0,0.1,0,0.1c0,0,0,0,0,0h-0.1c0,0,0,0,0,0.1c0,0,0,0,0.1,0c0,0,0,0,0.1,0c0,0,0,0.1,0.1,0.1c0,0,0,0,0,0c0,0,0,0,0,0 c0,0,0,0,0,0c0,0,0,0,0,0c0,0,0.1,0,0.1,0c0,0-0.1,0-0.1,0c0,0,0,0,0,0c0,0,0,0,0,0c0,0-0.1-0.1-0.1-0.1c0,0,0-0.1,0-0.1 c0,0-0.1,0-0.1,0c0,0,0,0,0,0c0,0-0.1-0.1-0.1-0.1h0.1c0,0,0,0,0-0.1c0,0-0.1,0.1-0.1,0.1c0,0.1-0.2,0.2-0.2,0.2c0,0,0,0.1,0,0.1 c0,0,0,0,0,0c-0.1,0-0.1,0-0.1,0c-0.1,0-0.1,0-0.1,0c0,0-0.1,0-0.1-0.1c-0.1,0-0.2,0.1-0.3,0.1c0.1,0.1,0.3,0.1,0.4,0.1h0.1 c0.1,0,0.1,0,0.1,0h0.1h0.1c0,0,0.1,0,0.1,0l-0.2,0.5c0.1,0,0.1,0,0.1,0c0.1,0,0.1,0,0.1,0c0.1-0.1,0.2-0.2,0.2-0.2 c0-0.1,0-0.3,0-0.3c0.1,0,0.1,0,0.1,0c0,0,0.1,0,0.1,0c0,0.1,0,0.2,0,0.2c0.1-0.1,0.2-0.2,0.2-0.2c0.1,0,0.1,0,0.1,0h0.1 c0.1,0,0.1,0,0.1,0c0,0,0.1,0,0.1,0c0.1,0,0.1,0,0.1,0c0.1,0,0.2,0,0.3,0c0.1,0,0.1,0,0.1,0c0.1,0,0.2,0,0.2,0c0.1,0,0.2,0,0.2,0 c0.1,0,0.1,0,0.1,0c0.1,0,0.1,0,0.1,0c0.1,0,0.2,0,0.3,0c0.1,0,0.1,0,0.1,0c0.1,0,0.2,0,0.2,0c0.1,0,0.1,0,0.1,0l-0.1-0.1 c-0.1,0-0.1,0-0.1,0c-0.1,0-0.1,0-0.1,0c-0.1,0-0.2,0-0.3,0c-0.1,0-0.2,0-0.2,0h-0.4c-0.1,0-0.2,0-0.2,0c0,0,0.1,0,0.2-0.1 c0,0-0.1,0-0.2,0l-0.2,0.1c-0.1,0-0.1,0-0.2,0h0h-0.2h0h-0.1h0c0,0,0,0,0,0c0,0,0.1-0.1,0.1-0.2c0,0-0.1,0-0.1,0c0,0-0.1,0-0.2-0.1 c0,0,0,0-0.1,0c-0.1,0-0.1,0-0.2,0c0,0,0-0.1,0-0.1c0-0.1,0-0.1,0-0.2c0,0,0,0,0.1-0.1c0,0,0.1-0.2,0.2-0.3c0-0.2,0.1-0.3,0.2-0.5 c0,0.1,0,0.3,0.1,0.4c0,0,0,0.2,0.1,0.2c0,0.1,0.1,0.2,0.2,0.3c0,0.1,0.2,0.2,0.3,0.3c0,0,0,0,0.1,0c0,0,0.1,0,0.2,0.1 c0,0,0,0,0.1,0c0,0,0,0,0.1,0c0.1,0,0.2,0,0.3,0c0,0,0,0,0.1,0h0.2c0,0,0,0,0.1,0l0.1,0.2c0,0,0,0,0.1,0c0,0,0.1,0,0.2,0 c0,0,0,0,0.1,0c0,0,0,0,0.1,0c0.1,0,0.2,0,0.3,0c0,0,0,0,0.1,0c0,0,0.1,0,0.2,0c0,0,0,0,0.1,0c0,0,0,0,0.1,0c0,0,0.1,0,0.2,0 s0.3-0.1,0.4-0.2c0,0,0.1,0,0.2-0.1c0,0,0.1,0,0.2-0.1c0,0,0,0,0.1-0.1c0.1-0.1,0.2-0.2,0.3-0.3c0.1-0.2,0.2-0.4,0.3-0.6 c0-0.3,0.1-0.6,0.1-0.9v-4.6c0,0,0.1,0,0.2,0c0.2,0,0.4,0,0.6-0.1C142.6,121,142.7,121,142.8,121z M139.2,124.9c0,0.1,0,0.1,0,0.1 h-0.3c0-0.1,0-0.1,0-0.1H139.2z M139,123.7c0,0.1,0,0.1,0,0.1h0.2L139,124l-0.2,0.2c0,0.1,0,0.1,0,0.2v0.2v0.1l-0.1,0.2v-0.5V124 v-0.2c0,0,0,0,0-0.1H139z M137.9,123.4h0.3h0.1h0.3c0,0,0,0,0.1,0.1l-0.5-0.1v0.2v0.4v0.2l-0.2-0.3l-0.1-0.2h-0.1 C137.8,123.5,137.8,123.5,137.9,123.4z M135.1,115.9c-0.2,0-0.2,0-0.2-0.1h0.1C135.1,115.8,135.1,115.8,135.1,115.9L135.1,115.9 c0.1-0.1,0.2-0.1,0.2-0.1C135.3,115.9,135.2,115.9,135.1,115.9z M135.9,114.1C135.9,114.1,135.9,114.1,135.9,114.1 C136,114.1,136,114.1,135.9,114.1C136,114.1,136,114.1,135.9,114.1C136,114.2,136,114.2,135.9,114.1c0,0.1-0.1,0.1-0.1,0 C135.7,114.1,135.8,114.1,135.9,114.1z M135,114.9c0.1,0,0.2-0.1,0.3-0.2v0C135.3,114.8,135.1,114.9,135,114.9z M136,115.1 L136,115.1C135.9,115,135.9,115,136,115.1c-0.1-0.1-0.1-0.1-0.1-0.1c-0.1,0.1-0.2,0.1-0.2,0.1c0,0,0,0,0,0c0,0,0,0-0.1,0 c0,0,0-0.1-0.1-0.2c0,0,0,0-0.1,0c0,0,0,0-0.1,0c0,0,0,0,0-0.1c0,0,0,0,0.1,0c0,0,0,0,0.1,0v0.1c0,0,0,0,0.1,0.1c0,0,0,0,0.1,0 c0,0,0.1,0,0.2,0c0,0,0,0,0,0L136,115.1C135.9,115,135.9,115,136,115.1c0-0.1,0-0.1,0.1-0.1C136.1,115,136.1,115,136,115.1z M136.5,114.1C136.5,114.2,136.5,114.2,136.5,114.1c0,0.1-0.1,0.1-0.2,0.1c0,0-0.1,0-0.2,0c0,0,0,0,0-0.1c0-0.1,0,0,0-0.1 c0,0,0.1,0,0.2,0c0,0,0.1,0,0.2,0C136.5,114,136.5,114.1,136.5,114.1z M137,115.1C137,115.1,137,115.1,137,115.1 c-0.1,0-0.1,0,0-0.1c0,0,0,0,0.1,0.1C137.1,115.1,137.1,115.1,137,115.1z M137.8,114l0.1,0.2c0,0,0,0-0.1,0 C137.8,114.2,137.8,114.1,137.8,114z M137.7,114.4C137.7,114.4,137.7,114.4,137.7,114.4c0.1-0.1,0.1-0.1,0.2,0 C137.8,114.4,137.8,114.4,137.7,114.4z M138,114.6C138,114.6,138,114.6,138,114.6l-0.1-0.2c0,0,0.1,0.1,0.1,0.1 C138,114.5,138,114.5,138,114.6z M138.6,114.4c0,0,0,0,0,0.1c0,0,0,0-0.1,0c0,0-0.1,0-0.2-0.1c0,0,0,0,0-0.1c0,0,0,0,0-0.1 c0,0,0,0,0.1,0c0,0,0,0,0.1,0l0.2,0.1c0,0,0,0,0.1,0.1c0,0,0,0-0.1,0C138.7,114.4,138.7,114.4,138.6,114.4z M138.9,115.9h0.2v0.1 L138.9,115.9L138.9,115.9z M134.3,120.3H134V120c0,0,0-0.1,0.1-0.1c0.1,0,0.1,0,0.1,0.1h0.1V120.3z M135,123.5l-0.1,0.3v3.8 c0,0,0,0-0.1,0c0,0-0.1,0-0.2,0v-5.2c0,0.2,0,0.4,0.2,0.6c0,0.1,0.2,0.3,0.2,0.4C135,123.4,135,123.4,135,123.5z M135.9,124.3v1.6 c0,0.2,0,0.4-0.1,0.7c0,0.1,0,0.2-0.2,0.3c0,0,0,0.1-0.1,0.2v-2.9c0,0,0,0,0.1,0c0,0,0.1,0,0.2,0c0,0,0,0,0.1,0V124.3z M141.8,120.1v0.6c-0.1,0-0.1,0-0.1,0h-0.2l-0.3-0.6h0.2v0.2c0.1,0,0.2,0.2,0.2,0.2V120c0.1,0,0.1,0,0.1,0h0.1V120.1z M142.1,120.8 L142.1,120.8l-0.1-0.6h0.2v0.2v0.3h0.2l0,0.1H142.1z"></path> <path d="M136.8,127.7C136.7,127.7,136.7,127.7,136.8,127.7c-0.1,0-0.1,0.1-0.1,0.1c0.1,0,0.1,0,0.1,0 C136.8,127.7,136.8,127.7,136.8,127.7z"></path> <path d="M138.6,112.3v0.2c0.1,0,0.1,0,0.1,0c0.2,0.1,0.2,0.2,0.2,0.4c0,0,0,0.1,0,0.1c0.1,0,0.1,0,0.1,0c0.2,0,0.3,0,0.4,0 c0.1,0,0.2,0,0.2,0c0,0,0,0,0,0c0-0.1,0-0.1,0-0.1c0.1,0,0.1,0,0.1,0.1c0,0,0,0,0,0h0c0,0,0.1,0.1,0.1,0.1c0-0.1,0,0,0-0.1 c0-0.1,0.1-0.1,0.1-0.1c0-0.1,0.1-0.1,0.1-0.1c0,0.1,0,0,0,0.1c0,0.1,0,0.1,0,0.1c0,0.1,0,0.1,0,0.1c0,0,0,0,0.1,0 c0.1-0.3,0.1-0.5-0.1-0.7c-0.1-0.1-0.2-0.2-0.2-0.2c-0.1,0-0.1,0-0.1,0c-0.1,0-0.2,0-0.2,0c-0.1,0-0.2,0-0.2,0c-0.2,0-0.3,0-0.4,0 c0,0-0.1,0-0.1,0v0.1H138.6z"></path> <path d="M139.2,125.8l-0.2-0.3h-0.1v0.1l0.1,0.2H139.2C139.1,125.9,139.1,125.9,139.2,125.8l0.1,0.3h0c0,0,0,0,0-0.1L139.2,125.8 L139.2,125.8z"></path> <path d="M141.1,113c0-0.1,0-0.1-0.1-0.1c0,0,0,0,0,0.1c0,0.1,0,0,0,0.1C141,113.1,141.1,113.1,141.1,113z"></path> <path d="M138.9,127.4L138.9,127.4L138.9,127.4C138.9,127.4,138.9,127.4,138.9,127.4z"></path> <path d="M139.3,123.4c0.1,0,0.1,0.1,0.1,0.2c0.1-0.1,0.1-0.1,0.1-0.2H139.3z"></path> <path d="M144.3,120.4c0,0-0.1,0-0.2,0c0,0,0,0-0.1,0h-0.1l0.7,0.2C144.6,120.6,144.4,120.5,144.3,120.4z"></path> <path d="M143.9,120.4l-0.3-0.1c0.1,0,0.1,0.1,0.1,0.1h0.1H143.9z"></path> <path d="M139.4,124.6h0.4v-0.4v-0.4v-0.4l-0.1,0.1l-0.2,0.2l-0.1,0.2l-0.1,0.2v0.1v0.3h0.1C139.4,124.5,139.4,124.5,139.4,124.6z"></path> <path d="M138,127.2L138,127.2l-0.1-0.1c0,0,0-0.1,0-0.2c-0.1-0.1-0.1-0.1-0.1-0.1c-0.1-0.1-0.2-0.2-0.2-0.2c0-0.1,0,0,0-0.2 c0,0,0-0.1,0-0.1l-0.1,0.1v-0.2c0,0,0,0,0-0.1h0.1c0-0.1,0-0.2,0-0.2c-0.1,0-0.1,0-0.1,0v-0.2l0,0c0,0,0,0.1,0,0.2h-0.2l0.2-0.2v0 c0-0.1,0-0.2,0-0.2v0h-0.1h-0.1c0-0.1,0-0.1,0-0.2h-0.1v0.6c0,0.2,0,0.3,0,0.5c0.1,0.1,0.1,0.1,0.1,0.2h0l0.1-0.1c0,0.1,0,0,0,0.1 c0,0.1,0,0.1,0,0.1c0.1,0.1,0.2,0.2,0.2,0.2v0.1h0.2l-0.1,0.1c0,0,0,0.1,0,0.2c0,0,0,0,0,0C137.8,127.3,137.9,127.3,138,127.2 C138,127.2,138,127.2,138,127.2z"></path> <path d="M137.5,124.5v-0.1v-0.1c-0.1,0-0.2,0-0.2,0c-0.1,0-0.1,0-0.1,0v0.2c0,0,0,0,0,0H137.5z"></path> <path d="M137.3,125C137.3,125,137.3,125,137.3,125L137.3,125C137.3,124.9,137.3,124.9,137.3,125z"></path> <path d="M136.9,124.1C136.8,124.1,136.8,124.2,136.9,124.1l-0.1,0.1l0.1,0.1V124.1z"></path> <path d="M139.1,126.9L139.1,126.9h0.1c0.2-0.1,0.2-0.2,0.2-0.2c0-0.1,0-0.2,0-0.2c0-0.1,0-0.1,0-0.2c0.1,0,0.2,0,0.2,0 c0-0.1,0-0.1,0-0.1c0-0.1,0-0.2,0-0.2c0-0.1,0-0.2,0-0.2c0-0.1,0-0.2,0-0.2v-0.3h-0.1h-0.1c0,0.1-0.1,0.1-0.1,0.1v0.3c0,0,0,0,0,0 c0,0.1,0,0.2,0,0.2c0,0,0,0.1,0,0.1l0.1,0.1h-0.1c0,0,0,0.1,0,0.1l0-0.1h-0.1l0.1,0.1c0,0.1,0,0.2,0,0.2c0,0.1,0,0,0,0.1 c0,0.1,0,0.1,0,0.1c-0.1,0.1-0.1,0.1-0.1,0.1C139.1,126.8,139.1,126.8,139.1,126.9c-0.1,0-0.2,0.1-0.2,0.1s0,0,0,0.1h0L139.1,126.9 z"></path> <path d="M143.7,120.5L143.7,120.5c0-0.1,0-0.1,0-0.1L143.7,120.5C143.7,120.5,143.7,120.5,143.7,120.5z"></path> <path d="M134.9,113.2C134.9,113.2,134.9,113.2,134.9,113.2C134.9,113.1,134.8,113.1,134.9,113.2L134.9,113.2L134.9,113.2z"></path> <path d="M135.1,113.2C135.1,113.2,135.1,113.1,135.1,113.2c-0.1-0.1-0.1-0.1-0.2,0H135.1C135,113.2,135,113.2,135.1,113.2z"></path> <path d="M136.9,120.9C136.8,120.8,136.8,120.8,136.9,120.9c-0.2-0.2-0.3-0.3-0.4-0.3C136.6,120.7,136.7,120.8,136.9,120.9 C136.8,120.9,136.8,120.9,136.9,120.9z"></path> <path d="M134,114.8c0,0-0.1,0-0.2,0c0,0,0,0-0.1,0h-0.1c0,0.1,0,0.1,0,0.2c0,0,0.1,0,0.2,0c0.1,0,0,0,0.1,0 C133.9,115,134,115,134,114.8C134.1,114.9,134.1,114.9,134,114.8C134.1,114.8,134.1,114.8,134,114.8C134,114.8,134,114.8,134,114.8 z"></path> <path d="M133.4,114.8c0,0.1,0,0.2,0,0.2c0,0-0.1,0-0.1,0.1c0,0,0,0,0,0c0.1,0,0.1,0,0.1,0c0.2-0.1,0.2-0.1,0.2-0.1 C133.5,115,133.4,114.8,133.4,114.8z"></path> <path d="M137.8,111.8c-0.1-0.1-0.1-0.1-0.1-0.1c-0.1-0.1-0.2-0.1-0.3-0.1c-0.1,0-0.1,0-0.1,0c-0.1,0-0.1,0-0.1,0 c-0.1,0-0.2,0-0.2,0c-0.1,0-0.2,0-0.2,0c-0.1,0-0.1,0-0.1,0l0.1,0.1c0.1,0,0.1,0,0.1,0c0.1,0,0.2,0,0.2,0c0.1,0,0.2,0,0.2,0 c0.1,0,0.1,0,0.1,0c0.1,0,0.1,0,0.1,0c0.1,0.1,0.3,0.2,0.3,0.2c0.1,0.1,0.1,0.1,0.1,0.1c0.1,0.1,0.1,0.2,0.1,0.4c0-0.1,0-0.3,0-0.3 C137.9,112,137.8,111.8,137.8,111.8z"></path> <polygon points="138,112.4 138,112.4 138,112.4 "></polygon> <path d="M135,114.2c0,0.1,0.1,0.1,0.1,0.1c0.1,0,0.1,0,0.1,0v-0.1C135.1,114.2,135.1,114.2,135,114.2 C135,114.2,135,114.2,135,114.2z"></path> <path d="M136.8,111.7c-0.1,0-0.2,0-0.3,0.1C136.6,111.8,136.7,111.8,136.8,111.7z"></path> <path d="M136.2,112.9c0,0-0.1,0-0.1,0.1c0,0.1,0,0.1,0.1,0.1C136.2,113.1,136.2,113.1,136.2,112.9 C136.2,112.9,136.2,113,136.2,112.9z"></path> <path d="M135.3,114c0,0,0,0.1,0,0.1h-0.1v0.1h0.1c0,0,0,0,0.1,0C135.3,114.2,135.3,114.1,135.3,114C135.3,114,135.3,114,135.3,114z "></path> <polygon points="134.1,114.8 134.1,114.8 134.1,114.8 "></polygon> <path d="M136.5,121.1c0,0,0.1,0.1,0.2,0.1C136.6,121.2,136.5,121.1,136.5,121.1z"></path> <path d="M135.1,122c0,0.1,0,0.2,0,0.3c0-0.1,0-0.3,0-0.4C135.1,122,135.1,122,135.1,122z"></path> <path d="M136.6,121.3c0,0.1,0.1,0.1,0.1,0.2C136.8,121.4,136.7,121.3,136.6,121.3z"></path> <path d="M135.5,122.2c0-0.2,0-0.4,0-0.5C135.4,121.8,135.4,122,135.5,122.2z"></path> <path d="M135.2,122.4c0,0,0.1,0,0.2,0c0,0,0,0,0,0.1v0.1c0,0,0,0.1,0,0.2c0,0,0.1,0,0.2,0c0,0,0,0,0.1,0l-0.1-0.3v-0.1 c0,0,0,0,0.1,0c0,0,0-0.1,0-0.2c0,0-0.1,0-0.2,0C135.4,122.1,135.2,122.2,135.2,122.4z"></path> <path d="M139.2,123.1h-0.3c0,0,0,0,0,0.1L139.2,123.1C139.2,123.2,139.2,123.2,139.2,123.1z"></path> <path d="M136,123.2c0,0,0,0.1,0,0.2c0,0,0.1,0,0.2,0c0,0,0,0,0-0.2c0,0,0,0,0.1,0c0,0,0-0.2-0.1-0.2v-0.1c0,0,0,0-0.1,0 c0,0,0,0,0,0c0,0,0,0,0,0c0,0,0,0,0,0c0,0-0.1,0.1-0.1,0.2C135.9,123.1,135.9,123.1,136,123.2C136,123.1,136,123.1,136,123.2z"></path> <path d="M136.8,121.5C136.8,121.5,136.8,121.5,136.8,121.5c0,0.1,0.1,0.3,0.1,0.5c0,0,0,0.1,0,0.2c0,0.1,0,0.1,0,0.2v0.2 c0,0.2,0,0.3-0.1,0.5c0,0,0,0,0,0.1c0,0.1-0.2,0.2-0.3,0.3c0,0-0.1,0-0.2,0c0,0,0,0-0.1,0c0,0,0,0-0.1,0c-0.1,0-0.1,0-0.2,0 c0,0-0.1,0-0.2,0c0,0,0,0-0.1,0c-0.1,0-0.2-0.2-0.3-0.4c-0.1-0.2-0.2-0.5-0.2-0.8c0,0,0,0.1,0,0.1c0,0.2,0,0.2,0,0.4 c0,0.2,0.1,0.4,0.2,0.6c0,0.1,0.2,0.2,0.3,0.3c0,0,0,0,0.1,0c0,0,0.1,0,0.2,0c0,0,0.1,0,0.2,0c0.1,0,0,0,0.1,0c0,0,0,0,0.1,0 c0,0,0.1,0,0.2,0c0.1,0,0.2-0.2,0.3-0.3c0,0,0,0,0-0.1c0,0,0.1-0.2,0.1-0.3c0-0.2,0.1-0.4,0.1-0.6s0-0.4-0.1-0.6 C136.9,121.7,136.9,121.6,136.8,121.5z"></path> <path d="M135.2,121.7c0,0.1-0.1,0.1-0.1,0.2C135.1,121.8,135.2,121.7,135.2,121.7z"></path> <path d="M135.6,121.1c-0.1,0-0.2,0.2-0.3,0.3c0,0.1-0.1,0.1-0.1,0.2c0,0,0-0.1,0.1-0.1C135.3,121.3,135.5,121.2,135.6,121.1z"></path> <path d="M136.1,122.4c0,0.1-0.1,0.3,0,0.5c0-0.1,0-0.2,0-0.3C136.1,122.6,136.1,122.5,136.1,122.4z"></path> <path d="M137.1,121.1c0,0-0.1-0.1-0.2-0.2C136.9,120.9,137,121.1,137.1,121.1z"></path> <polygon points="140.9,117 140.9,117 140.3,117 140.3,117 "></polygon> <path d="M137.3,121.4c0,0-0.1-0.2-0.2-0.3C137.1,121.2,137.2,121.3,137.3,121.4z"></path> <path d="M136.4,122.3L136.4,122.3c0,0.1,0,0.2,0,0.3c0,0,0,0,0.1,0c0,0,0.1,0,0.2,0c0,0,0,0,0-0.2v-0.1c0,0,0,0,0-0.1 c0,0,0,0,0-0.1V122c0,0-0.1,0-0.2,0h-0.2c0,0,0,0,0,0.2c0,0,0,0,0.1,0C136.4,122.2,136.4,122.2,136.4,122.3z"></path> <path d="M127.6,121.5c0,0,0,0.1,0,0.2c0,0,0,0.1,0.1,0.2c0,0,0.2,0,0.4,0.1v-0.8H128v0.2h-0.2C127.8,121.4,127.7,121.4,127.6,121.5 z"></path> <path d="M127.5,124.2c0,0-0.1,0.1-0.2,0.2c0,0,0.1,0.1,0.2,0.2c0,0,0.1,0.1,0.1,0.2c0-0.2,0.1-0.4,0-0.7L127.5,124.2z"></path> <path d="M128.8,128v-0.2c0,0,0,0,0.1,0c0.1,0,0.1,0,0.2,0v-0.6l0.8,0.1v-0.1h-0.8c-0.2,0-0.3,0-0.4,0h-0.9v0.1c0,0-0.1,0-0.2,0 c0,0,0,0-0.2,0v1.2c0,0,0.1,0,0.2,0c0.2,0,0.3,0,0.4-0.1c0,0,0,0,0.1,0c0,0,0,0,0.1,0h0.1c0,0,0,0,0.1,0h0.1c0,0,0.1,0,0.2,0 c0,0,0.1,0,0.1,0v-0.2c0,0,0,0,0.1,0c0.1,0,0.1,0,0.2,0V128c-0.1,0-0.1,0-0.2,0C128.9,128,128.9,128,128.8,128z"></path> <path d="M129.3,128.3c0.1,0,0.1,0,0.1,0c0.1,0,0.1,0,0.1,0c0.1,0,0.1,0,0.1,0c0.1,0,0.2,0,0.2,0c0.1,0,0.2,0,0.4,0h0.2v-0.2 c-0.2,0-0.3,0-0.4,0c-0.1,0-0.2,0-0.2,0h-0.1c-0.1,0-0.1,0-0.1,0h-0.1c-0.1,0-0.1,0-0.1,0c-0.1,0-0.1,0-0.1,0 c-0.1,0.1-0.1,0.1-0.2,0.1v0.2C129.1,128.4,129.2,128.3,129.3,128.3z"></path> <rect x="127.7" y="126.7" width="0.1" height="0.5"></rect> <path d="M129.1,128.4L129.1,128.4c-0.1,0-0.1,0-0.2,0C128.9,128.4,129,128.4,129.1,128.4z"></path> <path d="M129.9,126.6h-0.1h-0.1c0,0,0-0.1,0-0.2h-0.2c0,0,0,0,0,0.1c0,0,0,0,0,0.1H128c0,0,0,0-0.1,0h-0.1v0.1L129.9,126.6 L129.9,126.6z"></path> <path d="M129.8,127.7h-0.1c-0.1,0-0.1,0-0.1,0h-0.1c-0.1,0-0.1,0-0.1,0c-0.1,0-0.1,0-0.1,0c-0.1,0.1-0.1,0.1-0.2,0.1v0.2 c0.1,0,0.1-0.1,0.2-0.1c0.1,0,0.1,0,0.1,0c0.1,0,0.1,0,0.1,0c0.1,0,0.1,0,0.1,0c0.1,0,0.2,0,0.2,0c0.1,0,0.2,0,0.4,0h0.2v-0.2 c-0.2,0-0.3,0-0.4,0C129.9,127.7,129.8,127.7,129.8,127.7z"></path> <polygon points="150.7,122.6 150.7,120.2 150.6,120.2 149.8,121.2 149,120.2 148.7,120.2 148.7,122.6 149,122.6 149,120.8 149.7,121.7 150.4,120.8 150.4,122.6 "></polygon> <rect x="151.3" y="120.2" width="0.3" height="2.4"></rect> <polygon points="154,122.6 154.3,122.6 154.3,120.2 154,120.2 154,122 152.4,120.2 152.1,120.2 152.1,122.6 152.4,122.6 152.4,120.8 "></polygon> <rect x="154.8" y="120.2" width="0.3" height="2.4"></rect> <path d="M156.2,122.4c-0.2,0-0.4-0.1-0.6-0.3v0.4c0.2,0.2,0.4,0.2,0.6,0.2c0.2,0,0.4-0.1,0.5-0.2c0.2-0.2,0.2-0.2,0.2-0.5 s-0.1-0.5-0.4-0.7l-0.3-0.2c-0.2-0.1-0.3-0.2-0.3-0.2c0-0.1,0-0.1,0-0.2s0-0.2,0.1-0.2c0.1,0,0.2,0,0.3,0c0.1,0,0.3,0,0.5,0.2v-0.4 c-0.1-0.2-0.3-0.2-0.5-0.2s-0.4,0.1-0.5,0.2c-0.2,0.2-0.2,0.3-0.2,0.5c0,0.1,0.1,0.3,0.1,0.3c0,0.1,0.1,0.3,0.3,0.3l0.3,0.2v0.2 c0.2,0.1,0.3,0.3,0.3,0.4s-0.1,0.2-0.1,0.2C156.4,122.4,156.4,122.4,156.2,122.4z"></path> <polygon points="158.3,122.6 158.3,120.5 159.1,120.5 159.1,120.2 157.2,120.2 157.2,120.5 158,120.5 158,122.6 "></polygon> <polygon points="159.2,120.1 159.2,122.5 160.6,122.5 160.6,122.2 159.6,122.2 159.6,121.5 160.6,121.5 160.6,121.2 159.6,121.2 159.6,120.5 160.6,120.5 160.6,120.2 159.3,120.2 "></polygon> <path d="M162,121.7c0.1,0,0.1,0.2,0.3,0.2v0.2l0.1,0.3c0,0,0,0,0.1,0v0.2c0,0,0.4,0,0.3,0v-0.2c-0.1-0.1-0.2-0.2-0.2-0.3 c-0.1-0.2-0.3-0.4-0.3-0.4c-0.1-0.1-0.2-0.2-0.2-0.2c0.1,0,0.3-0.2,0.3-0.2c0.1-0.1,0.1-0.2,0.1-0.4s-0.1-0.4-0.2-0.5 c-0.2-0.2-0.4-0.2-0.6-0.2h-0.6v2.4h0.2h0.3v-1c0.1,0,0.2,0,0.2,0C161.9,121.7,161.9,121.7,162,121.7z M161.5,121.2L161.5,121.2 l-0.1-0.6v-0.1h0.1l-0.1,0.1c0.2,0,0.4,0,0.4,0c0.2,0,0.2,0,0.2,0.1s0,0.1,0,0.2s0,0.2,0,0.2c0,0.1-0.1,0.1-0.1,0.1 C161.8,121.2,161.7,121.2,161.5,121.2z"></path> <rect x="163.2" y="120.2" width="0.3" height="2.4"></rect> <path d="M166.1,120.5c-0.2-0.2-0.5-0.3-0.9-0.3c-0.4,0-0.6,0-0.9,0.3s-0.4,0.5-0.4,0.9c0,0.4,0.2,0.7,0.4,0.9 c0.2,0.2,0.6,0.3,0.9,0.3s0.7-0.1,0.9-0.3c0.3-0.3,0.4-0.5,0.4-0.9C166.5,121,166.3,120.7,166.1,120.5z M165.9,122 c-0.2,0.3-0.4,0.3-0.7,0.3s-0.5-0.1-0.7-0.3c-0.3-0.1-0.3-0.4-0.3-0.6s0.1-0.4,0.3-0.6c0.2-0.3,0.4-0.3,0.7-0.3h0.1 c0.2,0,0.3,0.2,0.6,0.3c0.3,0.1,0.3,0.4,0.3,0.6S166.1,121.8,165.9,122z"></path> <path d="M150.2,123.7c-0.2-0.1-0.5-0.1-0.8-0.1h-0.8v2.4l0.2-0.1h0.7c0.2,0,0.4,0,0.4,0h0.2c0.2-0.1,0.3-0.2,0.4-0.3 c0.2-0.1,0.3-0.3,0.3-0.4c0-0.2,0-0.3,0-0.5s-0.1-0.4-0.2-0.6C150.5,123.9,150.4,123.7,150.2,123.7z M150.1,125.7 c-0.1,0.1-0.2,0.1-0.2,0.1s-0.1,0-0.2,0s-0.2,0-0.4,0h-0.4V124h0.4l-0.1,0.4c0.2,0,0.4,0,0.4,0h0.2c0.1,0,0.2,0.1,0.2,0.1 c0.3,0.1,0.3,0.4,0.3,0.6S150.3,125.5,150.1,125.7z"></path> <polygon points="151.1,123.6 151.1,126 152.5,126 152.5,125.7 151.5,125.7 151.5,125 152.5,125 152.5,124.7 151.5,124.7 151.5,124 152.5,124 152.5,123.7 151.2,123.7 "></polygon> <polygon points="155.5,124.7 154.2,124.7 154.2,123.7 153.9,123.7 153.9,126.1 154.2,126.1 154.2,125.1 155.5,125.1 155.5,126.1 155.8,126.1 155.8,123.7 155.5,123.7 "></polygon> <path d="M157.2,123.6l-1,2.4h0.3l0.3-0.7h1l0.3,0.7h0.3L157.2,123.6L157.2,123.6z M157.5,125h-0.7l0.4-0.9l0.4,0.9H157.5z"></path> <path d="M159.6,125.7c-0.3,0-0.5,0-0.7-0.2c-0.3-0.1-0.3-0.4-0.3-0.6s0.1-0.4,0.3-0.6c0.2-0.3,0.4-0.3,0.7-0.3c0.3,0,0.5,0,0.8,0.2 v-0.4c-0.3-0.2-0.4-0.2-0.8-0.2c-0.4,0-0.7,0.2-0.9,0.4c-0.3,0.3-0.4,0.6-0.4,0.9c0,0.2,0.1,0.4,0.2,0.6c0.1,0.1,0.2,0.3,0.4,0.4 c0.2,0.2,0.3,0.2,0.7,0.2c0.4,0,0.7-0.1,0.9-0.2v-0.4l-0.1-0.1C160.2,125.7,159.9,125.7,159.6,125.7z"></path> <rect x="161" y="123.7" width="0.3" height="2.4"></rect> <polygon points="161.7,123.6 161.7,126 163.1,126 163.1,125.7 162.1,125.7 162.1,125 163.1,125 163.1,124.7 162.1,124.7 162.1,124 163.1,124 163.1,123.7 161.8,123.7 "></polygon> <polygon points="165.4,125.5 163.8,123.7 163.5,123.7 163.5,126.1 163.8,126.1 163.8,124.3 165.4,126.1 165.7,126.1 165.7,123.7 165.4,123.7 "></polygon> <path d="M168.5,124.7c0-0.2-0.1-0.4-0.2-0.6c-0.1-0.2-0.2-0.4-0.4-0.4c-0.2-0.1-0.5-0.1-0.8-0.1h-0.8v2.4l0.2-0.1h0.7 c0.2,0,0.4,0,0.4,0h0.2c0.2-0.1,0.3-0.2,0.4-0.3c0.2-0.1,0.3-0.3,0.3-0.4C168.5,125,168.5,124.9,168.5,124.7z M167.8,125.7 c-0.1,0.1-0.2,0.1-0.2,0.1s-0.1,0-0.2,0c-0.1,0-0.2,0-0.4,0h-0.4V124h0.4l-0.1,0.4c0.2,0,0.4,0,0.4,0h0.2c0.1,0,0.2,0.1,0.2,0.1 c0.3,0.1,0.3,0.4,0.3,0.6S168,125.5,167.8,125.7z"></path> <path d="M169.5,123.6l-1,2.4h0.3l0.3-0.7h1l0.3,0.7h0.3L169.5,123.6L169.5,123.6z M169.8,125h-0.7l0.4-0.9l0.4,0.9H169.8z"></path> </g> </svg>