<svg xmlns:cc="http://creativecommons.org/ns#" xmlns:dc="http://purl.org/dc/elements/1.1/" xmlns:inkscape="http://www.inkscape.org/namespaces/inkscape" xmlns:rdf="http://www.w3.org/1999/02/22-rdf-syntax-ns#" xmlns:sodipodi="http://sodipodi.sourceforge.net/DTD/sodipodi-0.dtd" xmlns:svg="http://www.w3.org/2000/svg" xmlns="http://www.w3.org/2000/svg" xmlns:xlink="http://www.w3.org/1999/xlink" id="svg1726" x="0px" y="0px" viewBox="0 0 193 39.8" style="enable-background:new 0 0 193 39.8;" xml:space="preserve"> <g id="layer1" transform="translate(-84.96605,-210.71114)" inkscape:groupmode="layer" inkscape:label="Layer 1"> <g> <path d="M98.4,231.3L98.4,231.3c-0.2-0.7-1-0.4-1.4-0.6c-0.7,0.1-1.4,0.1-1.9,0.4c-0.2,0.3-0.5,0.3-0.7,0.5l-0.4,1.2 c-0.2,0.8,0,1.6,0.6,2.1c1.1,1,2.8,0.7,4,0.1l0.9-1.3l-0.2-1.3C98.8,232.1,98.8,231.5,98.4,231.3z"></path> <path d="M98.2,242.2c-0.2-0.8-0.4-1.7-0.8-2.4c-0.5-0.1-0.4-0.7-0.9-0.9c-0.3,0.1-0.6-0.2-1-0.2l0,0c-0.4,0.3-0.8-0.1-1.2,0 c-0.2,0.3-0.6,0.1-0.9,0.2c-0.8,0.5-1.7,0.7-2.1,1.6c-0.7,0.2-0.5,1-1.1,1.4l-0.4,1.8l0.1,1c-0.2,0.6,0.2,1.2,0,1.8 c0.1,0.5,0.5,0.7,0.7,1.2c0.5,0.4,1.1,0.9,1.7,1.1c0.2,0.3,0.7,0.3,1.1,0.4c0.6,0,1.3,0.2,1.8-0.2c0.8,0.1,0.9-0.9,1.5-1.1 c0.4,0.1,0.5-0.4,0.7-0.5c0.4-0.7,0.8-1.4,0.7-2.3c0.2-0.4,0.2-1,0.2-1.4l-0.1-0.1C98.4,243,98,242.7,98.2,242.2z"></path> <path d="M132,242.2c-0.4-0.6-0.6-1.3-1-1.9c-0.3-1.1-1.3-1.9-1.4-3.1c-0.7-1.1-1.3-2.2-2-3.2c-0.4-0.3-0.6-0.8-0.8-1.2 c-0.9-1.3-1.8-2.5-2.8-3.6c-0.5,0.1-0.5-0.6-1-0.6c-0.8-0.6-0.9-1.7-1.8-2.2c-0.4-0.5-1.1-0.7-1.2-1.3c0.7-0.9,1.5-1.9,2.3-2.7 c0.9-1.3,2.2-2.2,2.7-3.6c1.2-2.4,3.6-4.4,3.8-7.2l0,0c-0.1-0.4-0.5-0.3-0.8-0.4c-0.6,0.2-1.4,0-1.6,0.7c-1.2,0.8-2.5,1.4-3.8,2.1 c-0.3,0.2-0.6,0.4-1.1,0.5c-0.8,0.4-1.5,1-2.2,1.5c-0.4,0.1-0.8,0.3-1.1,0.5c-0.3,0.7-1.1,0.8-1.6,1.3c-1.2,0.9-2.7,1.3-3.9,2.1 c-0.3,0.1-0.3,0.4-0.6,0.5c-0.3,0.1-0.7,0-1-0.2c-0.9-1.3-2.4-1.9-3.6-2.7c-1-0.7-2.1-1.1-3.1-1.6c-1-0.2-2-0.6-3-0.8 c-0.3,0.2-0.7,0-1.1,0.1c-0.1,0.2-0.3,0.3-0.3,0.6c0.3,0.5-0.1,1.2,0.3,1.6c0.4,1.5,1.5,2.7,2.1,4.1l1.6,2.2v0.2 c-0.6,0-1.1-0.2-1.7-0.3c-1.7,0-3.4-0.3-5.1-0.4c-1,0.2-2-0.1-2.9,0.1c-1.5,0.3-3.1,0.3-4.6,0.8s-3.1,0.9-4.1,2.3v0.2 c0.4,0.3,0.7,0.8,1.2,0.7c0.6,0.1,1,0.5,1.6,0.4c0.8,0.4,1.9,0.4,2.7,0.8c0.4,0.2,0.9,0.1,1.3,0.1c0.6,0.4,1.5,0.3,2.2,0.5 c1.7,0.4,3.6,0.6,5.4,0.6c1.1,0.3,2.2,0.1,3.4,0.1c0.1,0,0.2,0.1,0.2,0.2c-0.4,1.7-1.1,3.3-1.6,5c-0.1,0.4,0,0.7-0.1,1.1 c-0.6,0.4-0.6,1-0.8,1.5c0.1,0.6,0,1.2-0.3,1.7c-0.1,0.8-0.3,1.7-0.6,2.4c-0.1,0.6-0.2,1.3-0.4,1.8c0.2,0.9-0.3,1.7-0.3,2.6 l0.1,0.3c-0.1,0.7,0,1.3-0.2,1.9c0.3,0.4,0,1,0.2,1.5c0.1,0.3,0.4,0.2,0.6,0.3c0.5-0.3,1-0.6,1.4-1.1c1.9-1.4,2.6-3.5,3.9-5.3 c1-1.7,1.8-3.4,2.8-5.1c0.3-1.1,1.2-1.9,1.2-3.1c0.6-0.8,0.3-2,1.1-2.7c0.1-0.2,0-0.4,0.1-0.6c1.2,0.7,2.2,1.6,3.3,2.3 c0.5,0.2,0.7,0.8,1.2,0.9c0.7,0.6,1.4,1.1,2.1,1.6c1.5,0.9,2.7,2.2,4.2,3.1c0.6,0.3,0.8,1,1.4,1.2c1.6,1.3,3.3,2.3,4.9,3.5 c1.5,0.9,3.1,1.8,4.8,2.4c0.3-0.1,0.6,0.3,0.8,0.1s0.3-0.5,0.2-0.8C133,245.1,132.6,243.6,132,242.2z"></path> <polygon points="143,244.7 143,245.2 143,245.2 143,245.7 277.5,245.7 277.5,245.2 277.5,245.2 277.5,244.7 "></polygon> <path d="M238.5,239.3c1.4,0,2.5-0.8,3.6-1.6c0.4,0.8,1.4,1.4,2.6,1.6l2.4-2l-0.5-0.5c-0.2,0.1-0.5,0.1-0.7,0.1c-0.7,0-1-0.4-1-1.9 v-1.1c0-1.9,0.1-3.5,0.1-4.7c0-3.3-2.5-4-5.4-4c-1.5,0-2.8,0.2-4.2,0.6v3.1h0.8c0.8-1.2,1.6-1.7,3.2-1.7c2.2,0,2.3,1.9,2.3,3.7 c-0.5,0-1-0.1-1.5-0.1c-3,0-6.2,1.3-6.2,4.8C234.1,237.9,236.2,239.3,238.5,239.3z M240.3,231.9c0.6,0,1.2,0.1,1.6,0.2l0.1,4.8 c-0.5,0.3-1.2,0.6-2.2,0.6c-1.4,0-2.5-1.1-2.5-2.6C237.2,232.6,238.8,231.9,240.3,231.9z"></path> <path d="M156.8,239c2.2,0,3.8-0.3,6.5-0.8l1-3.7l-1-0.4c-1.5,2.3-3.9,3.5-6.6,3.5c-2.8,0-9.6-1.6-9.6-11c0-5.6,2.4-10.3,8.2-10.3 c2.9,0,6.1,1.2,7.2,4.4h1.4l-0.3-4.4c-2.4-0.6-4-1.3-8.4-1.3c-7.5,0-12.8,5.1-12.8,11.9C142.5,232.8,146.9,239,156.8,239z"></path> <path d="M170.7,239.3c1.4,0,2.5-0.8,3.6-1.6c0.4,0.8,1.4,1.4,2.6,1.6l2.4-2l-0.5-0.5c-0.2,0.1-0.5,0.1-0.7,0.1c-0.7,0-1-0.4-1-1.9 v-1.1c0-1.9,0.1-3.6,0.1-4.7c0-3.3-2.5-4-5.4-4c-1.5,0-2.8,0.2-4.2,0.6v3.1h0.8c0.8-1.2,1.6-1.7,3.2-1.7c2.2,0,2.3,2,2.3,3.7 c-0.5,0-1-0.1-1.5-0.1c-3,0-6.3,1.3-6.3,4.8C166.3,237.9,168.5,239.3,170.7,239.3z M172.5,231.8c0.6,0,1.2,0.1,1.6,0.2l0.1,4.8 c-0.5,0.3-1.2,0.6-2.2,0.6c-1.4,0-2.5-1.1-2.5-2.6C169.5,232.6,171,231.8,172.5,231.8z"></path> <path d="M183,223c0.9,0,1.8-0.7,1.8-1.7s-0.8-1.7-1.8-1.7c-0.9,0-1.8,0.7-1.8,1.7C181.3,222.3,182.1,223,183,223z"></path> <path d="M181.2,228.5c0.3,0.7,0.5,2,0.5,4.3v4c0,1.1-0.4,1.3-1.1,1.5v0.7c0.9,0,1.8-0.1,2.6-0.1c1,0,2,0.1,2.9,0.1v-0.7 c-0.7-0.2-1.3-0.4-1.3-1.5V232c0-2.7-0.1-5.5-0.1-6.9H184c-1,0.7-2.7,1.3-4.2,1.6v0.7C180.6,227.6,180.9,227.8,181.2,228.5z"></path> <path d="M189.2,227.7l3.7,5.1l-3.2,4c-0.4,0.6-1.1,1.4-2.2,1.5v0.7c0.7,0,1.4-0.1,2.1-0.1c0.8,0,1.7,0.1,2.6,0.1v-0.7 c-0.4-0.1-0.7-0.2-0.7-0.7c0-0.3,0.3-0.9,0.5-1.2l1.8-2.4l1.8,2.5c0.3,0.4,0.5,0.9,0.5,1.1c0,0.3-0.3,0.7-0.7,0.7v0.7 c1,0,1.9-0.1,2.9-0.1s1.9,0.1,2.9,0.1v-0.7c-0.8-0.3-1.6-1.1-2.1-1.7l-3.5-4.9l2.8-3.5c0.7-0.9,1.4-1.7,2.7-2v-0.7 c-0.8,0-1.7,0.1-2.6,0.1c-0.9,0-1.7-0.1-2.6-0.1v0.7c0.5,0.2,0.9,0.4,0.9,1c0,0.2-0.2,0.6-0.5,1.1l-1.6,2.1L193,228 c-0.3-0.4-0.4-0.8-0.4-1c0-0.5,0.3-0.6,0.7-0.8v-0.7c-1,0-2,0.1-2.9,0.1c-1,0-2-0.1-3-0.1v0.7 C188.4,226.6,188.6,226.9,189.2,227.7z"></path> <path d="M206.6,239.3c1.4,0,2.5-0.8,3.6-1.6c0.4,0.8,1.4,1.4,2.6,1.6l2.5-2l-0.5-0.5c-0.2,0.1-0.5,0.1-0.7,0.1c-0.7,0-1-0.4-1-1.9 v-1.1c0-1.9,0.1-3.6,0.1-4.7c0-3.3-2.5-4-5.4-4c-1.5,0-2.8,0.2-4.2,0.6v3.1h0.8c0.8-1.2,1.6-1.7,3.2-1.7c2.2,0,2.3,2,2.3,3.7 c-0.5,0-1-0.1-1.5-0.1c-3,0-6.3,1.3-6.3,4.8C202.2,237.9,204.4,239.3,206.6,239.3z M208.4,231.8c0.6,0,1.2,0.1,1.6,0.2l0.1,4.8 c-0.5,0.3-1.2,0.6-2.2,0.6c-1.4,0-2.5-1.1-2.5-2.6C205.4,232.6,206.9,231.8,208.4,231.8z"></path> <path d="M223.2,238.9c0.5,0,0.9,0.1,1.3,0.1c3.5,0,7.7-1.4,7.7-5.6c0-3.4-2.1-5.1-5.1-6v-0.1c2.4-0.8,4.7-2.6,4.7-5.3 c0-4.2-4.4-5.8-8-5.8c-0.8,0-1.5,0.1-3,0.1c-1.3,0-2.6-0.1-4.3-0.1v0.7c0.9,0.1,1.4,0.4,1.4,1.7c0,2.9,0.1,7.1,0.1,11v6.6 c0,1.4-0.4,1.9-1.9,2v0.6h5.6C222.3,238.9,222.8,238.9,223.2,238.9z M221.8,218.1c0-0.6,0.4-0.7,1.3-0.7c3.5,0,4.8,1.9,4.8,4.8 c0,2.8-2,4.6-4.8,4.6c-0.4,0-0.9,0-1.5-0.1L221.8,218.1z M221.6,228.2c0.7,0,1.2,0,1.8,0c3.1,0,4.9,2.2,4.9,5.2 c0,2.5-1.7,4.5-4.5,4.5c-2,0-2.2-0.3-2.2-2.1V228.2z"></path> <path d="M249,228.9c0,1,0.2,2.8,0.2,4.7v3.2c0,1.1-0.4,1.2-1.2,1.5v0.7c0.9,0,1.9-0.1,2.8-0.1c0.9,0,1.9,0.1,2.8,0.1v-0.7 c-0.9-0.1-1.2-0.4-1.2-1.5v-2.7c0-2.5,0.1-4.4,0.1-5.6c0-1.2,2.1-1.5,2.7-1.5c2.3,0,2.7,2.4,2.7,4.2v5.6c0,1.1-0.3,1.3-1.2,1.5 v0.7c1,0,2.1-0.1,3.1-0.1c0.8,0,1.6,0.1,2.4,0.1v-0.7c-0.9-0.3-1.2-0.5-1.2-1.5v-6.9c0-2.8-1.3-4.7-4.5-4.7c-1.4,0-2.8,0.8-4,1.6 c0-0.6,0-1.1,0.1-1.6H252c-1.2,0.8-2.4,1.3-4.3,1.6v0.7C248.6,227.4,249,228,249,228.9z"></path> <path d="M264.1,220.7c0.1,1.2,0.3,3.7,0.3,5.6v10.5c0,0.7-0.3,1.3-1.2,1.5v0.7c0.9-0.1,1.7-0.1,2.6-0.1c1,0,1.9,0.1,2.9,0.1v-0.7 c-0.8-0.2-1.1-0.5-1.1-1.5v-4.5h0.1l3.3,3.7c0.6,0.6,0.9,1.4,0.9,1.7s-0.2,0.6-0.5,0.6v0.7c1.1,0,2.2-0.1,3.3-0.1 c0.9,0,1.9,0.1,2.8,0.1v-0.7c-1-0.3-2.1-1.3-2.6-1.8l-4.9-5.8l2.5-2.6c0.8-0.8,1.9-1.6,3-1.9v-0.6c-0.8,0.1-1.6,0.1-2.4,0.1 c-0.9,0-1.8,0-2.7-0.1v0.6c0.3,0.1,0.6,0.5,0.6,0.8c0,0.4-0.2,0.8-0.8,1.5l-2.7,2.6v-15.3h-0.7c-1.2,0.9-2.7,1.6-4.3,2v0.7 C263.3,218.6,264,219.4,264.1,220.7z"></path> </g> </g> </svg>