<?xml version="1.0" standalone="no"?>
<!DOCTYPE svg PUBLIC "-//W3C//DTD SVG 20010904//EN"
 "http://www.w3.org/TR/2001/REC-SVG-20010904/DTD/svg10.dtd">
<svg version="1.0" xmlns="http://www.w3.org/2000/svg"
 width="1024.000000pt" height="1024.000000pt" viewBox="0 0 1024.000000 1024.000000"
 preserveAspectRatio="xMidYMid meet">
<metadata>
Created by potrace 1.16, written by Peter Selinger 2001-2019
</metadata>
<g transform="translate(0.000000,1024.000000) scale(0.100000,-0.100000)"
fill="#FFFFFF" stroke="none">
<path d="M4920 9844 c-41 -8 -83 -12 -93 -10 -9 2 -15 1 -12 -3 6 -11 -73 -33
-88 -25 -6 4 -8 3 -4 -2 11 -11 -80 -54 -101 -47 -13 4 -14 3 -4 -5 11 -7 10
-10 -3 -16 -24 -9 -27 -8 -19 7 4 7 3 9 -2 4 -5 -5 -9 -12 -9 -17 0 -4 -28
-29 -62 -55 -88 -65 -166 -156 -210 -241 -21 -41 -44 -74 -50 -74 -7 0 -13 -7
-13 -15 0 -8 15 -17 38 -21 34 -7 35 -8 12 -14 l-25 -7 28 -8 c15 -4 27 -12
27 -19 0 -6 4 -4 10 4 6 9 5 17 -3 22 -9 6 -9 8 1 8 7 0 15 -7 18 -15 4 -8 9
-13 14 -10 4 2 16 -6 27 -18 26 -28 40 -52 25 -44 -6 5 -8 -1 -5 -14 4 -13 8
-17 13 -9 5 8 9 7 14 -5 10 -26 7 -85 -4 -85 -5 0 -10 -5 -10 -11 0 -5 5 -7
10 -4 6 3 10 -1 10 -10 0 -9 -4 -14 -9 -11 -5 4 -7 -2 -4 -12 2 -11 -3 -26
-12 -36 -9 -9 -13 -16 -8 -16 4 0 -1 -7 -11 -15 -11 -8 -16 -15 -12 -15 17 0
-47 -44 -83 -56 -35 -12 -36 -13 -33 -57 5 -62 -13 -121 -50 -163 -49 -55 -90
-71 -182 -68 -66 2 -84 7 -116 29 -32 22 -42 25 -59 15 -29 -15 -78 -84 -86
-121 -4 -16 -10 -29 -13 -29 -4 0 -7 -42 -7 -94 0 -52 3 -92 6 -90 4 2 10 -11
13 -29 3 -18 22 -58 40 -87 19 -30 32 -59 29 -65 -4 -5 -3 -7 2 -3 4 4 31 -13
58 -38 54 -49 97 -74 162 -94 22 -7 43 -15 47 -19 9 -8 147 3 192 14 22 6 27
5 21 -5 -5 -9 -4 -11 4 -6 6 4 9 11 7 15 -7 11 63 43 76 35 6 -4 8 -3 5 3 -3
5 7 20 24 32 17 12 39 37 50 54 19 32 24 23 13 -20 -4 -13 -10 -20 -15 -17 -5
3 -6 -2 -3 -10 13 -33 -114 -203 -143 -192 -8 3 -11 1 -8 -4 9 -15 -100 -81
-122 -74 -13 4 -14 3 -5 -3 23 -17 -93 -63 -359 -142 -75 -22 -144 -44 -154
-47 -14 -6 -16 -4 -11 7 4 8 1 6 -6 -3 -15 -18 -113 -58 -131 -54 -7 1 -8 1
-3 -2 14 -7 -142 -82 -158 -76 -8 3 -17 1 -21 -5 -3 -7 0 -8 9 -5 32 12 14 -5
-56 -52 -40 -26 -77 -47 -81 -46 -5 1 -6 -2 -3 -7 8 -12 -21 -34 -34 -26 -6 4
-9 1 -8 -6 2 -7 -4 -13 -12 -14 -8 0 -15 -5 -15 -12 0 -16 -41 -53 -50 -45 -4
4 -5 0 -3 -8 2 -8 -3 -14 -10 -12 -8 1 -11 -2 -8 -7 4 -5 -4 -17 -16 -25 -12
-9 -18 -16 -13 -16 5 0 -5 -15 -21 -32 -17 -18 -57 -67 -89 -108 -31 -41 -62
-75 -69 -75 -6 0 -11 -4 -11 -10 -1 -20 -26 -55 -37 -52 -7 1 -12 -5 -13 -14
0 -8 -22 -41 -49 -73 -37 -42 -52 -53 -59 -44 -6 10 -7 8 -4 -4 7 -21 -109
-151 -126 -141 -7 3 -9 3 -5 -2 11 -11 -12 -36 -26 -28 -6 3 -8 2 -3 -2 8 -9
-90 -115 -106 -115 -5 0 -4 7 3 15 11 13 10 14 -4 9 -10 -4 -15 -13 -12 -20 3
-8 -13 -28 -38 -49 -43 -35 -63 -45 -50 -23 4 7 3 8 -5 4 -6 -4 -9 -11 -6 -15
6 -11 -70 -62 -87 -57 -7 1 -9 1 -5 -2 27 -14 -144 -85 -188 -77 -21 3 -24 2
-11 -3 14 -6 -1 -13 -60 -25 -111 -22 -218 -32 -210 -18 4 6 3 11 -2 11 -6 0
-12 -6 -15 -14 -3 -7 -19 -16 -36 -19 -18 -4 -44 -19 -59 -34 -15 -15 -30 -27
-33 -26 -4 1 -6 -3 -6 -10 0 -7 -1 -25 -2 -42 -1 -24 -3 -27 -12 -15 -8 12 -9
10 -4 -7 3 -13 3 -28 -1 -35 -12 -19 -12 -48 -1 -55 6 -4 8 5 5 21 -3 14 -1
26 3 26 5 0 9 -12 9 -27 1 -37 31 -101 67 -144 17 -19 28 -41 26 -49 -3 -11
-2 -12 4 -2 7 10 17 9 44 -5 23 -12 66 -19 132 -21 53 -3 97 -8 97 -13 0 -5 5
-9 11 -9 5 0 8 4 5 9 -4 5 3 7 15 4 22 -6 180 -148 173 -156 -2 -2 2 -4 8 -4
7 -1 42 -9 78 -18 61 -16 70 -16 170 0 108 18 200 15 169 -6 -10 -8 -9 -9 7
-4 27 7 56 -4 47 -18 -4 -6 -1 -7 6 -2 8 4 28 -6 52 -25 118 -95 247 -107 399
-37 25 11 51 20 58 20 6 0 12 3 12 7 0 13 80 61 91 55 5 -4 8 -3 7 2 -2 4 7
18 20 31 25 25 29 50 7 58 -8 4 -13 9 -10 13 2 4 -2 8 -9 8 -22 0 -136 85
-129 96 3 5 1 7 -4 4 -17 -11 -193 176 -193 205 0 4 12 18 27 32 20 19 29 22
36 13 6 -8 7 -7 3 5 -3 12 20 39 81 95 47 43 89 77 95 75 5 -1 7 1 4 6 -7 12
72 85 84 77 6 -4 9 -1 8 7 -2 7 3 12 10 10 8 -1 11 2 8 6 -5 9 29 47 43 47 3
0 5 3 4 6 -3 9 240 234 250 231 5 -1 6 2 3 7 -8 12 20 34 33 27 20 -13 131
-208 125 -219 -4 -7 -4 -9 1 -5 7 6 135 -192 135 -208 0 -3 -6 -2 -12 2 -9 5
-9 2 1 -9 16 -20 25 -22 16 -4 -4 6 1 3 9 -8 9 -11 14 -25 12 -32 -3 -7 -1
-12 4 -10 6 1 21 -18 36 -43 14 -25 19 -37 10 -26 -14 17 -15 17 -12 -10 5
-39 4 -38 20 -25 11 9 21 0 49 -51 31 -55 33 -64 19 -70 -10 -4 -12 -7 -4 -7
7 -1 10 -5 7 -11 -3 -5 3 -10 13 -10 15 0 27 -17 50 -72 34 -81 56 -157 48
-165 -2 -3 -10 15 -16 39 -25 89 -29 96 -27 46 1 -25 4 -44 7 -41 2 2 10 -11
16 -29 6 -18 15 -31 20 -28 29 16 32 -227 3 -330 -32 -118 -168 -368 -192
-353 -6 3 -7 1 -3 -5 4 -6 -22 -64 -58 -128 -76 -136 -156 -326 -185 -439 -25
-93 -41 -220 -41 -320 0 -43 -5 -77 -12 -85 -11 -12 -10 -12 5 -1 16 13 17 6
19 -95 1 -60 3 -129 4 -154 3 -73 -14 -240 -32 -321 -15 -63 -19 -70 -26 -49
-6 21 -7 20 -3 -7 7 -52 -93 -300 -143 -352 -9 -10 -18 -24 -20 -31 -6 -26
-65 -99 -75 -93 -6 3 -7 1 -3 -5 11 -18 -120 -166 -137 -155 -6 3 -7 2 -4 -4
8 -13 -37 -56 -48 -46 -4 5 -5 3 -2 -4 8 -13 -83 -93 -110 -97 -10 -2 -18 -8
-18 -15 0 -17 -123 -93 -130 -81 -8 13 -25 13 -25 -1 0 -5 4 -7 10 -4 6 3 10
2 10 -2 0 -14 -59 -45 -72 -37 -6 4 -8 3 -5 -3 10 -15 -149 -85 -176 -78 -15
4 -18 3 -9 -3 15 -10 -106 -52 -223 -77 -91 -19 -270 -38 -301 -32 -13 2 -24
1 -24 -4 0 -4 -8 -10 -18 -13 -42 -14 -64 -93 -42 -151 8 -20 7 -24 -3 -19 -6
5 3 -7 21 -25 31 -31 37 -44 32 -66 -1 -5 2 -7 6 -3 9 9 36 -11 29 -21 -2 -4
1 -8 8 -8 17 -1 118 -58 113 -64 -3 -3 3 -5 12 -6 9 -1 42 -9 72 -18 34 -10
94 -17 155 -18 126 -1 211 22 386 103 175 82 269 104 424 97 154 -6 225 -22
225 -48 0 -21 5 -22 35 -9 18 8 18 9 -5 10 -14 1 -20 4 -13 6 6 3 69 -11 140
-30 70 -20 155 -40 188 -45 94 -15 209 -6 305 24 47 15 95 28 107 28 11 1 19
5 17 9 -3 4 10 15 28 24 60 30 174 121 223 178 26 31 52 53 58 49 5 -3 7 -1 4
4 -9 14 32 65 45 57 7 -5 8 -2 3 5 -9 15 33 63 48 54 6 -3 7 -1 4 4 -7 12 16
36 25 27 3 -3 5 1 5 9 -2 19 71 79 147 122 107 60 200 80 361 79 85 0 183 -8
250 -19 61 -10 152 -18 202 -19 67 -1 93 -4 93 -13 0 -7 7 -13 15 -13 8 0 15
5 15 11 0 5 -4 7 -10 4 -5 -3 -10 -2 -10 3 0 5 26 12 58 16 178 21 387 121
511 245 10 10 53 59 95 109 77 91 92 106 111 107 6 1 9 6 8 12 -4 17 69 74 85
68 8 -3 10 0 6 7 -5 8 -2 9 10 5 9 -4 15 -3 11 2 -10 18 107 54 177 55 36 1
64 4 61 9 -2 4 20 7 51 7 30 0 56 -4 58 -8 2 -4 59 -5 128 -1 185 10 269 49
298 136 11 34 7 66 -15 99 -16 25 -109 76 -170 95 -23 6 -40 15 -38 20 3 4 -5
5 -17 1 -16 -4 -19 -2 -13 8 5 8 4 11 -3 6 -15 -9 -183 34 -176 45 3 5 -1 6
-9 3 -19 -7 -135 28 -253 76 -103 42 -207 107 -197 123 3 5 1 7 -5 3 -13 -8
-106 89 -151 157 -45 71 -140 270 -186 392 -81 216 -173 541 -161 571 3 8 2
13 -3 10 -10 -7 -55 247 -48 274 3 11 1 18 -3 15 -12 -7 -25 208 -22 359 2
148 21 281 58 411 76 268 84 305 84 404 0 60 -8 129 -21 186 -27 117 -27 117
-6 120 12 2 24 -9 36 -33 27 -54 36 -86 21 -77 -9 5 -10 1 -5 -16 13 -41 26
-57 20 -24 -5 29 -5 29 6 5 21 -48 39 -172 39 -268 l0 -97 70 -49 c55 -39 68
-52 59 -63 -8 -8 -8 -13 -1 -13 6 0 13 6 16 13 3 9 9 7 19 -5 8 -10 16 -16 18
-13 3 2 24 -13 47 -34 23 -21 42 -36 42 -32 0 3 5 -1 10 -9 20 -31 3 -170 -20
-170 -6 0 -9 -4 -7 -8 3 -12 -45 -112 -52 -107 -4 2 -5 -12 -3 -32 3 -23 0
-38 -9 -44 -11 -7 -11 -9 3 -9 9 0 19 -9 23 -20 3 -10 19 -30 35 -43 16 -14
27 -27 25 -29 -4 -4 -5 -4 112 -15 44 -5 79 -5 77 -2 -2 4 20 10 48 13 41 6
53 4 60 -8 5 -9 14 -16 19 -16 6 0 7 5 3 11 -4 7 12 1 35 -11 30 -17 38 -26
29 -33 -9 -6 -8 -7 4 -3 23 7 94 -19 91 -33 -2 -6 7 -11 20 -11 18 0 19 2 7
10 -13 8 -12 10 3 10 9 0 17 -4 17 -9 0 -16 142 18 189 46 25 15 51 26 56 24
6 -1 7 0 3 4 -3 4 2 25 13 48 10 23 19 62 20 87 0 25 3 39 6 33 2 -7 12 -13
21 -13 15 0 15 2 2 10 -8 5 -10 10 -4 10 5 0 14 -4 20 -9 17 -16 128 -30 170
-22 106 20 162 92 173 219 4 44 3 78 -1 76 -12 -8 -20 80 -9 109 16 42 58 232
70 317 35 245 41 530 19 892 -14 245 -21 227 110 283 48 21 125 56 172 78 47
23 92 40 100 38 8 -1 12 1 7 5 -9 10 111 86 124 78 5 -3 8 -2 7 3 -2 5 29 39
69 76 75 72 115 134 105 169 -4 18 -10 20 -46 15 -23 -4 -81 -22 -131 -42
-104 -40 -112 -42 -67 -15 18 11 39 20 47 20 8 0 14 3 12 8 -1 4 25 34 59 68
35 35 74 87 91 122 17 33 33 59 35 57 2 -2 3 33 3 78 0 81 0 82 -25 79 -14 -1
-33 -4 -42 -5 -9 0 -15 -4 -13 -8 10 -15 -162 -132 -179 -122 -6 3 -8 3 -4 -2
8 -9 -30 -40 -38 -32 -3 3 -16 -6 -30 -20 -14 -14 -31 -22 -40 -19 -8 3 -12 2
-9 -4 8 -12 -52 -43 -67 -34 -7 4 -8 3 -4 -4 9 -14 -127 -84 -147 -76 -8 3
-18 1 -22 -5 -4 -7 1 -9 12 -5 15 5 16 4 3 -5 -39 -30 -131 -70 -147 -65 -15
5 -16 4 -3 -5 8 -6 10 -11 4 -11 -6 0 -39 -18 -73 -40 -34 -22 -67 -37 -73
-34 -6 4 -8 3 -5 -3 7 -11 -56 -76 -66 -68 -4 3 -5 2 -3 -1 2 -3 -12 -31 -30
-62 -39 -64 -55 -113 -74 -220 -9 -47 -16 -68 -22 -60 -5 8 -6 4 -3 -12 3 -14
-5 -83 -20 -153 -14 -71 -25 -131 -25 -133 0 -3 -4 -2 -10 1 -6 4 -7 -6 -3
-26 5 -25 3 -30 -7 -24 -8 5 -11 4 -6 -3 11 -18 -80 -342 -96 -342 -5 0 -7 -4
-3 -9 5 -10 -17 -71 -62 -173 -16 -36 -32 -58 -42 -58 -11 0 -12 -3 -4 -8 9
-6 -2 -33 -38 -97 -60 -106 -72 -121 -59 -74 19 65 13 85 -32 119 -24 17 -43
35 -43 40 0 6 -4 10 -10 11 -22 2 -45 21 -39 31 4 6 3 8 -3 5 -13 -8 -36 17
-26 27 4 4 1 4 -8 1 -14 -5 -102 74 -100 91 1 5 -4 9 -9 9 -11 0 -220 205
-220 216 0 3 -18 25 -40 48 -22 23 -37 47 -34 53 4 6 3 8 -3 5 -11 -7 -200
200 -195 214 1 5 -2 8 -6 7 -8 -3 -125 95 -181 152 -19 19 -31 29 -27 22 4 -7
-13 0 -38 15 -24 15 -42 31 -40 35 3 4 -2 5 -11 2 -11 -5 -18 0 -22 15 -3 13
-12 21 -22 19 -27 -4 -92 23 -85 34 4 6 2 8 -3 5 -13 -8 -117 26 -108 35 4 4
-6 6 -21 6 -16 0 -60 9 -99 20 -38 11 -96 26 -127 33 -33 7 -55 16 -51 22 4 6
-4 8 -19 4 -14 -4 -32 -1 -43 7 -16 11 -17 24 -13 117 6 108 24 171 56 195 26
20 116 14 211 -13 84 -24 254 -45 244 -30 -2 4 0 7 6 7 5 0 23 11 39 25 16 13
31 23 33 20 3 -2 5 4 6 13 4 49 29 179 36 190 5 7 13 9 19 6 6 -4 8 -2 5 3 -4
6 2 18 13 28 22 20 26 55 9 72 -13 13 38 76 53 66 6 -3 8 -2 5 4 -4 6 2 40 13
77 18 64 18 89 0 44 l-9 -23 0 23 c-1 18 10 27 52 46 80 35 93 76 53 163 -13
28 -21 55 -18 59 4 4 2 4 -5 1 -14 -9 -75 62 -66 76 3 6 1 7 -5 3 -6 -4 -22
10 -36 31 -34 49 -35 130 -4 205 16 40 22 75 22 143 1 82 -2 96 -31 159 -18
37 -51 90 -73 116 -22 26 -36 51 -32 55 4 5 2 5 -4 2 -14 -8 -37 17 -26 28 4
5 1 5 -5 1 -16 -9 -85 42 -76 57 3 6 1 7 -6 3 -6 -4 -33 5 -59 21 -77 47 -207
102 -295 125 -45 12 -84 24 -87 27 -3 4 -16 7 -30 7 -14 1 -65 6 -115 13 -119
14 -282 13 -375 -5z m925 -521 c-10 -58 -26 -103 -36 -103 -5 0 -8 -3 -8 -7 3
-19 -3 -33 -32 -72 -26 -37 -32 -41 -47 -29 -15 12 -16 11 -3 -4 7 -10 11 -19
7 -19 -3 -1 -10 -2 -15 -3 -5 0 -13 -5 -18 -10 -5 -5 -3 -6 5 -2 6 4 12 2 12
-3 0 -6 -4 -11 -10 -11 -5 0 -23 -24 -40 -52 -22 -39 -30 -66 -30 -101 0 -33
-5 -49 -15 -53 -8 -4 -15 -11 -15 -16 0 -6 7 -5 15 2 22 18 24 11 14 -45 -20
-109 -57 -154 -172 -209 -31 -15 -62 -36 -68 -47 -5 -11 -13 -18 -17 -15 -9 5
-11 -15 -15 -134 -2 -52 -7 -103 -12 -113 -8 -18 -74 -57 -97 -57 -9 0 -9 3 2
10 12 7 8 10 -15 10 -20 0 -26 -3 -17 -9 10 -6 5 -11 -17 -20 -16 -7 -37 -21
-47 -32 -9 -10 -21 -16 -27 -12 -5 3 -7 1 -4 -4 4 -6 -1 -26 -10 -44 -27 -52
-28 -167 -4 -283 11 -55 18 -103 15 -108 -3 -4 -1 -8 4 -8 6 0 13 -11 16 -24
3 -13 9 -32 13 -42 4 -11 3 -15 -4 -11 -7 4 -10 0 -9 -10 2 -9 9 -19 16 -21 8
-3 10 0 6 9 -4 8 3 1 16 -16 13 -16 24 -33 24 -37 1 -5 2 -12 3 -18 0 -5 9
-10 18 -10 15 0 14 2 -3 15 -24 18 -11 19 24 2 15 -8 54 -19 87 -27 76 -16
106 -31 140 -72 31 -37 75 -125 74 -148 0 -8 -4 -5 -9 8 -14 33 -21 27 -9 -8
6 -16 15 -28 19 -25 12 7 23 -68 16 -107 -5 -25 -4 -28 3 -13 6 13 10 -34 10
-142 1 -89 -3 -164 -8 -167 -5 -3 -7 -16 -4 -29 6 -21 4 -20 -25 7 -17 16 -29
34 -25 39 3 6 1 7 -5 3 -6 -3 -14 -1 -19 6 -14 24 -135 123 -260 215 -67 50
-120 92 -118 95 3 3 -1 5 -7 5 -17 0 -164 102 -161 112 1 4 -4 8 -11 8 -22 0
-166 94 -163 106 1 7 -7 12 -18 12 -18 0 -223 122 -250 148 -7 7 -5 7 4 2 10
-6 12 -4 7 4 -4 6 -13 10 -20 9 -11 -3 -191 96 -200 110 -6 10 166 138 179
134 5 -2 7 -1 3 3 -3 4 16 35 44 68 51 64 115 168 138 225 7 17 17 32 22 32 5
0 7 4 4 8 -3 5 6 42 18 83 13 41 29 106 36 146 10 56 17 73 32 76 13 4 22 -1
28 -16 5 -12 9 -17 9 -10 1 9 10 8 36 -3 29 -12 131 -17 120 -6 -2 2 13 18 33
36 32 30 36 39 40 94 4 59 3 63 -30 96 -20 20 -33 37 -31 39 2 3 -27 3 -64 1
-80 -4 -103 -7 -98 -12 2 -2 -4 -12 -13 -23 -16 -18 -17 -17 -29 24 -37 122 4
257 85 281 16 6 22 3 22 -9 0 -12 8 -16 29 -13 28 2 65 -18 57 -31 -3 -4 0
-13 6 -21 8 -12 9 -11 4 5 -4 13 6 6 31 -20 21 -22 37 -42 36 -45 -3 -10 70
-10 83 1 7 6 18 8 24 4 6 -4 10 -3 9 2 -2 4 3 20 9 36 7 15 17 39 22 53 6 15
15 22 22 18 7 -4 8 -3 4 4 -9 16 15 24 144 52 57 12 129 31 160 42 61 23 174
93 204 126 10 12 23 19 28 16 4 -3 7 0 6 8 -2 7 4 12 12 10 8 -2 12 -1 8 3 -4
4 9 30 28 57 19 28 34 56 34 64 0 8 2 14 5 14 3 0 3 -17 0 -37z"/>
<path d="M3968 9579 c-34 -11 -63 -30 -80 -50 -16 -18 -28 -28 -28 -21 0 7 -5
10 -11 6 -7 -4 -7 -9 -2 -13 6 -3 8 -34 5 -68 -4 -57 -6 -61 -23 -50 -10 6
-15 15 -13 19 3 5 2 7 -3 6 -4 -1 -32 6 -62 15 -30 10 -57 15 -60 10 -11 -15
-52 -34 -62 -28 -5 4 -8 1 -7 -7 2 -7 -3 -12 -10 -10 -6 1 -11 -1 -10 -5 0 -5
-6 -25 -15 -45 -23 -50 -21 -100 3 -149 21 -40 71 -79 103 -79 9 0 17 -4 17
-8 0 -13 -50 -33 -62 -26 -6 4 -8 2 -5 -3 7 -12 -26 -46 -36 -38 -4 3 -5 2 -2
-1 2 -4 -2 -19 -10 -35 -19 -36 -19 -112 0 -149 9 -17 16 -33 17 -37 2 -15 63
-54 100 -64 62 -16 136 11 167 61 l18 30 13 -27 c7 -16 12 -38 11 -50 -1 -13
2 -23 8 -23 6 0 8 8 4 18 -4 10 4 6 20 -11 35 -37 90 -59 136 -55 40 3 94 45
117 90 20 38 17 112 -5 156 l-19 37 45 3 c162 9 223 183 101 287 -18 15 -40
20 -98 22 -46 1 -80 -3 -89 -10 -8 -7 -3 6 12 27 14 22 32 63 38 91 10 46 9
57 -9 97 -23 52 -47 71 -114 92 -41 12 -52 12 -100 -5z m46 -400 c14 -11 26
-26 25 -32 0 -8 -2 -8 -6 1 -2 6 -10 9 -15 6 -6 -4 -8 -2 -4 4 3 6 2 13 -3 16
-11 7 -9 -13 2 -31 5 -7 5 -18 1 -24 -4 -7 1 -7 16 1 22 12 22 11 16 -16 -9
-37 -41 -64 -76 -64 -71 0 -104 105 -47 145 30 21 59 19 91 -6z"/>
<path d="M1986 5744 c-3 -9 -6 -42 -6 -73 0 -107 72 -211 188 -271 13 -6 21
-14 18 -17 -3 -3 -14 0 -23 8 -16 13 -17 12 -4 -4 8 -10 21 -15 32 -12 19 6
188 -79 172 -87 -4 -3 -2 -3 5 -1 7 1 32 -7 54 -18 32 -16 38 -23 27 -31 -10
-6 -7 -7 10 -3 17 5 22 4 16 -5 -5 -9 -4 -11 3 -6 15 9 93 -31 89 -45 -1 -7 4
-14 12 -17 8 -3 11 0 7 7 -5 7 -1 9 8 5 9 -3 13 -11 9 -17 -3 -6 -1 -7 5 -3
10 6 168 -72 195 -98 7 -6 19 -12 27 -14 29 -7 229 -126 224 -134 -3 -4 1 -5
8 -3 18 7 184 -108 180 -124 -1 -7 2 -10 6 -7 12 7 44 -28 35 -39 -5 -4 -3 -5
4 -1 17 10 44 -35 59 -101 11 -48 10 -73 -7 -192 -12 -80 -18 -155 -14 -181
10 -74 33 -144 60 -184 26 -38 31 -51 17 -42 -5 3 -9 -1 -9 -9 0 -11 4 -12 13
-4 9 7 18 2 33 -17 11 -14 18 -30 15 -35 -3 -5 1 -6 9 -3 15 5 32 -11 32 -31
0 -5 6 -10 13 -10 19 0 172 -126 166 -137 -3 -5 3 -4 14 3 16 10 17 15 8 25
-7 7 -18 50 -24 96 -13 96 -16 402 -3 394 4 -3 6 5 4 17 -3 13 8 83 22 157 31
155 31 299 0 380 -9 25 -18 56 -18 70 -1 14 -7 25 -13 25 -6 0 -38 34 -72 76
-34 42 -108 119 -164 170 -57 52 -126 116 -155 143 -29 26 -61 55 -73 63 -11
8 -18 19 -14 24 3 5 0 8 -8 7 -7 -2 -12 2 -11 9 3 13 -40 11 -117 -4 -63 -13
-193 -8 -232 7 -54 22 -138 81 -131 93 3 6 1 7 -6 3 -16 -10 -41 12 -41 35 0
11 -4 19 -10 19 -5 0 -7 -6 -5 -12 4 -10 -11 -13 -57 -13 -35 0 -94 -6 -133
-13 -71 -13 -137 -10 -208 11 -27 7 -34 13 -25 20 9 6 8 7 -5 3 -25 -8 -65 22
-130 97 -57 66 -72 75 -81 51z"/>
<path d="M6810 3104 c-10 -11 -10 -14 1 -14 8 0 -6 -12 -31 -27 -25 -15 -49
-26 -55 -24 -5 1 -7 -1 -2 -5 10 -10 -63 -85 -76 -77 -6 3 -7 1 -3 -5 14 -24
-184 -250 -207 -235 -5 3 -7 1 -3 -5 8 -13 -107 -91 -188 -126 -101 -45 -252
-86 -206 -56 13 8 12 10 -2 10 -10 0 -18 -6 -18 -14 0 -16 -41 -24 -167 -32
-67 -5 -133 0 -278 21 -237 34 -351 31 -465 -10 -41 -15 -85 -27 -97 -27 -13
0 -21 -4 -18 -9 8 -11 -33 -31 -47 -23 -6 4 -8 3 -4 -4 7 -12 -48 -55 -58 -44
-4 4 -6 0 -4 -8 2 -8 -3 -14 -10 -12 -8 1 -11 -1 -8 -6 3 -5 -8 -21 -23 -36
-16 -15 -31 -24 -33 -19 -3 4 -4 3 -2 -3 4 -18 -26 -55 -38 -48 -6 4 -8 3 -5
-3 9 -14 -22 -55 -35 -47 -7 5 -8 2 -3 -5 9 -15 -33 -63 -48 -54 -6 3 -7 2 -4
-4 8 -13 -67 -86 -77 -76 -4 5 -6 2 -4 -6 7 -33 -214 -167 -256 -155 -14 3
-17 2 -8 -4 16 -11 -99 -48 -122 -39 -8 3 -16 1 -18 -5 -3 -7 -47 -12 -129
-12 -98 -1 -145 4 -221 23 -95 22 -136 40 -62 26 26 -4 34 -3 29 6 -5 7 -22 9
-47 6 -26 -3 -69 3 -121 18 -45 13 -100 26 -122 29 -22 4 -53 10 -70 13 l-30
6 25 7 c14 4 -27 7 -90 7 -68 -1 -101 -4 -80 -8 l35 -6 -32 -2 c-18 0 -56 -6
-85 -12 -52 -11 -80 -22 -292 -114 -64 -27 -119 -45 -132 -42 -13 2 -21 1 -19
-3 6 -9 -45 -20 -89 -20 -23 0 -41 -9 -61 -30 -15 -16 -33 -27 -38 -23 -6 4
-7 1 -2 -6 4 -8 -4 -24 -21 -42 -27 -29 -52 -40 -38 -17 4 7 3 8 -5 4 -6 -4
-9 -11 -6 -16 5 -8 -54 -60 -69 -60 -4 0 -15 -8 -26 -18 -33 -31 -157 -73
-198 -68 -28 4 -31 4 -12 -3 l25 -8 -30 -6 c-142 -31 -220 -38 -413 -35 l-204
3 -24 -30 c-27 -34 -39 -96 -31 -165 6 -52 53 -165 86 -206 12 -15 18 -31 14
-37 -3 -5 -1 -7 5 -3 13 8 44 -33 35 -47 -3 -6 -2 -7 4 -4 6 4 21 -5 34 -20
13 -14 59 -52 101 -83 42 -32 74 -61 70 -66 -4 -4 -2 -4 4 -1 6 4 36 -7 65
-23 30 -16 93 -42 141 -58 48 -16 95 -36 105 -43 14 -12 16 -12 8 0 -6 11 -2
13 22 8 17 -3 54 -9 84 -13 40 -5 48 -9 34 -15 -15 -6 -11 -8 18 -8 23 -1 36
3 32 9 -4 6 7 10 27 9 30 -1 31 -2 8 -8 -24 -7 -24 -8 8 -13 18 -2 35 -1 38 4
3 4 0 8 -5 8 -6 0 -11 4 -11 10 0 5 3 9 7 8 18 -5 110 15 137 29 16 8 50 34
75 57 65 60 109 88 122 80 8 -4 9 -3 5 4 -8 14 50 46 66 36 6 -4 8 -3 4 4 -7
12 72 44 159 63 74 15 238 15 325 -1 102 -18 210 -52 203 -63 -3 -6 -1 -7 5
-3 14 8 62 -11 79 -32 8 -9 12 -11 8 -4 -8 16 -6 16 59 -9 32 -12 53 -26 49
-32 -3 -6 -1 -7 6 -3 13 8 101 -22 101 -35 0 -5 10 -13 23 -19 21 -11 21 -10
3 4 -26 21 -24 21 78 -14 168 -56 325 -63 489 -20 43 11 83 17 89 14 6 -4 8
-3 5 3 -3 5 17 21 45 34 29 13 69 37 90 52 21 15 44 25 51 21 7 -4 9 -4 5 1
-4 4 28 45 72 91 43 46 114 135 156 197 43 61 93 131 112 155 29 37 36 41 50
30 15 -11 15 -11 4 3 -11 14 -4 24 47 71 72 67 143 110 168 102 14 -4 15 -3 4
4 -19 14 123 59 229 72 127 15 177 13 189 -7 6 -10 11 -12 11 -5 0 15 34 15
118 1 44 -8 60 -14 51 -21 -9 -6 -5 -6 13 -2 39 9 288 -65 288 -85 0 -13 2
-14 9 -2 6 9 15 11 27 6 11 -4 28 -9 39 -10 11 -1 68 -8 127 -15 169 -21 296
4 421 84 30 19 58 32 62 28 3 -4 5 -2 3 4 -2 6 25 41 59 78 34 37 62 68 61 69
-3 4 52 87 58 87 3 0 2 -5 -1 -10 -3 -6 -1 -10 5 -10 6 0 9 8 6 18 -10 30 94
144 187 205 90 59 168 93 188 82 7 -5 10 -4 6 2 -8 13 69 28 213 43 159 16
179 19 258 41 40 10 79 16 85 13 7 -4 9 -4 5 1 -4 4 10 19 30 32 118 79 173
184 139 266 -9 19 -12 38 -9 42 4 4 0 5 -8 3 -8 -2 -14 2 -15 7 0 6 -6 19 -14
30 -11 18 -12 18 -7 1 5 -15 2 -17 -16 -12 -13 3 -27 6 -33 6 -5 0 -3 5 5 11
12 8 11 9 -7 4 -25 -7 -155 24 -148 35 3 5 -3 6 -12 4 -34 -9 -329 89 -331
109 0 5 -4 12 -8 15 -4 4 -4 1 0 -5 9 -17 5 -16 -44 3 -23 9 -37 21 -33 27 3
5 1 7 -5 3 -13 -8 -63 14 -57 25 3 4 1 10 -5 14 -5 3 -10 1 -10 -5 0 -6 -12
-5 -30 5 -18 9 -28 21 -24 27 4 7 3 8 -4 4 -10 -6 -92 40 -92 51 0 2 5 1 12
-3 7 -4 8 -3 4 5 -4 6 -11 9 -16 6 -12 -7 -61 35 -54 47 4 6 3 8 -3 5 -11 -7
-59 43 -55 56 1 5 -2 6 -7 3 -12 -8 -42 34 -34 47 3 6 1 7 -5 3 -5 -3 -20 9
-31 28 -24 38 -26 50 -8 40 6 -4 9 -3 4 1 -19 21 -200 14 -272 -10 -14 -5 -16
-4 -7 3 11 7 11 10 -1 15 -9 3 -21 -1 -27 -9z"/>
<path d="M7561 2005 c-41 -7 -80 -11 -85 -8 -6 4 -8 3 -4 -2 4 -4 -18 -20 -50
-35 -31 -15 -72 -40 -91 -54 -27 -20 -37 -23 -44 -13 -6 8 -7 7 -4 -4 5 -17
-34 -64 -45 -54 -2 3 -5 -1 -5 -8 0 -21 -95 -157 -106 -150 -6 3 -7 1 -3 -6 7
-10 -58 -111 -71 -111 -3 0 1 8 8 18 13 15 12 16 -3 3 -10 -7 -16 -17 -13 -21
7 -11 -35 -51 -46 -44 -5 3 -8 0 -7 -7 2 -7 -2 -13 -9 -14 -6 0 -15 -4 -20 -9
-5 -5 -2 -6 7 -2 45 22 -55 -49 -110 -78 -188 -99 -396 -103 -707 -15 -112 32
-141 45 -86 37 18 -2 29 0 26 5 -3 5 -22 7 -42 4 -48 -6 -131 13 -131 30 0 7
-10 13 -22 12 -22 0 -22 -1 -3 -10 16 -8 15 -8 -8 -4 -81 16 -226 23 -312 14
-105 -9 -197 -42 -280 -98 -25 -17 -52 -28 -58 -25 -7 4 -9 3 -4 -1 10 -12
-63 -86 -77 -78 -6 3 -8 3 -4 -1 7 -8 -81 -122 -92 -119 -4 1 -7 -4 -7 -10 0
-38 -206 -303 -225 -291 -7 4 -8 2 -4 -4 7 -12 -50 -59 -66 -54 -5 1 -7 -1 -4
-6 7 -12 -113 -89 -182 -117 -95 -38 -228 -67 -292 -63 -32 1 -56 0 -54 -4 3
-4 -17 -5 -43 -2 -150 15 -156 16 -142 26 10 7 7 8 -11 4 -28 -6 -140 22 -140
35 0 5 -7 5 -17 2 -12 -5 -14 -3 -8 7 5 9 4 11 -4 6 -12 -8 -81 11 -81 23 0 4
-8 7 -17 8 -32 3 -185 71 -171 76 7 2 2 4 -12 4 -34 -1 -203 55 -213 70 -4 7
-13 13 -20 13 -8 0 -6 -4 3 -11 11 -8 3 -9 -30 -5 -62 9 -305 13 -283 5 12 -4
6 -8 -22 -13 -60 -11 -141 -43 -207 -82 -33 -19 -56 -30 -53 -24 3 5 4 10 1
10 -8 0 -36 -31 -36 -41 0 -5 44 -9 98 -10 53 0 124 -5 157 -10 33 -5 67 -9
75 -10 33 -2 160 -31 160 -38 0 -3 12 -7 28 -7 15 -1 56 -13 92 -28 36 -15 55
-25 43 -22 -15 3 -20 0 -16 -11 3 -7 11 -12 17 -10 6 2 20 0 31 -6 18 -9 19
-9 5 8 -14 17 -13 17 10 10 14 -4 27 -10 30 -14 3 -3 12 -7 20 -9 38 -7 149
-56 145 -63 -3 -4 0 -11 6 -15 8 -4 9 -3 5 4 -10 17 -6 16 117 -32 130 -50
249 -89 327 -107 44 -10 51 -14 35 -21 -14 -6 -9 -7 18 -4 21 3 75 -2 120 -10
45 -7 97 -14 115 -14 20 0 35 -6 38 -15 4 -8 12 -15 19 -15 7 0 15 -6 18 -12
3 -10 8 -9 22 2 17 14 16 15 -16 21 -19 3 45 6 141 7 234 1 407 28 624 96 44
14 83 23 88 20 4 -3 8 -1 8 4 0 4 26 19 58 32 31 13 105 47 164 76 65 33 114
51 125 48 12 -4 14 -3 5 3 -15 11 53 47 70 37 7 -5 8 -2 3 6 -6 10 -4 12 9 7
9 -4 15 -3 12 2 -11 17 194 98 215 85 7 -4 9 -3 6 3 -16 26 218 52 339 37 62
-7 65 -8 34 -14 -26 -5 -19 -7 30 -6 70 0 222 -40 200 -54 -8 -5 0 -11 21 -19
43 -15 50 -13 19 4 -38 22 -22 18 86 -20 54 -19 108 -35 119 -35 19 -1 19 -2
2 -9 -16 -6 -16 -9 -5 -18 7 -5 21 -10 30 -10 14 0 15 3 7 14 -9 10 -8 13 5
13 9 0 16 -4 16 -8 0 -5 15 -7 33 -6 27 3 29 2 7 -4 -14 -5 32 -8 108 -7 72 0
132 3 132 6 0 4 22 9 48 13 107 14 251 106 333 212 23 30 46 51 52 47 6 -3 7
-1 3 5 -6 10 68 122 81 122 2 0 1 -5 -3 -12 -4 -7 -3 -8 5 -4 6 4 9 11 6 15
-7 12 30 43 40 34 4 -5 5 -3 2 4 -9 14 42 56 60 49 7 -3 12 0 10 6 -1 7 27 23
63 36 55 21 91 26 225 31 106 5 165 3 174 -4 11 -7 13 -7 7 3 -5 9 2 12 27 12
96 0 289 77 378 151 25 21 50 35 54 31 5 -4 5 -2 2 4 -7 12 21 57 32 50 3 -3
7 3 8 12 1 9 7 41 14 71 11 50 11 57 -10 96 -12 23 -27 42 -34 43 -7 1 -41 8
-77 17 -36 8 -77 15 -92 15 -16 0 -28 4 -28 10 0 5 -7 7 -15 4 -21 -8 -145 16
-145 28 0 5 -5 6 -10 3 -28 -17 -308 99 -302 125 1 6 -2 9 -8 5 -21 -13 -195
139 -183 159 3 6 3 8 -2 4 -11 -11 -36 12 -28 25 3 5 1 7 -5 3 -5 -3 -12 0
-14 6 -7 19 -166 20 -257 3z"/>
</g>
</svg>
