<svg xmlns="http://www.w3.org/2000/svg" xmlns:xlink="http://www.w3.org/1999/xlink" id="Capa_1" x="0px" y="0px" viewBox="0 0 436 75" style="enable-background:new 0 0 436 75;" xml:space="preserve"> <g> <path d="M426.6,52.9c0-0.6,0-1.3,0-1.9c-0.1-7.4-0.1-14.9-0.2-22.3c-0.1-4.3-2.6-7.5-6.6-8.1c-5.6-0.9-10.7,0.6-15,4.3 c-0.8,0.7-1.5,1.7-1.9,2.6c-0.9,2-0.1,3.8,1.8,4.5c2.2,0.8,4.3,0,4.9-2.1c0.4-1.3,0.5-2.7,0.8-4.1c0.5-2.4,2.2-3.5,4.6-3.2 c2.5,0.3,3.8,1.9,4.1,4.1c0.4,4,0.4,8,0.7,11.9c0.1,1.4-0.4,2-1.8,2.5c-4.2,1.5-8.4,2.8-12.4,4.7c-3.9,1.8-5,5.2-3.7,9.2 c1.2,3.7,4.1,5.5,8.3,5c1.5-0.1,3.1-0.7,4.5-1.3c1.7-0.8,3.2-1.8,5-2.9c0.1,1.4,0.2,2.5,0.2,3.9h11.8l0.1-0.3v-1.9 C427.7,57.6,426.9,56.9,426.6,52.9z M419.7,50c-0.2,3.6-3.8,6.6-7.5,6.3c-1.9-0.1-3.1-1.2-3.6-2.9c-0.6-2.3-0.4-4.5,1.5-6.1 c0.9-0.7,2-1.4,3.1-1.8c2.1-0.8,4.1-1.4,6.5-2.2C419.7,45.8,419.9,47.9,419.7,50z"></path> <path d="M77.1,17.4c2.8-2.9,5.7-5.8,8.4-8.8c2.3-2.5,2.3-4.1,0.2-6.5c-1.1,0-2.1,0-3.1,0c-0.7,0.8-1.8,1.5-2.2,2.5 c-1.7,3.8-3.4,7.7-5,11.6c-0.2,0.4,0,1.2,0.3,1.5C75.9,17.9,76.8,17.7,77.1,17.4z"></path> <path d="M319.6,8.7c0.3,0,0.6,0.1,0.9,0c0.5-0.2,1-0.6,1.4-0.9c-0.5-0.2-1-0.7-1.5-0.7c-3.3,0-6.6,0-9.9,0 c-1.3-0.1-1.9,0.4-2.3,1.6c-2.7,7.2-5.5,14.3-8.3,21.5c-2.5,6.4-4.9,12.8-7.5,19.5c-1.5-3.5-2.8-6.7-4.1-9.9 c-4.2-10.4-8.4-20.7-12.6-31c-0.3-0.7-1-1.7-1.5-1.7c-3.4,0-6.9,0-10.3,0c-0.3,0-0.9,0.3-0.9,0.6s0.3,1,0.6,1 c4.4,0.9,5.3,4.3,5.3,7.9c0.1,11.6,0.1,23.1,0,34.7c0,3.2-0.8,6-5.1,6.5c-0.4,0.1-0.6,0.7-0.9,1c0.3,0.2,0.6,0.7,0.9,0.7 c4.6,0,9.1,0,13.7,0c0.1-0.1,0.2-0.3,0.3-0.5c-0.4-0.4-0.7-1.1-1.1-1.2c-3.9-1.1-5.2-2.4-5.2-6.3c0-11.1,0-22.2,0-33.3l0.2-0.1 c0.1-0.1,0.2-0.1,0.3-0.1c0.2,0.4,0.3,0.8,0.5,1.2c5.1,13,10.2,26.1,15.3,39.2c0.4,1,0.7,1.8,2.1,1.8c1.3-0.1,1.6-0.8,1.9-1.7 c5-13.1,10-26.2,15-39.2c0.5-1.3,1.1-2.7,1.8-4.4c0.2,0.6,0.2,0.8,0.2,1c0,12.6,0,25.1,0,37.7c0,3.3-0.7,3.9-4.2,4.2 c-0.6,0-1.1,0.6-1.7,0.9c0.6,0.2,1.2,0.7,1.8,0.7c3.5,0,7,0,10.5,0c1.9,0,3.8,0,5.7,0c0.3,0,0.7-0.5,1-0.8c-0.4-0.3-0.6-0.7-1-0.9 c-0.4-0.1-0.9-0.1-1.3-0.1c-2.8-0.2-3.7-1.1-3.7-3.9c0-13.7,0-27.4,0-41.1C315.9,9.7,316.7,8.9,319.6,8.7z"></path> <path d="M61.4,57.8c-3.5-0.3-4.2-1-4.3-4.4c0-0.4,0-0.9,0-1.3c0-12.6,0-25.1,0-37.7c0-5.2,0.7-5.6,4.7-5.7c0.4,0,0.8-0.5,1.2-0.8 c-0.5-0.3-0.9-0.8-1.4-0.8c-3.2,0-6.5,0.1-9.7,0c-1.5,0-2.1,0.5-2.6,1.8c-3.8,10-7.7,20-11.5,30c-1.3,3.5-2.7,6.9-4.2,10.8 c-1.5-3.6-2.8-6.8-4.1-10c-4.2-10.4-8.4-20.7-12.6-31c-0.3-0.7-1-1.6-1.5-1.6c-3.6,0-7.2,0-10.8,0C4.4,7.2,4.3,7.4,4.2,7.5 C4.6,8,4.9,8.7,5.4,8.8c2.5,0.7,3.9,2.4,4.4,4.8c0.3,1.4,0.4,2.9,0.4,4.3c0,8.7,0,17.4,0,26.1c0,2.7,0.1,5.5,0,8.3 C10,55.6,8.7,57,5.5,57.8C5,58,4.7,58.7,4.3,59.1c0.1,0.1,0.3,0.3,0.4,0.4h14.1l-0.1,0c0.2-0.2,0.3-0.3,0.4-0.5 c-0.5-0.4-0.9-1.1-1.4-1.2c-3.1-0.8-4.6-2.1-4.6-5.2c-0.2-11.5-0.2-22.9-0.2-34.3c0,0,0.1-0.1,0.3-0.1c0.2,0.5,0.5,1,0.7,1.5 c5,12.8,10,25.6,15,38.4c0.4,0.9,0.4,2.2,2.1,2.2c1.7,0,1.8-1.1,2.2-2.1c4.6-12.2,9.3-24.3,14-36.5c0.9-2.2,1.8-4.5,2.7-6.7 c0.1,0,0.2,0,0.3,0c0,0.7,0,1.3,0,1.9c0,11.4,0,22.9,0,34.3c0,1.1-0.1,2.3-0.2,3.4c-0.2,2.3-0.9,2.9-3.2,3.2 c-0.5,0.1-1.1-0.1-1.5,0.1c-0.5,0.2-0.9,0.7-1.4,1.1c0.2,0.1,0.3,0.3,0.4,0.5h18.6C63.6,57.8,62.5,57.8,61.4,57.8z"></path> <path d="M397.7,58c-2.7-0.3-3.5-1.1-3.7-3.8c0-0.9,0-1.7,0-2.5c0-15.7,0-31.3,0-47c0-0.7-0.1-1.4-0.2-2.7 c-3.8,3.5-7.8,5.4-12.5,5.4c-0.2,0-0.6,0.5-0.6,0.7s0.3,0.7,0.6,0.7c0.7,0.1,1.4,0.1,2.1,0.1c2.2,0.2,3.7,1.1,3.7,2.9 c0.1,3.4,0,6.8,0,10.4c-0.6-0.2-1-0.3-1.4-0.5c-7.2-2.7-14.5-0.6-18.5,5.9c-5.2,8.3-5.4,17.2-1.2,25.8c4,8.2,12.9,9.1,19.1,2.4 c0.6-0.7,1.2-1.4,2.1-2.4v6.1h11.9v0.2C399.7,58.1,398.7,58,397.7,58z M387.1,45.4c-0.1,3.7-1.5,6.8-4.1,9.3 c-3.3,3.3-7.9,2.7-10-1.4c-1-2.2-1.8-4.6-2.1-7c-0.8-5.9-0.7-11.8,1.3-17.5c0.9-2.5,2.3-4.6,5-5.5c5-1.5,9.7,2.3,9.9,8 c0,2.6,0,5.1,0,7.6l0-0.1C387.1,41,387.1,43.2,387.1,45.4z"></path> <path d="M173.4,50.6c-1.7-0.3-3.4-0.3-5.1-0.3c-2.3,0-4.6,0-6.9,0c-1.3-0.1-2.5-0.6-2.7-2.1c-0.2-1.5,0.8-2.3,2.2-2.6 c0.7-0.2,1.4-0.3,2.1-0.3c1.4-0.1,2.8-0.1,4.2-0.3c5.3-0.6,9.8-4.4,10.8-9.3c1-4.8,0.3-9-3.6-12.6l-0.1-0.2 c1.9-0.1,3.5-0.2,5.1-0.5c0.6-0.1,1.1-0.5,1.6-0.8c-0.5-0.2-0.9-0.7-1.4-0.7c-5.7-0.2-11.4-0.4-17.1-0.2c-3.3,0.1-6.3,1.6-8.5,4.2 c-5.5,6.3-3.4,15.6,4.1,19.3c-1.8,1.8-4.2,3.3-5.3,5.5c-1.5,3.1,1.3,4.8,3.8,6.3c-1.8,1.2-3.5,2.2-5.1,3.3 c-2.3,1.6-3.1,3.7-2.3,6.1c0.7,2.3,2.4,3.8,4.5,4.9c4.2,2.3,8.9,3.1,13.6,2.5c6.6-0.8,11.4-4.1,13.4-10.6 C182.7,55.9,179.9,51.6,173.4,50.6z M159,26.7c0.5-2.2,1.9-3.8,4.2-4.1s4.2,0.6,5.6,2.5c1.9,2.7,2.3,5.8,2.6,9h0.1 c-0.3,1.6-0.4,3.2-0.9,4.8c-0.8,2.7-2.6,4.2-5,4.2c-2.9,0.1-4.8-1-5.9-3.8C158.1,35.2,158,31,159,26.7z M175.3,65.6 c-2,4-6.8,6.1-12.2,5.3c-4.4-0.7-7.1-3-7.8-6.9c-0.7-4,1.8-7,5.8-7c1.3,0,2.7,0,4,0l0.1,0.2c1.7,0,3.5-0.1,5.3,0 C175.3,57.5,177.5,61.3,175.3,65.6z"></path> <path d="M333.3,38.1C333.3,38.1,333.3,38.2,333.3,38.1C333.3,38.2,333.3,38.2,333.3,38.1L333.3,38.1z"></path> <path d="M344.9,20.7c-7.7-1-13.9,2.3-17.1,9.1c-1.7,3.7-2.3,7.6-2.3,11.6h0c0.1,1.4,0,2.7,0.2,4c0.7,5.5,2.5,10.5,7.9,13.2 c6.2,3.1,16.1,2.5,21-6.1c3.4-6,3.7-12.5,2.6-19.1C356,26.3,351.2,21.5,344.9,20.7z M349.3,51.5c-0.2,0.9-0.6,1.8-1,2.6 c-1.2,2.3-2.9,4-5.7,4.1c-2.8,0.1-4.6-1.5-6-3.7c-2.3-3.7-2.9-7.9-3.3-12.1c-0.1-1.4,0-2.8,0-4.2c-0.2,0,0.4-6.9,1.2-10.2 c0.6-2.8,2.4-5,5.5-5.3c3-0.4,5.5,1.1,6.7,3.7c1.4,3,2.5,6.2,3.1,9.4C350.8,41,350.8,46.3,349.3,51.5z"></path> <path d="M90.7,53.7c0-6.8,0-13.5,0-20.3c0-1.8-0.1-3.5-0.3-5.3c-0.4-4.3-3.3-7-7.7-7.4c-3.2-0.3-6.4,0.1-9.2,1.6 c-2.1,1.1-4,2.7-5.8,4.4c-1.1,1.1-1.3,2.8-0.4,4.2c1,1.4,2.5,1.6,4.1,1.4c1.7-0.3,2.4-1.5,2.7-3c0.2-1.1,0.3-2.2,0.5-3.2 c0.6-2.8,2.4-3.9,5.2-3.3c2.1,0.4,3.3,1.9,3.5,3.8c0.5,4.6,0.8,9.2,1.1,13.8c-3.3,1.1-6.1,1.9-8.9,3c-2.4,0.9-4.9,2-7.1,3.4 c-2.8,1.8-3,4.8-2.2,7.8c0.8,3.2,2.9,5,5.9,5.4c3.4,0.5,6.3-0.7,9.1-2.5c0.9-0.5,1.8-1.1,3-1.9v4c3.6,0,6.9,0,10.2,0 c0.5,0,1-0.6,1.5-0.9c-0.5-0.3-0.9-0.8-1.4-0.8C91.4,57.5,90.7,56.9,90.7,53.7z M84,50.3c-0.3,3.5-4.2,6.4-7.7,6 c-1.8-0.2-2.9-1.4-3.4-3.1c-0.7-2.2-0.2-4.8,1.7-5.9c2.9-1.7,6-2.9,9.4-4.4C84,45.8,84.2,48.1,84,50.3z"></path> <path d="M142.6,54c0-4.9,0-9.9,0-14.8c0-3.7,0-7.4-0.3-11c-0.3-4.1-2.9-7-6.8-7.5c-5.4-0.7-10.2,0.7-14.4,4.1 c-0.9,0.7-1.6,1.6-2.1,2.6c-1,1.9-0.3,3.9,1.5,4.6c2.3,0.9,4.4,0.1,5.1-2.1c0.4-1.2,0.5-2.5,0.7-3.7c0.5-2.8,2.3-4,5.2-3.4 c2.7,0.6,3.6,2.7,3.8,4.9c0.4,4.2,0.5,8.5,0.7,12.7c-3.6,1.1-6.8,2.1-9.9,3.3c-2.1,0.9-4.2,1.8-6.1,3.1c-2.6,1.7-3.2,4.6-2.2,8 c0.9,3.1,2.9,4.8,6,5.2c3.2,0.4,6-0.7,8.6-2.3c1.1-0.6,2.1-1.3,3.3-2.1c0,0.9,0,1.4,0,2s0,1.2,0,2h0.1c3.6,0,6.9,0,10.3,0 c0.5,0,1.1-0.5,1.6-0.8c-0.5-0.3-1-0.9-1.5-0.9C143.4,57.5,142.6,56.8,142.6,54z M135.8,49.9c-0.3,3.7-3.9,6.7-7.6,6.5 c-3.4-0.3-5.2-4.6-3.1-7.8c0.7-1,1.8-1.8,2.8-2.5c0.6-0.5,1.4-0.7,2.2-1c1.7-0.6,3.5-1.2,5.6-1.8l0.1,0.1 C135.8,45.8,135.9,47.8,135.8,49.9z"></path> <path d="M213.1,57.6c-3.5-0.6-3.8-0.9-4.1-4.4c0-0.6,0-1.3,0-1.9c0-7.4,0-14.9-0.1-22.3c-0.1-4.6-2.6-7.8-6.7-8.4 c-5.5-0.8-10.4,0.6-14.7,4.2c-0.9,0.7-1.6,1.7-2.1,2.7c-1,2-0.2,3.8,1.7,4.5c2.3,0.9,4.4,0.1,5-2c0.4-1.3,0.5-2.6,0.8-3.9 c0.5-2.7,2.2-3.7,4.9-3.3c2.3,0.4,3.4,2,3.8,4c0.5,2.5,0.6,5,0.7,7.5c0,2.1,0.6,4.7-0.4,6.1c-1,1.3-3.8,1.4-5.7,2.2 c-3,1.2-6.1,2.2-8.9,3.7c-3,1.7-4,4.9-3,8.4c1,3.4,3.4,5.5,6.9,5.4c2-0.1,4.1-0.7,6-1.4c1.7-0.7,3.2-1.8,5-2.9 c0.1,1.3,0.2,2.5,0.2,3.7H214l-0.1-0.3c0.2-0.2,0.3-0.3,0.5-0.5C213.9,58.3,213.6,57.6,213.1,57.6z M202.3,49.9 c-0.2,3.6-3.7,6.6-7.4,6.4c-1.9-0.1-3.1-1.1-3.7-2.8c-0.8-2.2-0.2-4.8,1.5-6.2c1-0.9,2.2-1.5,3.4-2c1.9-0.7,3.9-1.3,6.2-2 C202.3,45.7,202.4,47.8,202.3,49.9z"></path> <path d="M113.9,57.9c-3.2-0.3-4.1-1.3-4.3-4.4c0-0.9,0-1.7,0-2.5c0-15.4,0-30.8,0-46.2c0-0.8-0.2-1.5-0.3-2.6 c-0.8,0.5-1.2,0.7-1.6,1c-2.9,2.5-6.3,3.8-10.2,4.1c-0.5,0-1,0.5-1.5,0.7c0.5,0.2,1.1,0.8,1.6,0.8c4.3,0.3,5.2,1.2,5.2,5.5 c0,12.4,0,24.9,0,37.3c0,5.1-0.1,5.2-5,6.3c-0.3,0.1-0.6,0.6-0.9,0.9c0.3,0.3,0.7,0.8,1,0.8c5.7,0,11.5,0,17.3,0l0,0.1 C115.7,58.1,114.9,57.9,113.9,57.9z"></path> <path d="M236.3,47.5c-0.1-0.9-0.2-1.8-0.1-2.7c1-6.3,2.1-12.5,3.2-18.8c0.6-3.4,1.3-6.8,2-10.4c-0.5,0.1-0.8,0.2-1.1,0.2 c-1.7,0.4-3.4,0.8-4.8,1.2c0.3,1.1,0.9,2,0.9,2.9c-0.1,2.7-0.5,5.3-0.9,7.9c-0.1,0.4-1,0.8-1.5,0.8c-2.6-0.3-4.8,0.5-6.7,2.1 c-4.1,3.4-6.2,10.6-4.5,15.7c1.1,3.2,4.3,4.2,6.8,2c1.1-1,1.9-2.3,2.8-3.4c0.1,3.3,0.7,4.3,2.6,4.5c2.1,0.1,3.9-1.8,4.5-4.4 c-0.7,0.7-1.6,1.7-2.5,2.7C236.8,47.7,236.5,47.6,236.3,47.5z M234.8,31.6c-0.9,4.1-1.9,8.2-3.1,12.2c-0.3,1-1,1.9-1.7,2.7 c-0.5,0.5-1.4,0.9-2.1,0.9c-0.5-0.1-1-1-1.2-1.7c-0.3-0.9-0.3-2-0.3-2.6h0.1c0.2-3.9,0.7-7.4,2.5-10.5c0.6-1.1,1.6-2.2,2.6-2.9 c0.5-0.4,1.7-0.3,2.4,0C234.5,29.9,234.9,31,234.8,31.6z"></path> <path d="M250.2,28.4c-2.3,0.4-4.1,1.6-5.6,3.3c-3,3.6-3.9,7.9-3.2,12.4c0.8,4.6,4.9,6.6,8.8,4.4c2.1-1.1,3.4-2.9,4.1-5 c-1.2,1.1-2.2,2.5-3.6,3.3c-2.4,1.5-4.2,0.6-4.9-2c-0.4-1.4-0.4-3-0.6-4.4l0-0.2c2-0.6,3.8-1,5.4-1.6c2.1-0.8,3.7-2.1,4.5-4.3 C256.4,30.7,254.1,27.8,250.2,28.4z M245.5,39.3h-0.1c0.6-3.5,1.5-6.6,3.8-9.1c0.5-0.5,1.5-0.5,2.2-0.8c0.3,0.7,0.7,1.3,0.7,2 C252.1,35.1,249.5,38.3,245.5,39.3z"></path> </g> </svg>