<svg xmlns="http://www.w3.org/2000/svg" xmlns:xlink="http://www.w3.org/1999/xlink" id="Capa_1" x="0px" y="0px" viewBox="0 0 185 37" style="enable-background:new 0 0 185 37;" xml:space="preserve"> <path d="M57.9,14.8c-0.3,1.5-0.7,2.1-1.5,2.9c-1.1,0.9-2.5,1.5-3.9,1.5s-2.5-0.5-3.3-1.3c-0.5-0.5-0.9-1.4-1-2.2 c-0.1-0.6-0.2-1.7-0.2-3.5c0-0.2,0-0.3,0-0.5c0-0.1,0-0.2,0-0.3c0-3.1,0.4-4.7,1.4-5.7C49.9,5,51,4.5,52.1,4.5 c1.8,0,3.5,0.8,4.6,2.2c0.6,0.7,0.8,1.2,1.2,2.5h3.7v-8h-2.9l-0.9,1.7c-0.5-0.5-1-0.7-1.6-1.1C55,1.2,53.6,0.9,52,0.9 c-5.8,0-9.9,4.6-9.9,11c0,6.4,4.1,10.7,9.9,10.7c1.6,0,2.9-0.3,4.1-0.8c0.7-0.3,1.2-0.6,1.8-1.1l0.9,1.8h3.1v-7.8L57.9,14.8 L57.9,14.8z"></path> <path d="M156.2,22.3h-11.3v-3.5h2.9v-14h-2.9V1.2h11.3v3.5h-2.9v14h2.9V22.3z"></path> <path d="M37.6,22.3H26.3v-3.5h2.9v-14h-2.9V1.2h11.3v3.5h-2.9v14h2.9V22.3z"></path> <path d="M102.2,22.8c-6.4,0-11.5-4.7-11.5-10.8c0-6.5,4.8-11.3,11.5-11.3c3.4,0,6.3,1.1,8.4,3.2c2,2,3.2,4.9,3.2,7.7 C113.7,17.9,108.7,22.8,102.2,22.8z M98.1,6c-1,1-1.4,2.4-1.4,5.3c0,4.2,0.3,5.1,1.4,6.2c1.1,1,2.5,1.6,4.3,1.6 c2.2,0,4.2-1.1,4.9-2.8c0.4-0.9,0.5-2.1,0.5-4.3c0-2.6-0.1-3.7-0.5-4.6c-0.5-1.1-1.3-2-2.5-2.5c-0.7-0.3-1.6-0.4-2.3-0.4h-0.1 C100.5,4.5,99.1,5,98.1,6"></path> <path d="M137.3,22.5c-1.4,0-2.3-0.3-3.1-1.1c-0.9-0.9-1.3-2-1.3-4.1c0-2.1-0.4-2.6-1.1-3.1c-0.5-0.4-1.2-0.6-2-0.6h-4.3v5.2h2.9v3.5 h-11v-3.5h2.7V4.7h-2.8V1.2h14.3c4,0,7,2.5,7,5.9c0,1.4-0.6,2.7-1.8,3.6c-0.7,0.5-1.2,0.8-2,1.1c1.1,0.3,1.7,0.7,2.3,1.3 c1,0.9,1.1,1.7,1.2,3.3c0,0.2,0,0.4,0,0.5c0,0.1,0,0.3,0,0.5c0.1,1.3,0.3,1.4,1.7,1.5l0.6,0v3.5l-0.8,0.1c-0.3,0-0.4,0-0.6,0.1h-0.1 C138.4,22.4,137.8,22.5,137.3,22.5 M125.5,10h2.2c3.1,0,3.9-0.2,4.6-0.9c0.4-0.4,0.7-1,0.7-1.8c0-1.5-1.3-2.6-3.1-2.6h-4.4L125.5,10 L125.5,10z"></path> <path d="M14.4,1.2v3.5h2.1l-4.1,10.4l-4-10.4h2.5V1.2H0.4v3.5h2.3l6.5,17.6h4.9l6.5-17.6h2.1V1.2H14.4z"></path> <path d="M171.3,6.2l2.7,6.2h-5.1L171.3,6.2z M169.1,1l-6.7,17.8h-2.3v3.5h9.5v-3.5h-2.8l0.9-2.8h7.5l1,2.8h-2.9v3.5h10.9v-3.5h-2.3 L174.7,1H169.1L169.1,1z"></path> <path d="M81.4,4.7c1.5,0,3.2,0.5,3.2,4.4v0.1h3.7V1.2H65.9v8.1h3.7V9.2c0-1.4,0.1-2,0.4-2.7c0.6-1.4,2-1.7,3.1-1.7h1.3v14h-3v3.5 h11.5v-3.5h-3.1v-14L81.4,4.7L81.4,4.7z"></path> <path d="M61.4,30.2L60,34h0l-1.4-3.8h-3v0.7h1v4.6h-1v0.7h2.9v-0.7h-1v-4.6h0.1l1.9,5.3h0.6l1.9-5.3h0.1v4.6h-1v0.7h3.2v-0.7h-1 v-4.6h1v-0.7H61.4z"></path> <path d="M68.6,30.9L68.6,30.9l0.9,2.7h-1.8L68.6,30.9z M68.1,30.1l-1.9,5.4h-0.8v0.7h2.8v-0.7h-1.1l0.4-1.2h2.2l0.4,1.2h-1.1v0.7 h3.2v-0.7h-0.8l-2-5.4H68.1L68.1,30.1z M68.7,28.3l-0.6,1.4h0.8l1.3-1.4H68.7z"></path> <path d="M76.8,30.2v0.7h-1.1v4.6h1.1c0.6,0,1.1-0.2,1.3-0.8c0.1-0.2,0.2-0.5,0.2-0.9H79v2.4h-5.6v-0.7h1v-4.6h-1v-0.7L76.8,30.2 L76.8,30.2z"></path> <path d="M83.2,30.9L83.2,30.9l0.9,2.7h-1.8L83.2,30.9z M82.7,30.1l-1.9,5.4h-0.8v0.7h2.8v-0.7h-1.1l0.4-1.2h2.2l0.4,1.2h-1.1v0.7H87 v-0.7h-0.8l-2-5.4H82.7L82.7,30.1z"></path> <path d="M92.9,30.1h0.6v2h-0.6c-0.2-0.4-0.3-0.5-0.5-0.7c-0.4-0.4-1-0.6-1.5-0.6c-0.4,0-0.8,0.2-1.1,0.5c-0.3,0.4-0.5,0.8-0.5,1.9 c0,0,0,0.1,0,0.2v0.3c0,1.2,0.6,1.9,1.6,1.9c1,0,1.6-0.5,1.6-1.4v-0.3h-1.1v-0.7h3.3v0.7h-0.9v2.2h-0.6l-0.3-0.8 c-0.3,0.4-0.4,0.5-0.8,0.6c-0.4,0.2-0.8,0.3-1.3,0.3c-1.8,0-3-1.2-3-3c0-0.8,0.4-1.7,1-2.4c0.6-0.6,1.2-0.8,2.1-0.8 c0.4,0,0.8,0.1,1.1,0.2c0.3,0.1,0.4,0.2,0.7,0.5L92.9,30.1L92.9,30.1z"></path> <path d="M98.9,30.9L98.9,30.9l0.9,2.7h-1.8L98.9,30.9z M98.4,30.1l-1.9,5.4h-0.8v0.7h2.8v-0.7h-1.1l0.4-1.2h2.2l0.4,1.2h-1.1v0.7 h3.2v-0.7h-0.8l-2-5.4H98.4L98.4,30.1z"></path> <path d="M109.7,30.2v5.3h0.9v0.7h-3.1v-0.7h1V31h0c-0.3,0.5-0.4,0.7-0.7,1c-0.2,0.3-0.3,0.4-0.7,0.7l-0.5-0.1 c0.4-0.4,0.6-0.6,0.8-0.9c0.1-0.1,0.2-0.3,0.3-0.4c0.2-0.4,0.3-0.6,0.6-1.1L109.7,30.2L109.7,30.2z"></path> <path d="M114,31c-0.2,0.2-0.3,0.5-0.3,1c0,0.9,0.3,1.3,1,1.3c0.7,0,1.1-0.5,1.1-1.3c0-0.8-0.4-1.3-1.1-1.3 C114.5,30.7,114.2,30.8,114,31 M113.9,34.6v0.1c0,0.6,0.3,0.9,0.8,0.9c0.4,0,0.8-0.3,0.9-0.6c0.1-0.3,0.2-0.6,0.2-1.7 c-0.5,0.4-0.9,0.5-1.4,0.5c-1.1,0-1.9-0.7-1.9-1.8c0-1.1,0.9-2,2.2-2c1.4,0,2.3,1.2,2.3,3c0,1.9-1,3.2-2.5,3.2c-0.8,0-1.4-0.3-1.7-1 c-0.1-0.2-0.1-0.3-0.1-0.7H113.9L113.9,34.6z"></path> <path d="M122.1,35.2v-0.9h0.7v1.8h-4.5v-0.7l2.2-1.8c0.8-0.7,1.1-1.1,1.1-1.7c0-0.8-0.4-1.2-1-1.2s-1.1,0.4-1.1,0.9 c0,0.2,0,0.4,0.1,0.7h-1.3c0-0.5,0-0.8,0.2-1.1c0.1-0.2,0.2-0.4,0.4-0.6c0.4-0.4,0.9-0.6,1.7-0.6c1.3,0,2.3,0.7,2.3,1.8 c0,0.4-0.2,0.8-0.4,1.1c-0.2,0.3-0.6,0.5-0.9,0.8l-2.1,1.5v0L122.1,35.2L122.1,35.2z"></path> <path d="M127.5,31.6c0-0.6-0.5-1-1.3-1c-0.7,0-1.2,0.4-1.2,0.9c0,0.3,0.2,0.6,0.5,0.7c0.3,0.2,0.5,0.2,1.1,0.4 C127.3,32.3,127.5,32.1,127.5,31.6z M124.8,34.6c0,0.7,0.5,1,1.3,1c0.9,0,1.4-0.4,1.4-0.9c0-0.3-0.2-0.6-0.5-0.8 c-0.3-0.2-0.5-0.2-1.3-0.5C125.1,33.8,124.8,34.1,124.8,34.6z M124.4,32.7c-0.2-0.3-0.3-0.6-0.3-1c0-0.9,0.9-1.7,2.2-1.7 s2.1,0.6,2.1,1.5c0,0.3-0.1,0.6-0.3,0.8c-0.2,0.2-0.3,0.2-0.7,0.4c0.5,0.2,0.6,0.3,0.9,0.5c0.3,0.3,0.5,0.7,0.5,1.1 c0,1.1-0.9,1.9-2.3,1.9c-1.3,0-2.3-0.7-2.3-1.7c0-0.6,0.3-0.9,1.2-1.3C124.7,33.1,124.6,33,124.4,32.7"></path> </svg>